<svg
   width="100%"
  viewBox="0 0 1408 302"
  fill="none"
  xmlns="http://www.w3.org/2000/svg"
>
  <path
    fill-rule="evenodd"
    clip-rule="evenodd"
    d="M255.341 178.076L249.366 206.693H262.815C265.787 206.693 268.129 206.354 269.842 205.678C271.555 205.001 272.898 203.895 273.871 202.359C274.844 200.811 275.331 199.177 275.331 197.46C275.331 196.158 274.916 194.994 274.085 193.965C273.268 192.924 272.126 192.202 270.66 191.799C272.502 191.2 273.865 190.322 274.747 189.164C275.63 187.992 276.071 186.613 276.071 185.025C276.071 183.841 275.818 182.761 275.312 181.785C274.806 180.809 274.066 180.028 273.093 179.443C272.119 178.857 270.932 178.466 269.531 178.271C268.687 178.141 267.208 178.076 265.093 178.076H255.341ZM263.263 189.632H258.786L260.207 182.859H264.762C266.397 182.859 267.429 182.898 267.857 182.976C268.622 183.132 269.213 183.444 269.628 183.913C270.043 184.381 270.251 184.98 270.251 185.708C270.251 186.45 270.03 187.146 269.589 187.797C269.148 188.448 268.486 188.916 267.604 189.203C266.721 189.489 265.274 189.632 263.263 189.632ZM261.862 202.086H256.198L257.755 194.61H264.762C266.397 194.61 267.565 194.922 268.265 195.547C268.966 196.158 269.317 196.939 269.317 197.889C269.317 198.67 269.07 199.412 268.577 200.114C268.097 200.817 267.448 201.325 266.63 201.637C265.826 201.936 264.236 202.086 261.862 202.086Z"
    fill="currentColor"
  />
  <path
    fill-rule="evenodd"
    clip-rule="evenodd"
    d="M276.854 186.177L282.323 186.997C282.661 185.24 283.16 184.03 283.822 183.366C284.484 182.689 285.256 182.351 286.138 182.351C287.008 182.351 287.722 182.65 288.28 183.249C288.851 183.848 289.136 184.628 289.136 185.591C289.136 186.19 288.967 186.86 288.63 187.602C288.293 188.344 287.67 189.222 286.761 190.237C286.255 190.797 285.042 192 283.121 193.848C280.565 196.282 278.807 198.045 277.847 199.138C276.886 200.231 276.082 201.416 275.433 202.691C274.797 203.953 274.388 205.287 274.207 206.693H304.245C307.217 206.693 309.559 206.354 311.272 205.678C312.985 205.001 314.328 203.895 315.301 202.359C316.274 200.811 316.761 199.177 316.761 197.46C316.761 196.158 316.345 194.994 315.515 193.965C314.697 192.924 313.556 192.202 312.089 191.799C313.932 191.2 315.294 190.322 316.177 189.164C317.059 187.992 317.5 186.613 317.5 185.025C317.5 183.841 317.247 182.761 316.741 181.785C316.235 180.809 315.495 180.028 314.522 179.443C313.549 178.857 312.362 178.466 310.96 178.271C310.117 178.141 308.638 178.076 306.522 178.076H296.771L291.863 201.578H282.713C283.232 200.915 283.77 200.29 284.328 199.704C284.899 199.106 286.054 198 287.793 196.386C289.532 194.759 290.784 193.504 291.55 192.619C292.614 191.369 293.379 190.179 293.846 189.046C294.314 187.901 294.547 186.763 294.547 185.63C294.547 183.405 293.788 181.57 292.27 180.126C290.752 178.681 288.662 177.959 286.002 177.959C283.576 177.959 281.551 178.668 279.929 180.087C278.32 181.492 277.295 183.522 276.854 186.177ZM304.693 189.632H300.216L301.637 182.859H306.191C307.827 182.859 308.858 182.898 309.286 182.976C310.052 183.132 310.642 183.444 311.058 183.913C311.473 184.381 311.68 184.98 311.68 185.708C311.68 186.45 311.46 187.146 311.019 187.797C310.577 188.448 309.916 188.916 309.033 189.203C308.151 189.489 306.704 189.632 304.693 189.632ZM303.291 202.086H297.627L299.184 194.61H306.191C307.827 194.61 308.994 194.922 309.695 195.547C310.396 196.158 310.746 196.939 310.746 197.889C310.746 198.67 310.5 199.412 310.007 200.114C309.526 200.817 308.878 201.325 308.06 201.637C307.256 201.936 305.666 202.086 303.291 202.086Z"
    fill="currentColor"
  />
  <path
    fill-rule="evenodd"
    clip-rule="evenodd"
    d="M341.752 193.114C341.752 206.789 316.078 217.875 284.407 217.875C252.736 217.875 227.061 206.789 227.061 193.114C227.061 179.439 252.736 168.353 284.407 168.353C316.078 168.353 341.752 179.439 341.752 193.114ZM337.571 193.114C337.571 195.122 336.646 197.38 334.263 199.813C331.862 202.265 328.18 204.665 323.303 206.771C313.562 210.977 299.813 213.682 284.407 213.682C269.001 213.682 255.252 210.977 245.511 206.771C240.633 204.665 236.952 202.265 234.551 199.813C232.167 197.38 231.243 195.122 231.243 193.114C231.243 191.106 232.167 188.848 234.551 186.414C236.952 183.963 240.633 181.563 245.511 179.457C255.252 175.251 269.001 172.546 284.407 172.546C299.813 172.546 313.562 175.251 323.303 179.457C328.18 181.563 331.862 183.963 334.263 186.414C336.646 188.848 337.571 191.106 337.571 193.114Z"
    fill="currentColor"
  />
  <path
    fill-rule="evenodd"
    clip-rule="evenodd"
    d="M1131.45 138.139L1125.48 166.755H1138.93C1141.9 166.755 1144.24 166.417 1145.95 165.74C1147.67 165.064 1149.01 163.957 1149.98 162.422C1150.96 160.873 1151.44 159.24 1151.44 157.522C1151.44 156.221 1151.03 155.056 1150.2 154.028C1149.38 152.987 1148.24 152.265 1146.77 151.861C1148.62 151.263 1149.98 150.384 1150.86 149.226C1151.74 148.055 1152.18 146.676 1152.18 145.088C1152.18 143.904 1151.93 142.824 1151.42 141.848C1150.92 140.872 1150.18 140.091 1149.21 139.505C1148.23 138.92 1147.05 138.529 1145.64 138.334C1144.8 138.204 1143.32 138.139 1141.21 138.139H1131.45ZM1139.38 149.695H1134.9L1136.32 142.921H1140.87C1142.51 142.921 1143.54 142.96 1143.97 143.038C1144.74 143.194 1145.33 143.507 1145.74 143.975C1146.16 144.444 1146.36 145.042 1146.36 145.771C1146.36 146.513 1146.14 147.209 1145.7 147.86C1145.26 148.51 1144.6 148.979 1143.72 149.265C1142.83 149.552 1141.39 149.695 1139.38 149.695ZM1137.97 162.149H1132.31L1133.87 154.672H1140.87C1142.51 154.672 1143.68 154.985 1144.38 155.609C1145.08 156.221 1145.43 157.002 1145.43 157.952C1145.43 158.733 1145.18 159.474 1144.69 160.177C1144.21 160.88 1143.56 161.387 1142.74 161.7C1141.94 161.999 1140.35 162.149 1137.97 162.149Z"
    fill="currentColor"
  />
  <path
    fill-rule="evenodd"
    clip-rule="evenodd"
    d="M1152.97 146.24L1158.44 147.059C1158.77 145.303 1159.27 144.092 1159.94 143.429C1160.6 142.752 1161.37 142.414 1162.25 142.414C1163.12 142.414 1163.83 142.713 1164.39 143.312C1164.96 143.91 1165.25 144.691 1165.25 145.654C1165.25 146.253 1165.08 146.923 1164.74 147.665C1164.41 148.406 1163.78 149.285 1162.87 150.3C1162.37 150.859 1161.15 152.063 1159.23 153.911C1156.68 156.345 1154.92 158.108 1153.96 159.201C1153 160.294 1152.19 161.478 1151.55 162.754C1150.91 164.016 1150.5 165.35 1150.32 166.755H1180.36C1183.33 166.755 1185.67 166.417 1187.38 165.74C1189.1 165.064 1190.44 163.957 1191.41 162.422C1192.39 160.873 1192.87 159.24 1192.87 157.522C1192.87 156.221 1192.46 155.056 1191.63 154.028C1190.81 152.987 1189.67 152.265 1188.2 151.861C1190.04 151.263 1191.41 150.384 1192.29 149.226C1193.17 148.055 1193.61 146.676 1193.61 145.088C1193.61 143.904 1193.36 142.824 1192.85 141.848C1192.35 140.872 1191.61 140.091 1190.64 139.505C1189.66 138.92 1188.47 138.529 1187.07 138.334C1186.23 138.204 1184.75 138.139 1182.64 138.139H1172.88L1167.98 161.641H1158.83C1159.34 160.977 1159.88 160.353 1160.44 159.767C1161.01 159.168 1162.17 158.062 1163.91 156.449C1165.64 154.822 1166.9 153.566 1167.66 152.681C1168.73 151.432 1169.49 150.241 1169.96 149.109C1170.43 147.964 1170.66 146.825 1170.66 145.693C1170.66 143.468 1169.9 141.633 1168.38 140.188C1166.86 138.744 1164.78 138.022 1162.12 138.022C1159.69 138.022 1157.66 138.731 1156.04 140.149C1154.43 141.555 1153.41 143.585 1152.97 146.24ZM1180.81 149.695H1176.33L1177.75 142.921H1182.3C1183.94 142.921 1184.97 142.96 1185.4 143.038C1186.16 143.194 1186.76 143.507 1187.17 143.975C1187.59 144.444 1187.79 145.042 1187.79 145.771C1187.79 146.513 1187.57 147.209 1187.13 147.86C1186.69 148.51 1186.03 148.979 1185.15 149.265C1184.26 149.552 1182.82 149.695 1180.81 149.695ZM1179.4 162.149H1173.74L1175.3 154.672H1182.3C1183.94 154.672 1185.11 154.985 1185.81 155.609C1186.51 156.221 1186.86 157.002 1186.86 157.952C1186.86 158.733 1186.61 159.474 1186.12 160.177C1185.64 160.88 1184.99 161.387 1184.17 161.7C1183.37 161.999 1181.78 162.149 1179.4 162.149Z"
    fill="currentColor"
  />
  <path
    fill-rule="evenodd"
    clip-rule="evenodd"
    d="M1217.87 153.177C1217.87 166.852 1192.19 177.938 1160.52 177.938C1128.85 177.938 1103.17 166.852 1103.17 153.177C1103.17 139.501 1128.85 128.415 1160.52 128.415C1192.19 128.415 1217.87 139.501 1217.87 153.177ZM1213.68 153.177C1213.68 155.184 1212.76 157.443 1210.38 159.876C1207.97 162.328 1204.29 164.728 1199.42 166.834C1189.67 171.04 1175.93 173.744 1160.52 173.744C1145.11 173.744 1131.36 171.04 1121.62 166.834C1116.75 164.728 1113.07 162.328 1110.66 159.876C1108.28 157.443 1107.36 155.184 1107.36 153.177C1107.36 151.169 1108.28 148.91 1110.66 146.477C1113.07 144.026 1116.75 141.626 1121.62 139.519C1131.36 135.313 1145.11 132.609 1160.52 132.609C1175.93 132.609 1189.67 135.313 1199.42 139.519C1204.29 141.626 1207.97 144.026 1210.38 146.477C1212.76 148.91 1213.68 151.169 1213.68 153.177Z"
    fill="currentColor"
  />
  <path
    fill-rule="evenodd"
    clip-rule="evenodd"
    d="M677.468 56.6666L671.493 85.2831H684.943C687.914 85.2831 690.256 84.9448 691.969 84.2681C693.682 83.5914 695.025 82.4852 695.998 80.9497C696.972 79.4011 697.458 77.7679 697.458 76.0501C697.458 74.7488 697.043 73.5841 696.212 72.556C695.395 71.5149 694.253 70.7927 692.787 70.3893C694.629 69.7906 695.992 68.9122 696.874 67.754C697.757 66.5828 698.198 65.2034 698.198 63.6158C698.198 62.4315 697.945 61.3514 697.439 60.3754C696.933 59.3994 696.193 58.6186 695.22 58.033C694.247 57.4474 693.059 57.057 691.658 56.8618C690.814 56.7317 689.335 56.6666 687.22 56.6666H677.468ZM685.39 68.2225H680.913L682.334 61.449H686.889C688.524 61.449 689.556 61.4881 689.984 61.5661C690.749 61.7223 691.34 62.0346 691.755 62.5031C692.17 62.9716 692.378 63.5702 692.378 64.299C692.378 65.0407 692.157 65.737 691.716 66.3876C691.275 67.0383 690.613 67.5068 689.731 67.7931C688.848 68.0794 687.402 68.2225 685.39 68.2225ZM683.989 80.6764H678.325L679.882 73.2002H686.889C688.524 73.2002 689.692 73.5125 690.393 74.1371C691.093 74.7488 691.444 75.5296 691.444 76.4795C691.444 77.2604 691.197 78.0021 690.704 78.7048C690.224 79.4076 689.575 79.9151 688.758 80.2274C687.953 80.5267 686.363 80.6764 683.989 80.6764Z"
    fill="currentColor"
  />
  <path
    fill-rule="evenodd"
    clip-rule="evenodd"
    d="M698.981 64.7675L704.451 65.5873C704.788 63.8305 705.288 62.6202 705.949 61.9566C706.611 61.2799 707.383 60.9415 708.266 60.9415C709.135 60.9415 709.849 61.2408 710.407 61.8394C710.978 62.438 711.263 63.2189 711.263 64.1819C711.263 64.7805 711.094 65.4507 710.757 66.1924C710.42 66.9342 709.797 67.8126 708.888 68.8276C708.382 69.3872 707.169 70.591 705.249 72.4389C702.692 74.8724 700.934 76.6357 699.974 77.7288C699.013 78.822 698.209 80.0062 697.56 81.2815C696.924 82.5438 696.516 83.8777 696.334 85.2831H726.372C729.344 85.2831 731.686 84.9448 733.399 84.2681C735.112 83.5914 736.455 82.4852 737.428 80.9497C738.401 79.4011 738.888 77.7679 738.888 76.0501C738.888 74.7488 738.473 73.5841 737.642 72.556C736.825 71.5149 735.683 70.7927 734.216 70.3893C736.059 69.7906 737.422 68.9122 738.304 67.754C739.186 66.5828 739.627 65.2034 739.627 63.6158C739.627 62.4315 739.374 61.3514 738.868 60.3754C738.362 59.3994 737.623 58.6186 736.649 58.033C735.676 57.4474 734.489 57.057 733.087 56.8618C732.244 56.7317 730.765 56.6666 728.649 56.6666H718.898L713.99 80.1689H704.84C705.359 79.5052 705.897 78.8805 706.455 78.2949C707.026 77.6963 708.181 76.5902 709.92 74.9765C711.659 73.3498 712.911 72.094 713.677 71.2091C714.741 69.9598 715.506 68.7691 715.974 67.6369C716.441 66.4917 716.674 65.3531 716.674 64.2209C716.674 61.9956 715.915 60.1607 714.397 58.7162C712.879 57.2717 710.789 56.5495 708.129 56.5495C705.703 56.5495 703.678 57.2587 702.056 58.6772C700.447 60.0826 699.422 62.1127 698.981 64.7675ZM726.82 68.2225H722.343L723.764 61.449H728.319C729.954 61.449 730.985 61.4881 731.413 61.5661C732.179 61.7223 732.769 62.0346 733.185 62.5031C733.6 62.9716 733.808 63.5702 733.808 64.299C733.808 65.0407 733.587 65.737 733.146 66.3876C732.705 67.0383 732.043 67.5068 731.16 67.7931C730.278 68.0794 728.831 68.2225 726.82 68.2225ZM725.418 80.6764H719.754L721.311 73.2002H728.319C729.954 73.2002 731.121 73.5125 731.822 74.1371C732.523 74.7488 732.873 75.5296 732.873 76.4795C732.873 77.2604 732.627 78.0021 732.134 78.7048C731.654 79.4076 731.005 79.9151 730.187 80.2274C729.383 80.5267 727.793 80.6764 725.418 80.6764Z"
    fill="currentColor"
  />
  <path
    fill-rule="evenodd"
    clip-rule="evenodd"
    d="M763.88 71.7044C763.88 85.3796 738.205 96.4656 706.534 96.4656C674.863 96.4656 649.188 85.3796 649.188 71.7044C649.188 58.0292 674.863 46.9433 706.534 46.9433C738.205 46.9433 763.88 58.0292 763.88 71.7044ZM759.698 71.7044C759.698 73.7121 758.773 75.9708 756.39 78.4039C753.989 80.8555 750.307 83.2555 745.43 85.3616C735.689 89.5677 721.94 92.2722 706.534 92.2722C691.128 92.2722 677.379 89.5677 667.638 85.3616C662.76 83.2555 659.079 80.8555 656.678 78.4039C654.294 75.9708 653.37 73.7121 653.37 71.7044C653.37 69.6968 654.294 67.4381 656.678 65.005C659.079 62.5534 662.76 60.1534 667.638 58.0473C677.379 53.8412 691.128 51.1367 706.534 51.1367C721.94 51.1367 735.689 53.8412 745.43 58.0473C750.307 60.1534 753.989 62.5534 756.39 65.005C758.773 67.4381 759.698 69.6968 759.698 71.7044Z"
    fill="currentColor"
  />
  <path
    d="M0 50.4908V61.3207H39.5153V51.3021H11.8505L38.2883 11.4513L48.0234 61.3207H58.6606L68.2867 16.8655L77.9936 61.3207H88.4285L100.239 1.85778H90.3699L82.8875 43.3926L74.3535 1.85778H62.6647L53.7667 42.7031L46.4865 1.85778H2.87163V11.917H25.5616L0 50.4908Z"
    fill="currentColor"
  />
  <path
    fill-rule="evenodd"
    clip-rule="evenodd"
    d="M130.183 61.3207H140.861L121.406 1.85778H111.012L92.0832 61.3207H102.518L106.522 47.8138H125.936L130.183 61.3207ZM116.108 15.7298L122.781 37.7951H109.515L116.108 15.7298Z"
    fill="currentColor"
  />
  <path
    d="M182.13 43.1492L172.625 39.4582C171.789 43.8388 170.427 47.0431 168.54 49.0712C166.652 51.0722 164.414 52.0727 161.826 52.0727C158.294 52.0727 155.422 50.4908 153.211 47.3271C151 44.1633 149.894 38.8362 149.894 31.3459C149.894 24.126 151.027 18.9476 153.292 15.8109C155.557 12.6741 158.482 11.1058 162.069 11.1058C164.576 11.1058 166.747 11.9711 168.58 13.7017C170.441 15.4053 171.681 17.866 172.301 21.0839L182.008 18.2446C180.795 13.0257 178.88 9.09123 176.265 6.44122C172.598 2.70957 168.041 0.84375 162.594 0.84375C155.907 0.84375 150.582 3.33151 146.618 8.30704C142.061 14.0397 139.783 21.9762 139.783 32.1166C139.783 41.7161 142.048 49.3416 146.578 54.9932C150.515 59.8876 155.651 62.3348 161.988 62.3348C167.03 62.3348 171.277 60.807 174.728 57.7513C178.179 54.6687 180.647 49.8013 182.13 43.1492Z"
    fill="currentColor"
  />
  <path
    d="M186.067 1.85778V61.3207H195.855V43.3521L203.823 33.4145L217.21 61.3207H229.91L210.618 25.0183L228.94 1.85778H215.714L195.855 28.2632V1.85778H186.067Z"
    fill="currentColor"
  />
  <path
    d="M230.451 1.85778V61.3207H267.418V51.3021H240.238V35.1181H264.668V25.0994H240.238V11.917H266.528V1.85778H230.451Z"
    fill="currentColor"
  />
  <path
    fill-rule="evenodd"
    clip-rule="evenodd"
    d="M271.194 1.85778V61.3207H280.982V36.4972H283.004C285.269 36.4972 286.914 36.727 287.938 37.1867C288.963 37.6194 289.934 38.4306 290.85 39.6204C291.767 40.7832 293.506 43.7036 296.068 48.3817L303.186 61.3207H314.875L308.97 49.7202C306.597 45.0691 304.723 41.8513 303.348 40.0666C301.973 38.2548 300.234 36.5918 298.131 35.0775C302.229 34.3474 305.384 32.5627 307.595 29.7234C309.833 26.8841 310.952 23.139 310.952 18.4879C310.952 14.8104 310.224 11.6601 308.768 9.03714C307.312 6.38714 305.451 4.53483 303.186 3.48024C300.921 2.3986 297.146 1.85778 291.862 1.85778H271.194ZM288.262 27.0058H280.982V11.917H288.666C293.061 11.917 295.717 12.0657 296.634 12.3632C297.928 12.7958 298.953 13.5935 299.708 14.7563C300.463 15.892 300.84 17.4063 300.84 19.2992C300.84 21.2732 300.463 22.855 299.708 24.0448C298.953 25.2346 297.969 26.0324 296.755 26.438C295.542 26.8165 292.711 27.0058 288.262 27.0058Z"
    fill="currentColor"
  />
  <path
    d="M325.891 36.2944V61.3207H335.679V36.3755L353.556 1.85778H342.271L331.027 25.3834L319.581 1.85778H308.095L325.891 36.2944Z"
    fill="currentColor"
  />
  <path
    d="M9.73182 120.712L0.146226 121.848C1.49441 135.449 8.12748 142.25 20.0454 142.25C26.7864 142.25 31.7342 140.492 34.889 136.977C38.0707 133.462 39.6615 129.122 39.6615 123.957C39.6615 120.387 39.0818 117.359 37.9224 114.871C36.7629 112.356 35.0777 110.315 32.8667 108.746C30.6826 107.151 27.1234 105.637 22.1891 104.203C17.5243 102.878 14.5448 101.662 13.2506 100.553C11.9563 99.4442 11.3092 98.0787 11.3092 96.4562C11.3092 94.8067 12.0237 93.4277 13.4528 92.319C14.8819 91.2103 16.9176 90.656 19.5601 90.656C22.2025 90.656 24.2383 91.2914 25.6674 92.5623C27.0964 93.8333 28.0267 96.0641 28.4581 99.255L38.2864 98.7277C38.0976 92.9409 36.3989 88.4927 33.1902 85.383C29.9816 82.2733 25.5191 80.7184 19.8028 80.7184C16.0009 80.7184 12.8057 81.3809 10.2172 82.7059C7.62865 84.0309 5.59289 85.9914 4.10989 88.5873C2.65385 91.1833 1.92583 94.1037 1.92583 97.3486C1.92583 100.134 2.49207 102.743 3.62454 105.177C4.78398 107.584 6.3344 109.531 8.27578 111.018C10.2172 112.505 13.2775 113.884 17.4569 115.155C22.1216 116.588 25.0607 117.616 26.2741 118.238C27.4874 118.833 28.3907 119.603 28.9839 120.55C29.5771 121.496 29.8737 122.645 29.8737 123.997C29.8737 126.296 29.0243 128.229 27.3256 129.798C25.6269 131.339 23.2946 132.11 20.3286 132.11C14.3426 132.11 10.8104 128.31 9.73182 120.712Z"
    fill="currentColor"
  />
  <path
    d="M43.6398 82.2192V141.195H77.8567V131.177H53.4276V82.2192H43.6398Z"
    fill="currentColor"
  />
  <path
    d="M80.3384 81.7325V141.195H117.306V131.177H90.1263V114.993H114.555V104.974H90.1263V91.7917H116.416V81.7325H80.3384Z"
    fill="currentColor"
  />
  <path
    d="M121.082 81.7325V141.195H158.049V131.177H130.869V114.993H155.299V104.974H130.869V91.7917H157.159V81.7325H121.082Z"
    fill="currentColor"
  />
  <path
    d="M161.865 81.7325V141.195H171.653V115.926H191.997V105.866H171.653V91.7917H195.192V81.7325H161.865Z"
    fill="currentColor"
  />
  <path
    d="M489.724 141.195L472.373 81.7325H483.01L495.306 125.742L507.197 81.7325H517.631L500.24 141.195H489.724Z"
    fill="currentColor"
  />
  <path
    fill-rule="evenodd"
    clip-rule="evenodd"
    d="M556.878 141.195H546.201L541.954 127.688H522.54L518.536 141.195H508.101L527.029 81.7325H537.424L556.878 141.195ZM538.799 117.67L532.126 95.6044L525.533 117.67H538.799Z"
    fill="currentColor"
  />
  <path
    fill-rule="evenodd"
    clip-rule="evenodd"
    d="M557.499 141.195V81.7325H573.273C579.151 81.7325 582.994 82.0164 584.8 82.5842C587.685 83.5036 590.058 85.4641 591.919 88.4656C593.806 91.4672 594.75 95.334 594.75 100.066C594.75 104.366 593.941 107.976 592.323 110.896C590.705 113.789 588.683 115.831 586.256 117.021C583.83 118.184 579.65 118.765 573.718 118.765H567.287V141.195H557.499ZM567.287 91.7917V108.665H572.707C576.347 108.665 578.814 108.408 580.109 107.895C581.43 107.381 582.508 106.461 583.344 105.136C584.18 103.784 584.598 102.135 584.598 100.188C584.598 98.2139 584.167 96.5509 583.304 95.1988C582.441 93.8468 581.376 92.9409 580.109 92.4812C578.841 92.0215 576.158 91.7917 572.06 91.7917H567.287Z"
    fill="currentColor"
  />
  <path
    fill-rule="evenodd"
    clip-rule="evenodd"
    d="M596.301 111.829C596.301 104.744 597.339 98.9169 599.416 94.347C601.519 89.7501 604.256 86.3294 607.626 84.085C610.997 81.8406 615.082 80.7184 619.881 80.7184C626.838 80.7184 632.5 83.382 636.868 88.709C641.263 94.0361 643.461 101.621 643.461 111.464C643.461 121.415 641.142 129.189 636.504 134.787C632.433 139.735 626.905 142.209 619.922 142.209C612.884 142.209 607.329 139.762 603.258 134.868C598.62 129.27 596.301 121.591 596.301 111.829ZM606.413 111.423C606.413 118.265 607.707 123.402 610.295 126.837C612.884 130.244 616.093 131.947 619.922 131.947C623.777 131.947 626.973 130.257 629.507 126.877C632.042 123.47 633.309 118.251 633.309 111.221C633.309 104.325 632.069 99.2279 629.588 95.9289C627.134 92.6299 623.912 90.9804 619.922 90.9804C615.931 90.9804 612.682 92.6435 610.174 95.9695C607.667 99.2955 606.413 104.447 606.413 111.423Z"
    fill="currentColor"
  />
  <path
    fill-rule="evenodd"
    clip-rule="evenodd"
    d="M686.145 94.8548C671.833 92.5033 660.265 87.7485 654.086 81.7325H646.63V141.195H656.418V116.372H658.44C660.705 116.372 662.35 116.602 663.375 117.061C664.399 117.494 665.37 118.305 666.287 119.495C667.203 120.658 668.943 123.578 671.504 128.256L678.623 141.195H690.311L684.406 129.595C682.033 124.944 680.159 121.726 678.784 119.941C677.409 118.13 675.67 116.466 673.567 114.952C677.665 114.222 680.82 112.437 683.031 109.598C685.269 106.759 686.388 103.014 686.388 98.3626C686.388 97.1345 686.307 95.9652 686.145 94.8548ZM656.418 106.88H663.698C668.147 106.88 670.978 106.691 672.192 106.313C673.405 105.907 674.389 105.109 675.144 103.92C675.899 102.73 676.277 101.148 676.277 99.1738C676.277 97.281 675.899 95.7667 675.144 94.631C674.389 93.4682 673.365 92.6705 672.07 92.2378C671.154 91.9404 668.498 91.7917 664.103 91.7917H656.418V106.88Z"
    fill="currentColor"
  />
  <path
    d="M736.57 119.333L746.074 123.024C744.591 129.676 742.124 134.543 738.673 137.626C735.222 140.682 730.975 142.209 725.933 142.209C719.596 142.209 714.459 139.762 710.523 134.868C705.993 129.216 703.728 121.591 703.728 111.991C703.728 106.062 704.507 100.887 706.065 96.4648C706.221 96.4653 706.377 96.4656 706.534 96.4656C710.102 96.4656 713.594 96.3249 716.981 96.0557C714.887 99.2227 713.839 104.278 713.839 111.221C713.839 118.711 714.945 124.038 717.156 127.202C719.367 130.366 722.239 131.947 725.771 131.947C728.359 131.947 730.597 130.947 732.485 128.946C734.372 126.918 735.734 123.713 736.57 119.333Z"
    fill="currentColor"
  />
  <path
    d="M732.703 93.743C736.512 92.8981 740.073 91.8745 743.327 90.6978C744.413 92.786 745.288 95.2599 745.953 98.1192L736.246 100.959C735.646 97.8441 734.465 95.4389 732.703 93.743Z"
    fill="currentColor"
  />
  <path
    fill-rule="evenodd"
    clip-rule="evenodd"
    d="M749.931 87.891V141.195H759.719V116.372H761.741C764.006 116.372 765.651 116.602 766.676 117.061C767.7 117.494 768.671 118.305 769.588 119.495C770.505 120.658 772.244 123.578 774.805 128.256L781.924 141.195H793.612L787.707 129.595C785.335 124.944 783.461 121.726 782.086 119.941C780.71 118.13 778.971 116.466 776.868 114.952C780.967 114.222 784.121 112.437 786.332 109.598C788.57 106.759 789.689 103.014 789.689 98.3626C789.689 94.6851 788.961 91.5348 787.505 88.9118C786.049 86.2618 784.189 84.4095 781.924 83.3549C779.659 82.2733 775.884 81.7325 770.599 81.7325H758.982C756.672 83.9815 753.609 86.0542 749.931 87.891ZM759.719 106.88H766.999C771.448 106.88 774.28 106.691 775.493 106.313C776.706 105.907 777.69 105.109 778.445 103.92C779.2 102.73 779.578 101.148 779.578 99.1738C779.578 97.281 779.2 95.7667 778.445 94.631C777.69 93.4682 776.666 92.6705 775.372 92.2378C774.455 91.9404 771.799 91.7917 767.404 91.7917H759.719V106.88Z"
    fill="currentColor"
  />
  <path
    d="M758.609 61.3207H758.695V22.5441L778.271 61.3207H788.14V1.85778H778.999V41.5674L759.1 1.85778H749.555V55.3317C753.204 57.1178 756.265 59.1329 758.609 61.3207Z"
    fill="currentColor"
  />
  <path
    d="M745.698 53.617V51.3021H739.038C741.391 52.0024 743.617 52.7766 745.698 53.617Z"
    fill="currentColor"
  />
  <path
    d="M718.518 47.4848V35.1181H742.948V25.0994H718.518V11.917H744.808V1.85778H708.731V46.9611C712.074 47.0155 715.345 47.1935 718.518 47.4848Z"
    fill="currentColor"
  />
  <path
    d="M703.118 46.9865C704.747 42.6185 705.561 37.486 705.561 31.5893C705.561 21.7464 703.364 14.1614 698.969 8.83434C694.601 3.50728 688.938 0.84375 681.982 0.84375C677.182 0.84375 673.097 1.96595 669.727 4.21034C666.356 6.45474 663.619 9.87541 661.516 14.4724C659.44 19.0423 658.402 24.8696 658.402 31.9543C658.402 41.4952 660.617 49.047 665.047 54.6099C668.425 53.082 672.251 51.7403 676.434 50.6243C674.953 49.7761 673.606 48.5553 672.396 46.962C669.807 43.5278 668.513 38.39 668.513 31.5487C668.513 24.5721 669.767 19.4209 672.275 16.0948C674.782 12.7688 678.031 11.1058 682.022 11.1058C686.013 11.1058 689.235 12.7553 691.688 16.0543C694.169 19.3532 695.409 24.4505 695.409 31.3459C695.409 38.3765 694.142 43.5954 691.608 47.0026C691.38 47.3066 691.146 47.597 690.908 47.8737C694.824 47.3959 698.91 47.0932 703.118 46.9865Z"
    fill="currentColor"
  />
  <path
    d="M794.274 81.7325H804.062V113.938C804.062 118.941 804.183 122.199 804.426 123.713C804.857 126.336 805.882 128.364 807.5 129.798C809.145 131.231 811.302 131.947 813.971 131.947C816.236 131.947 818.083 131.447 819.512 130.447C820.941 129.419 821.912 128.013 822.424 126.228C822.964 124.417 823.233 120.55 823.233 114.628V81.7325H833.061V112.965C833.061 120.942 832.63 126.715 831.767 130.284C830.931 133.827 829.017 136.707 826.024 138.924C823.058 141.114 819.135 142.209 814.254 142.209C809.185 142.209 805.221 141.304 802.363 139.492C799.532 137.653 797.469 135.084 796.175 131.785C794.908 128.459 794.274 122.348 794.274 113.451V81.7325Z"
    fill="currentColor"
  />
  <path
    d="M838.536 81.7325H848.324V141.195H838.536V81.7325Z"
    fill="currentColor"
  />
  <path
    d="M850.725 121.848L860.31 120.712C861.389 128.31 864.921 132.11 870.907 132.11C873.873 132.11 876.206 131.339 877.904 129.798C879.603 128.229 880.452 126.296 880.452 123.997C880.452 122.645 880.156 121.496 879.563 120.55C878.969 119.603 878.066 118.833 876.853 118.238C875.639 117.616 872.7 116.588 868.036 115.155C863.856 113.884 860.796 112.505 858.854 111.018C856.913 109.531 855.363 107.584 854.203 105.177C853.071 102.743 852.505 100.134 852.505 97.3486C852.505 94.1037 853.233 91.1833 854.689 88.5873C856.172 85.9914 858.207 84.0309 860.796 82.7059C863.384 81.3809 866.58 80.7184 870.381 80.7184C876.098 80.7184 880.56 82.2733 883.769 85.383C886.978 88.4927 888.676 92.9409 888.865 98.7277L879.037 99.255C878.605 96.0641 877.675 93.8333 876.246 92.5623C874.817 91.2914 872.781 90.656 870.139 90.656C867.496 90.656 865.461 91.2103 864.031 92.319C862.602 93.4277 861.888 94.8067 861.888 96.4562C861.888 98.0787 862.535 99.4442 863.829 100.553C865.124 101.662 868.103 102.878 872.768 104.203C877.702 105.637 881.261 107.151 883.445 108.746C885.656 110.315 887.342 112.356 888.501 114.871C889.66 117.359 890.24 120.387 890.24 123.957C890.24 129.122 888.649 133.462 885.468 136.977C882.313 140.492 877.365 142.25 870.624 142.25C858.706 142.25 852.073 135.449 850.725 121.848Z"
    fill="currentColor"
  />
  <path
    d="M893.976 81.7325H930.053V91.7917H903.764V104.974H928.193V114.993H903.764V131.177H930.943V141.195H893.976V81.7325Z"
    fill="currentColor"
  />
  <path
    d="M25.2629 269.064V279.082H36.5068V286.627C34.889 288.195 33.0419 289.439 30.9657 290.358C28.9165 291.251 26.9347 291.697 25.0202 291.697C20.9218 291.697 17.6726 290.088 15.2729 286.87C12.4686 283.138 11.0665 277.69 11.0665 270.524C11.0665 263.845 12.3608 258.883 14.9493 255.638C17.5378 252.366 20.9218 250.73 25.1011 250.73C27.7975 250.73 30.1164 251.541 32.0578 253.163C33.9992 254.786 35.3339 257.125 36.0619 260.181L45.7688 257.95C44.7711 252.217 42.5197 247.877 39.0144 244.93C35.5361 241.955 30.8983 240.468 25.1011 240.468C20.2746 240.468 16.1222 241.617 12.6439 243.915C9.19255 246.214 6.37484 249.689 4.19078 254.34C2.03369 258.991 0.955137 264.588 0.955137 271.132C0.955137 277.514 2.0202 283.071 4.15034 287.803C6.30743 292.508 9.21951 296.05 12.8866 298.43C16.5536 300.783 20.7869 301.959 25.5865 301.959C29.5232 301.959 33.4464 301.053 37.3561 299.241C41.2659 297.429 44.2858 295.266 46.4159 292.751V269.064H25.2629Z"
    fill="currentColor"
  />
  <path
    fill-rule="evenodd"
    clip-rule="evenodd"
    d="M52.1333 254.096C50.0571 258.666 49.019 264.494 49.019 271.578C49.019 281.34 51.3379 289.02 55.9756 294.617C60.0472 299.512 65.6017 301.959 72.6392 301.959C79.6228 301.959 85.1504 299.485 89.2219 294.536C93.8596 288.939 96.1785 281.164 96.1785 271.213C96.1785 261.37 93.981 253.785 89.5859 248.458C85.2178 243.131 79.5554 240.468 72.5988 240.468C67.7992 240.468 63.7142 241.59 60.3438 243.834C56.9733 246.079 54.2365 249.499 52.1333 254.096ZM63.0132 286.586C60.4247 283.152 59.1304 278.014 59.1304 271.173C59.1304 264.196 60.3842 259.045 62.8918 255.719C65.3995 252.393 68.6486 250.73 72.6392 250.73C76.6298 250.73 79.852 252.379 82.3057 255.678C84.7864 258.977 86.0267 264.074 86.0267 270.97C86.0267 278.001 84.7594 283.219 82.2248 286.627C79.6902 290.007 76.495 291.697 72.6392 291.697C68.8104 291.697 65.6017 289.993 63.0132 286.586Z"
    fill="currentColor"
  />
  <path
    fill-rule="evenodd"
    clip-rule="evenodd"
    d="M100.48 254.096C98.4041 258.666 97.366 264.494 97.366 271.578C97.366 281.34 99.6849 289.02 104.323 294.617C108.394 299.512 113.949 301.959 120.986 301.959C127.97 301.959 133.497 299.485 137.569 294.536C142.207 288.939 144.526 281.164 144.526 271.213C144.526 261.37 142.328 253.785 137.933 248.458C133.565 243.131 127.902 240.468 120.946 240.468C116.146 240.468 112.061 241.59 108.691 243.834C105.32 246.079 102.583 249.499 100.48 254.096ZM111.36 286.586C108.772 283.152 107.477 278.014 107.477 271.173C107.477 264.196 108.731 259.045 111.239 255.719C113.746 252.393 116.996 250.73 120.986 250.73C124.977 250.73 128.199 252.379 130.653 255.678C133.133 258.977 134.374 264.074 134.374 270.97C134.374 278.001 133.106 283.219 130.572 286.627C128.037 290.007 124.842 291.697 120.986 291.697C117.157 291.697 113.949 289.993 111.36 286.586Z"
    fill="currentColor"
  />
  <path
    fill-rule="evenodd"
    clip-rule="evenodd"
    d="M165.531 241.482H147.614V300.945H166.057C170.021 300.945 173.256 300.39 175.764 299.282C178.299 298.146 180.456 296.469 182.235 294.252C184.015 292.035 185.484 289.033 186.644 285.247C187.803 281.435 188.383 276.959 188.383 271.822C188.383 266.116 187.83 261.343 186.725 257.504C185.619 253.664 184.096 250.541 182.154 248.134C180.213 245.727 178.083 244.024 175.764 243.023C173.472 241.996 170.061 241.482 165.531 241.482ZM157.402 290.926V251.541H161.851C165.787 251.541 168.443 251.717 169.819 252.068C171.652 252.528 173.202 253.488 174.47 254.948C175.764 256.408 176.708 258.409 177.301 260.951C177.921 263.493 178.231 266.968 178.231 271.376C178.231 275.621 177.935 279.042 177.341 281.638C176.748 284.233 175.993 286.14 175.076 287.357C174.187 288.547 173.027 289.439 171.598 290.034C170.196 290.629 167.918 290.926 164.763 290.926H157.402Z"
    fill="currentColor"
  />
  <path
    fill-rule="evenodd"
    clip-rule="evenodd"
    d="M224.368 241.482H206.451V300.945H224.894C228.858 300.945 232.093 300.39 234.601 299.282C237.136 298.146 239.293 296.469 241.072 294.252C242.852 292.035 244.321 289.033 245.481 285.247C246.64 281.435 247.22 276.959 247.22 271.822C247.22 266.116 246.667 261.343 245.562 257.504C244.456 253.664 242.933 250.541 240.991 248.134C239.05 245.727 236.92 244.024 234.601 243.023C232.309 241.996 228.898 241.482 224.368 241.482ZM216.239 290.926V251.541H220.688C224.624 251.541 227.28 251.717 228.655 252.068C230.489 252.528 232.039 253.488 233.307 254.948C234.601 256.408 235.545 258.409 236.138 260.951C236.758 263.493 237.068 266.968 237.068 271.376C237.068 275.621 236.772 279.042 236.178 281.638C235.585 284.233 234.83 286.14 233.913 287.357C233.024 288.547 231.864 289.439 230.435 290.034C229.033 290.629 226.755 290.926 223.6 290.926H216.239Z"
    fill="currentColor"
  />
  <path
    fill-rule="evenodd"
    clip-rule="evenodd"
    d="M252.128 254.096C250.052 258.666 249.014 264.494 249.014 271.578C249.014 281.34 251.333 289.02 255.971 294.617C260.042 299.512 265.597 301.959 272.634 301.959C279.618 301.959 285.146 299.485 289.217 294.536C293.855 288.939 296.174 281.164 296.174 271.213C296.174 261.37 293.976 253.785 289.581 248.458C285.213 243.131 279.551 240.468 272.594 240.468C267.794 240.468 263.709 241.59 260.339 243.834C256.968 246.079 254.232 249.499 252.128 254.096ZM263.008 286.586C260.42 283.152 259.126 278.014 259.126 271.173C259.126 264.196 260.379 259.045 262.887 255.719C265.395 252.393 268.644 250.73 272.634 250.73C276.625 250.73 279.847 252.379 282.301 255.678C284.782 258.977 286.022 264.074 286.022 270.97C286.022 278.001 284.755 283.219 282.22 286.627C279.685 290.007 276.49 291.697 272.634 291.697C268.806 291.697 265.597 289.993 263.008 286.586Z"
    fill="currentColor"
  />
  <path
    d="M321.952 269.064V279.082H333.196V286.627C331.578 288.195 329.731 289.439 327.655 290.358C325.606 291.251 323.624 291.697 321.709 291.697C317.611 291.697 314.362 290.088 311.962 286.87C309.158 283.138 307.756 277.69 307.756 270.524C307.756 263.845 309.05 258.883 311.638 255.638C314.227 252.366 317.611 250.73 321.79 250.73C324.487 250.73 326.806 251.541 328.747 253.163C330.688 254.786 332.023 257.125 332.751 260.181L342.458 257.95C341.46 252.217 339.209 247.877 335.704 244.93C332.225 241.955 327.587 240.468 321.79 240.468C316.964 240.468 312.811 241.617 309.333 243.915C305.882 246.214 303.064 249.689 300.88 254.34C298.723 258.991 297.644 264.588 297.644 271.132C297.644 277.514 298.709 283.071 300.839 287.803C302.997 292.508 305.909 296.05 309.576 298.43C313.243 300.783 317.476 301.959 322.276 301.959C326.212 301.959 330.136 301.053 334.045 299.241C337.955 297.429 340.975 295.266 343.105 292.751V269.064H321.952Z"
    fill="currentColor"
  />
  <path
    d="M370.299 269.064V279.082H381.543V286.627C379.925 288.195 378.078 289.439 376.002 290.358C373.953 291.251 371.971 291.697 370.056 291.697C365.958 291.697 362.709 290.088 360.309 286.87C357.505 283.138 356.103 277.69 356.103 270.524C356.103 263.845 357.397 258.883 359.985 255.638C362.574 252.366 365.958 250.73 370.137 250.73C372.834 250.73 375.153 251.541 377.094 253.163C379.035 254.786 380.37 257.125 381.098 260.181L390.805 257.95C389.807 252.217 387.556 247.877 384.051 244.93C380.572 241.955 375.934 240.468 370.137 240.468C365.311 240.468 361.158 241.617 357.68 243.915C354.229 246.214 351.411 249.689 349.227 254.34C347.07 258.991 345.991 264.588 345.991 271.132C345.991 277.514 347.056 283.071 349.186 287.803C351.344 292.508 354.256 296.05 357.923 298.43C361.59 300.783 365.823 301.959 370.623 301.959C374.559 301.959 378.483 301.053 382.392 299.241C386.302 297.429 389.322 295.266 391.452 292.751V269.064H370.299Z"
    fill="currentColor"
  />
  <path
    fill-rule="evenodd"
    clip-rule="evenodd"
    d="M397.169 254.096C395.093 258.666 394.055 264.494 394.055 271.578C394.055 281.34 396.374 289.02 401.012 294.617C405.083 299.512 410.638 301.959 417.675 301.959C424.659 301.959 430.187 299.485 434.258 294.536C438.896 288.939 441.215 281.164 441.215 271.213C441.215 261.37 439.017 253.785 434.622 248.458C430.254 243.131 424.592 240.468 417.635 240.468C412.835 240.468 408.75 241.59 405.38 243.834C402.009 246.079 399.273 249.499 397.169 254.096ZM408.049 286.586C405.461 283.152 404.167 278.014 404.167 271.173C404.167 264.196 405.42 259.045 407.928 255.719C410.436 252.393 413.685 250.73 417.675 250.73C421.666 250.73 424.888 252.379 427.342 255.678C429.823 258.977 431.063 264.074 431.063 270.97C431.063 278.001 429.796 283.219 427.261 286.627C424.726 290.007 421.531 291.697 417.675 291.697C413.846 291.697 410.638 289.993 408.049 286.586Z"
    fill="currentColor"
  />
  <path
    d="M458.999 241.969V300.945H493.216V290.926H468.787V241.969H458.999Z"
    fill="currentColor"
  />
  <path
    d="M505.162 241.482H495.374V300.945H505.162V241.482Z"
    fill="currentColor"
  />
  <path
    d="M550.678 282.773L541.173 279.082C540.338 283.463 538.976 286.667 537.088 288.695C535.201 290.696 532.963 291.697 530.374 291.697C526.842 291.697 523.971 290.115 521.76 286.951C519.549 283.787 518.443 278.46 518.443 270.97C518.443 263.75 519.576 258.572 521.84 255.435C524.105 252.298 527.031 250.73 530.617 250.73C533.125 250.73 535.295 251.595 537.129 253.326C538.989 255.029 540.23 257.49 540.85 260.708L550.557 257.869C549.343 252.65 547.429 248.715 544.814 246.065C541.146 242.334 536.59 240.468 531.143 240.468C524.456 240.468 519.131 242.956 515.167 247.931C510.61 253.664 508.332 261.6 508.332 271.741C508.332 281.34 510.597 288.966 515.126 294.617C519.063 299.512 524.2 301.959 530.536 301.959C535.578 301.959 539.825 300.431 543.277 297.375C546.728 294.293 549.195 289.425 550.678 282.773Z"
    fill="currentColor"
  />
  <path
    d="M564.404 241.482H554.616V300.945H564.404V282.976L572.371 273.039L585.759 300.945H598.459L579.166 264.642L597.488 241.482H584.262L564.404 267.887V241.482Z"
    fill="currentColor"
  />
  <path
    d="M606.077 280.461L596.492 281.597C597.84 295.199 604.473 301.999 616.391 301.999C623.132 301.999 628.08 300.242 631.234 296.726C634.416 293.211 636.007 288.871 636.007 283.706C636.007 280.137 635.427 277.108 634.268 274.62C633.108 272.106 631.423 270.064 629.212 268.496C627.028 266.9 623.469 265.386 618.534 263.953C613.87 262.628 610.89 261.411 609.596 260.302C608.302 259.194 607.655 257.828 607.655 256.206C607.655 254.556 608.369 253.177 609.798 252.068C611.227 250.96 613.263 250.405 615.905 250.405C618.548 250.405 620.584 251.041 622.013 252.312C623.442 253.583 624.372 255.813 624.804 259.004L634.632 258.477C634.443 252.69 632.744 248.242 629.536 245.132C626.327 242.023 621.864 240.468 616.148 240.468C612.346 240.468 609.151 241.13 606.563 242.455C603.974 243.78 601.938 245.741 600.455 248.337C598.999 250.933 598.271 253.853 598.271 257.098C598.271 259.883 598.837 262.493 599.97 264.926C601.129 267.333 602.68 269.28 604.621 270.767C606.563 272.254 609.623 273.633 613.802 274.904C618.467 276.338 621.406 277.365 622.619 277.987C623.833 278.582 624.736 279.353 625.329 280.299C625.922 281.245 626.219 282.395 626.219 283.747C626.219 286.045 625.37 287.979 623.671 289.547C621.972 291.088 619.64 291.859 616.674 291.859C610.688 291.859 607.156 288.06 606.077 280.461Z"
    fill="currentColor"
  />
  <path
    d="M1022.31 241.482H1007.63V300.945H1016.77V254.137L1026.36 300.945H1035.82L1045.49 254.137V300.945H1054.59V241.482H1039.87L1031.13 282.043L1022.31 241.482Z"
    fill="currentColor"
  />
  <path
    d="M1095.94 241.482H1059.86V300.945H1096.83V290.926H1069.65V274.742H1094.08V264.723H1069.65V251.541H1095.94V241.482Z"
    fill="currentColor"
  />
  <path
    d="M1123.21 269.064V279.082H1134.46V286.627C1132.84 288.195 1130.99 289.439 1128.92 290.358C1126.87 291.251 1124.89 291.697 1122.97 291.697C1118.87 291.697 1115.62 290.088 1113.22 286.87C1110.42 283.138 1109.02 277.69 1109.02 270.524C1109.02 263.845 1110.31 258.883 1112.9 255.638C1115.49 252.366 1118.87 250.73 1123.05 250.73C1125.75 250.73 1128.07 251.541 1130.01 253.163C1131.95 254.786 1133.29 257.125 1134.01 260.181L1143.72 257.95C1142.72 252.217 1140.47 247.877 1136.97 244.93C1133.49 241.955 1128.85 240.468 1123.05 240.468C1118.23 240.468 1114.07 241.617 1110.6 243.915C1107.14 246.214 1104.33 249.689 1102.14 254.34C1099.99 258.991 1098.91 264.588 1098.91 271.132C1098.91 277.514 1099.97 283.071 1102.1 287.803C1104.26 292.508 1107.17 296.05 1110.84 298.43C1114.51 300.783 1118.74 301.959 1123.54 301.959C1127.47 301.959 1131.4 301.053 1135.31 299.241C1139.22 297.429 1142.24 295.266 1144.37 292.751V269.064H1123.21Z"
    fill="currentColor"
  />
  <path
    fill-rule="evenodd"
    clip-rule="evenodd"
    d="M1182.08 300.945H1192.76L1173.3 241.482H1162.91L1143.98 300.945H1154.41L1158.42 287.438H1177.83L1182.08 300.945ZM1168 255.354L1174.68 277.419H1161.41L1168 255.354Z"
    fill="currentColor"
  />
  <path
    d="M1238.65 241.482H1205.32V300.945H1215.11V275.675H1235.45V265.616H1215.11V251.541H1238.65V241.482Z"
    fill="currentColor"
  />
  <path
    fill-rule="evenodd"
    clip-rule="evenodd"
    d="M1242.47 241.969V300.945H1284.62L1288.63 287.438H1308.04L1312.29 300.945H1322.97L1303.51 241.482H1293.12L1276.68 293.113V290.926H1252.25V241.969H1242.47ZM1298.21 255.354L1304.89 277.419H1291.62L1298.21 255.354Z"
    fill="currentColor"
  />
  <path
    fill-rule="evenodd"
    clip-rule="evenodd"
    d="M1344.3 241.482H1323.63V300.945H1333.42V276.121H1335.44C1337.7 276.121 1339.35 276.351 1340.37 276.811C1341.4 277.243 1342.37 278.055 1343.29 279.244C1344.2 280.407 1345.94 283.328 1348.5 288.006L1355.62 300.945H1367.31L1361.4 289.344C1359.03 284.693 1357.16 281.475 1355.78 279.691C1354.41 277.879 1352.67 276.216 1350.57 274.702C1354.66 273.971 1357.82 272.187 1360.03 269.347C1362.27 266.508 1363.39 262.763 1363.39 258.112C1363.39 254.434 1362.66 251.284 1361.2 248.661C1359.75 246.011 1357.89 244.159 1355.62 243.104C1353.36 242.023 1349.58 241.482 1344.3 241.482ZM1340.7 266.63H1333.42V251.541H1341.1C1345.5 251.541 1348.15 251.69 1349.07 251.987C1350.36 252.42 1351.39 253.218 1352.14 254.38C1352.9 255.516 1353.28 257.03 1353.28 258.923C1353.28 260.897 1352.9 262.479 1352.14 263.669C1351.39 264.859 1350.4 265.656 1349.19 266.062C1347.98 266.441 1345.15 266.63 1340.7 266.63Z"
    fill="currentColor"
  />
  <path
    d="M1404.17 241.482H1368.09V300.945H1405.06V290.926H1377.88V274.742H1402.31V264.723H1377.88V251.541H1404.17V241.482Z"
    fill="currentColor"
  />
  <path
    d="M1166.33 119.333L1175.84 123.024C1175.34 125.251 1174.73 127.278 1174.02 129.105C1170.36 128.725 1166.58 128.495 1162.69 128.433C1164.35 126.394 1165.56 123.361 1166.33 119.333Z"
    fill="currentColor"
  />
  <path
    d="M1148.38 128.971C1147.87 128.45 1147.38 127.86 1146.92 127.202C1144.71 124.038 1143.6 118.711 1143.6 111.221C1143.6 104.001 1144.73 98.8223 1147 95.6856C1149.26 92.5488 1152.19 90.9804 1155.78 90.9804C1158.28 90.9804 1160.45 91.8458 1162.29 93.5764C1164.15 95.2799 1165.39 97.7407 1166.01 100.959L1175.71 98.1192C1174.5 92.9004 1172.59 88.9659 1169.97 86.3159C1166.3 82.5842 1161.75 80.7184 1156.3 80.7184C1149.61 80.7184 1144.29 83.2062 1140.32 88.1817C1135.77 93.9144 1133.49 101.851 1133.49 111.991C1133.49 119.309 1134.81 125.479 1137.44 130.503C1140.92 129.841 1144.58 129.325 1148.38 128.971Z"
    fill="currentColor"
  />
  <path
    d="M1106.58 161.607H1100.13V194.502C1100.13 200.424 1099.86 204.291 1099.32 206.103C1098.8 207.888 1097.83 209.294 1096.4 210.321C1094.98 211.322 1093.13 211.822 1090.86 211.822C1088.19 211.822 1086.04 211.106 1084.39 209.672C1082.77 208.239 1081.75 206.211 1081.32 203.588C1081.08 202.074 1080.95 198.815 1080.95 193.813V161.607H1071.17V193.326C1071.17 202.223 1071.8 208.334 1073.07 211.66C1074.36 214.959 1076.42 217.528 1079.26 219.367C1082.11 221.178 1086.08 222.084 1091.15 222.084C1096.03 222.084 1099.95 220.989 1102.92 218.799C1105.91 216.581 1107.82 213.701 1108.66 210.159C1109.52 206.59 1109.95 200.816 1109.95 192.839V164.866C1108.66 163.822 1107.53 162.734 1106.58 161.607Z"
    fill="currentColor"
  />
  <path
    d="M1112.23 166.539V171.666H1122.38C1118.48 170.167 1115.06 168.442 1112.23 166.539Z"
    fill="currentColor"
  />
  <path
    d="M1126.67 173.167V221.07H1136.46V175.66C1133 174.967 1129.72 174.13 1126.67 173.167Z"
    fill="currentColor"
  />
  <path
    d="M1151.97 177.664C1152.03 180.284 1152.59 182.747 1153.66 185.052C1154.82 187.458 1156.37 189.405 1158.32 190.892C1160.26 192.38 1163.32 193.759 1167.5 195.03C1172.16 196.463 1175.1 197.49 1176.31 198.112C1177.53 198.707 1178.43 199.478 1179.02 200.424C1179.62 201.371 1179.91 202.52 1179.91 203.872C1179.91 206.171 1179.06 208.104 1177.37 209.672C1175.67 211.214 1173.33 211.984 1170.37 211.984C1164.38 211.984 1160.85 208.185 1159.77 200.587L1150.19 201.722C1151.53 215.324 1158.17 222.125 1170.08 222.125C1176.83 222.125 1181.77 220.367 1184.93 216.852C1188.11 213.336 1189.7 208.996 1189.7 203.831C1189.7 200.262 1189.12 197.234 1187.96 194.746C1186.8 192.231 1185.12 190.189 1182.91 188.621C1180.72 187.026 1177.16 185.511 1172.23 184.078C1167.56 182.753 1164.58 181.536 1163.29 180.428C1162.45 179.705 1161.88 178.874 1161.58 177.934C1161.23 177.936 1160.88 177.938 1160.52 177.938C1157.61 177.938 1154.76 177.844 1151.97 177.664Z"
    fill="currentColor"
  />
  <path
    d="M1178.04 176.761C1181.51 176.281 1184.83 175.663 1187.97 174.921C1188.17 176.081 1188.28 177.308 1188.33 178.602L1178.5 179.13C1178.38 178.27 1178.23 177.481 1178.04 176.761Z"
    fill="currentColor"
  />
  <path
    fill-rule="evenodd"
    clip-rule="evenodd"
    d="M1188.04 131.448L1189.16 127.688H1208.57L1212.82 141.195H1223.5L1204.04 81.7325H1193.65L1178.4 129.642C1181.76 130.118 1184.99 130.725 1188.04 131.448ZM1205.42 117.67L1198.74 95.6044L1192.15 117.67H1205.42Z"
    fill="currentColor"
  />
  <path
    d="M1230.06 141.195V91.7917H1215.62V81.7325H1254.25V91.7917H1239.85V141.195H1230.06Z"
    fill="currentColor"
  />
  <path
    d="M1265.68 81.7325H1275.75L1283.03 122.578L1291.93 81.7325H1303.62L1312.16 123.267L1319.64 81.7325H1329.51L1317.7 141.195H1307.26L1297.55 96.7402L1287.93 141.195H1277.29L1265.68 81.7325Z"
    fill="currentColor"
  />
  <path
    fill-rule="evenodd"
    clip-rule="evenodd"
    d="M1370.13 141.195H1359.45L1355.2 127.688H1335.79L1331.79 141.195H1321.35L1340.28 81.7325H1350.67L1370.13 141.195ZM1352.05 117.67L1345.38 95.6044L1338.78 117.67H1352.05Z"
    fill="currentColor"
  />
  <path
    fill-rule="evenodd"
    clip-rule="evenodd"
    d="M1370.75 141.195V81.7325H1386.52C1392.4 81.7325 1396.24 82.0164 1398.05 82.5842C1400.94 83.5036 1403.31 85.4641 1405.17 88.4656C1407.06 91.4672 1408 95.334 1408 100.066C1408 104.366 1407.19 107.976 1405.57 110.896C1403.96 113.789 1401.93 115.831 1399.51 117.021C1397.08 118.184 1392.9 118.765 1386.97 118.765H1380.54V141.195H1370.75ZM1380.54 91.7917V108.665H1385.96C1389.6 108.665 1392.06 108.408 1393.36 107.895C1394.68 107.381 1395.76 106.461 1396.59 105.136C1397.43 103.784 1397.85 102.135 1397.85 100.188C1397.85 98.2139 1397.42 96.5509 1396.55 95.1988C1395.69 93.8468 1394.63 92.9409 1393.36 92.4812C1392.09 92.0215 1389.41 91.7917 1385.31 91.7917H1380.54Z"
    fill="currentColor"
  />
  <path
    fill-rule="evenodd"
    clip-rule="evenodd"
    d="M565.591 31.9543C565.591 24.8696 566.629 19.0423 568.705 14.4724C570.808 9.87541 573.545 6.45474 576.915 4.21034C580.286 1.96595 584.371 0.84375 589.17 0.84375C596.127 0.84375 601.789 3.50728 606.157 8.83434C610.553 14.1614 612.75 21.7464 612.75 31.5893C612.75 41.5403 610.431 49.3146 605.793 54.912C601.722 59.8605 596.194 62.3348 589.211 62.3348C582.173 62.3348 576.619 59.8876 572.547 54.9932C567.909 49.3957 565.591 41.7161 565.591 31.9543ZM575.702 31.5487C575.702 38.39 576.996 43.5278 579.585 46.962C582.173 50.3692 585.382 52.0727 589.211 52.0727C593.067 52.0727 596.262 50.3827 598.796 47.0026C601.331 43.5954 602.598 38.3765 602.598 31.3459C602.598 24.4505 601.358 19.3532 598.877 16.0543C596.424 12.7553 593.201 11.1058 589.211 11.1058C585.22 11.1058 581.971 12.7688 579.463 16.0948C576.956 19.4209 575.702 24.5721 575.702 31.5487Z"
    fill="currentColor"
  />
  <path
    d="M647.022 39.4582L656.527 43.1492C655.044 49.8013 652.577 54.6687 649.125 57.7513C645.674 60.807 641.427 62.3348 636.385 62.3348C630.048 62.3348 624.912 59.8876 620.975 54.9932C616.445 49.3416 614.18 41.7161 614.18 32.1166C614.18 21.9762 616.459 14.0397 621.016 8.30704C624.979 3.33151 630.305 0.84375 636.992 0.84375C642.438 0.84375 646.995 2.70957 650.662 6.44122C653.278 9.09123 655.192 13.0257 656.405 18.2446L646.698 21.0839C646.078 17.866 644.838 15.4053 642.977 13.7017C641.144 11.9711 638.973 11.1058 636.466 11.1058C632.88 11.1058 629.954 12.6741 627.689 15.8109C625.424 18.9476 624.292 24.126 624.292 31.3459C624.292 38.8362 625.397 44.1633 627.608 47.3271C629.819 50.4908 632.691 52.0727 636.223 52.0727C638.812 52.0727 641.05 51.0722 642.937 49.0712C644.824 47.0431 646.186 43.8388 647.022 39.4582Z"
    fill="currentColor"
  />
  <path
    fill-rule="evenodd"
    clip-rule="evenodd"
    d="M793.615 61.3207V1.85778H803.402V61.1123L822.264 1.85778H832.659L852.113 61.3207H841.436L837.189 47.8138H817.775L813.771 61.3207H793.615ZM834.034 37.7951L827.361 15.7298L820.768 37.7951H834.034Z"
    fill="currentColor"
  />
  <path
    fill-rule="evenodd"
    clip-rule="evenodd"
    d="M1004.61 1.85778V61.3207H1014.4V36.4972H1016.42C1018.68 36.4972 1020.33 36.727 1021.35 37.1867C1022.38 37.6194 1023.35 38.4306 1024.26 39.6204C1025.18 40.7832 1026.92 43.7036 1029.48 48.3817L1036.6 61.3207H1048.29L1042.38 49.7202C1040.01 45.0691 1038.14 41.8513 1036.76 40.0666C1035.39 38.2548 1033.65 36.5918 1031.55 35.0775C1035.64 34.3474 1038.8 32.5627 1041.01 29.7234C1043.25 26.8841 1044.37 23.139 1044.37 18.4879C1044.37 14.8104 1043.64 11.6601 1042.18 9.03714C1040.73 6.38714 1038.87 4.53483 1036.6 3.48024C1034.34 2.3986 1030.56 1.85778 1025.28 1.85778H1004.61ZM1021.68 27.0058H1014.4V11.917H1022.08C1026.48 11.917 1029.13 12.0657 1030.05 12.3632C1031.34 12.7958 1032.37 13.5935 1033.12 14.7563C1033.88 15.892 1034.26 17.4063 1034.26 19.2992C1034.26 21.2732 1033.88 22.855 1033.12 24.0448C1032.37 25.2346 1031.38 26.0324 1030.17 26.438C1028.96 26.8165 1026.13 27.0058 1021.68 27.0058Z"
    fill="currentColor"
  />
  <path
    fill-rule="evenodd"
    clip-rule="evenodd"
    d="M1050.21 14.4724C1048.13 19.0423 1047.09 24.8696 1047.09 31.9543C1047.09 41.7161 1049.41 49.3957 1054.05 54.9932C1058.12 59.8876 1063.67 62.3348 1070.71 62.3348C1077.69 62.3348 1083.22 59.8605 1087.29 54.912C1091.93 49.3146 1094.25 41.5403 1094.25 31.5893C1094.25 21.7464 1092.05 14.1614 1087.66 8.83434C1083.29 3.50728 1077.63 0.84375 1070.67 0.84375C1065.87 0.84375 1061.79 1.96595 1058.42 4.21034C1055.05 6.45474 1052.31 9.87541 1050.21 14.4724ZM1061.08 46.962C1058.5 43.5278 1057.2 38.39 1057.2 31.5487C1057.2 24.5721 1058.46 19.4209 1060.96 16.0948C1063.47 12.7688 1066.72 11.1058 1070.71 11.1058C1074.7 11.1058 1077.92 12.7553 1080.38 16.0543C1082.86 19.3532 1084.1 24.4505 1084.1 31.3459C1084.1 38.3765 1082.83 43.5954 1080.3 47.0026C1077.76 50.3827 1074.57 52.0727 1070.71 52.0727C1066.88 52.0727 1063.67 50.3692 1061.08 46.962Z"
    fill="currentColor"
  />
  <path
    d="M1107.05 1.85778H1097.5V61.3207H1106.64V22.5441L1126.22 61.3207H1136.09V1.85778H1126.94V41.5674L1107.05 1.85778Z"
    fill="currentColor"
  />
  <path
    d="M1148.96 40.8372L1139.38 41.973C1140.72 55.5745 1147.36 62.3753 1159.28 62.3753C1166.02 62.3753 1170.96 60.6177 1174.12 57.1024C1177.3 53.587 1178.89 49.247 1178.89 44.0822C1178.89 40.5128 1178.31 37.4842 1177.15 34.9964C1175.99 32.4816 1174.31 30.44 1172.1 28.8716C1169.91 27.2762 1166.35 25.7619 1161.42 24.3288C1156.75 23.0038 1153.77 21.7869 1152.48 20.6783C1151.19 19.5696 1150.54 18.204 1150.54 16.5816C1150.54 14.9321 1151.25 13.553 1152.68 12.4443C1154.11 11.3356 1156.15 10.7813 1158.79 10.7813C1161.43 10.7813 1163.47 11.4167 1164.9 12.6877C1166.33 13.9586 1167.26 16.1895 1167.69 19.3803L1177.52 18.853C1177.33 13.0662 1175.63 8.61801 1172.42 5.50831C1169.21 2.3986 1164.75 0.84375 1159.03 0.84375C1155.23 0.84375 1152.04 1.50625 1149.45 2.83126C1146.86 4.15626 1144.82 6.11673 1143.34 8.71265C1141.88 11.3086 1141.16 14.229 1141.16 17.4739C1141.16 20.2591 1141.72 22.8686 1142.85 25.3022C1144.01 27.7089 1145.56 29.6558 1147.51 31.1431C1149.45 32.6303 1152.51 34.0094 1156.69 35.2803C1161.35 36.7135 1164.29 37.7411 1165.5 38.363C1166.72 38.9579 1167.62 39.7286 1168.21 40.675C1168.81 41.6214 1169.1 42.7707 1169.1 44.1227C1169.1 46.4212 1168.25 48.3546 1166.56 49.923C1164.86 51.4643 1162.52 52.235 1159.56 52.235C1153.57 52.235 1150.04 48.4357 1148.96 40.8372Z"
    fill="currentColor"
  />
  <path
    fill-rule="evenodd"
    clip-rule="evenodd"
    d="M1182.63 1.85778V61.3207H1192.41V36.4972H1194.44C1196.7 36.4972 1198.35 36.727 1199.37 37.1867C1200.4 37.6194 1201.37 38.4306 1202.28 39.6204C1203.2 40.7832 1204.94 43.7036 1207.5 48.3817L1214.62 61.3207H1226.31L1220.4 49.7202C1218.03 45.0691 1216.16 41.8513 1214.78 40.0666C1213.41 38.2548 1211.67 36.5918 1209.56 35.0775C1213.66 34.3474 1216.82 32.5627 1219.03 29.7234C1221.27 26.8841 1222.39 23.139 1222.39 18.4879C1222.39 14.8104 1221.66 11.6601 1220.2 9.03714C1218.74 6.38714 1216.88 4.53483 1214.62 3.48024C1212.35 2.3986 1208.58 1.85778 1203.29 1.85778H1182.63ZM1199.7 27.0058H1192.41V11.917H1200.1C1204.49 11.917 1207.15 12.0657 1208.07 12.3632C1209.36 12.7958 1210.39 13.5935 1211.14 14.7563C1211.9 15.892 1212.27 17.4063 1212.27 19.2992C1212.27 21.2732 1211.9 22.855 1211.14 24.0448C1210.39 25.2346 1209.4 26.0324 1208.19 26.438C1206.98 26.8165 1204.14 27.0058 1199.7 27.0058Z"
    fill="currentColor"
  />
  <path
    fill-rule="evenodd"
    clip-rule="evenodd"
    d="M1228.22 14.4724C1226.15 19.0423 1225.11 24.8696 1225.11 31.9543C1225.11 41.7161 1227.43 49.3957 1232.07 54.9932C1236.14 59.8876 1241.69 62.3348 1248.73 62.3348C1255.71 62.3348 1261.24 59.8605 1265.31 54.912C1269.95 49.3146 1272.27 41.5403 1272.27 31.5893C1272.27 21.7464 1270.07 14.1614 1265.68 8.83434C1261.31 3.50728 1255.65 0.84375 1248.69 0.84375C1243.89 0.84375 1239.8 1.96595 1236.43 4.21034C1233.06 6.45474 1230.33 9.87541 1228.22 14.4724ZM1239.1 46.962C1236.52 43.5278 1235.22 38.39 1235.22 31.5487C1235.22 24.5721 1236.47 19.4209 1238.98 16.0948C1241.49 12.7688 1244.74 11.1058 1248.73 11.1058C1252.72 11.1058 1255.94 12.7553 1258.4 16.0543C1260.88 19.3532 1262.12 24.4505 1262.12 31.3459C1262.12 38.3765 1260.85 43.5954 1258.32 47.0026C1255.78 50.3827 1252.59 52.0727 1248.73 52.0727C1244.9 52.0727 1241.69 50.3692 1239.1 46.962Z"
    fill="currentColor"
  />
  <path
    d="M1298.05 29.4395V39.4582H1309.29V47.0026C1307.67 48.5709 1305.83 49.8148 1303.75 50.7342C1301.7 51.6266 1299.72 52.0727 1297.8 52.0727C1293.71 52.0727 1290.46 50.4638 1288.06 47.2459C1285.25 43.5143 1283.85 38.0656 1283.85 30.8997C1283.85 24.2206 1285.15 19.2586 1287.73 16.0137C1290.32 12.7417 1293.71 11.1058 1297.89 11.1058C1300.58 11.1058 1302.9 11.917 1304.84 13.5395C1306.78 15.1619 1308.12 17.5009 1308.85 20.5566L1318.55 18.3257C1317.56 12.593 1315.3 8.25296 1311.8 5.3055C1308.32 2.331 1303.68 0.84375 1297.89 0.84375C1293.06 0.84375 1288.91 1.99299 1285.43 4.29147C1281.98 6.58994 1279.16 10.0647 1276.98 14.7157C1274.82 19.3668 1273.74 24.9642 1273.74 31.5081C1273.74 37.8898 1274.8 43.4467 1276.93 48.1789C1279.09 52.884 1282 56.4263 1285.67 58.8059C1289.34 61.1585 1293.57 62.3348 1298.37 62.3348C1302.31 62.3348 1306.23 61.4289 1310.14 59.6172C1314.05 57.8054 1317.07 55.6421 1319.2 53.1273V29.4395H1298.05Z"
    fill="currentColor"
  />
  <path
    d="M1333.45 1.85778H1323.66V33.5768C1323.66 42.4732 1324.3 48.5845 1325.56 51.9105C1326.86 55.2095 1328.92 57.7784 1331.75 59.6172C1334.61 61.4289 1338.57 62.3348 1343.64 62.3348C1348.52 62.3348 1352.45 61.2396 1355.41 59.0493C1358.41 56.8319 1360.32 53.9521 1361.16 50.4097C1362.02 46.8403 1362.45 41.0671 1362.45 33.09V1.85778H1352.62V34.753C1352.62 40.675 1352.35 44.5419 1351.81 46.3536C1351.3 48.1383 1350.33 49.5444 1348.9 50.572C1347.47 51.5725 1345.63 52.0727 1343.36 52.0727C1340.69 52.0727 1338.53 51.3562 1336.89 49.923C1335.27 48.4898 1334.25 46.4618 1333.82 43.8388C1333.57 42.3245 1333.45 39.0661 1333.45 34.0635V1.85778Z"
    fill="currentColor"
  />
  <path
    d="M1368.25 1.85778V61.3207H1405.22V51.3021H1378.04V35.1181H1402.47V25.0994H1378.04V11.917H1404.33V1.85778H1368.25Z"
    fill="currentColor"
  />
  <path
    fill-rule="evenodd"
    clip-rule="evenodd"
    d="M853.199 161.607H871.116C875.646 161.607 879.057 162.121 881.349 163.148C883.668 164.149 885.798 165.853 887.739 168.259C889.681 170.666 891.204 173.789 892.31 177.629C893.415 181.469 893.968 186.241 893.968 191.947C893.968 197.085 893.388 201.56 892.229 205.373C891.069 209.159 889.6 212.16 887.82 214.377C886.041 216.595 883.884 218.271 881.349 219.407C878.841 220.516 875.606 221.07 871.642 221.07H853.199V161.607ZM862.987 171.666V211.051H870.348C873.503 211.051 875.781 210.754 877.183 210.159C878.612 209.564 879.772 208.672 880.661 207.482C881.578 206.265 882.333 204.359 882.926 201.763C883.52 199.167 883.816 195.746 883.816 191.501C883.816 187.093 883.506 183.618 882.886 181.077C882.293 178.535 881.349 176.534 880.055 175.074C878.787 173.613 877.237 172.653 875.404 172.194C874.028 171.842 871.372 171.666 867.436 171.666H862.987Z"
    fill="currentColor"
  />
  <path
    d="M897.744 221.07V161.607H933.821V171.666H907.532V184.849H931.961V194.867H907.532V211.051H934.711V221.07H897.744Z"
    fill="currentColor"
  />
  <path
    d="M938.487 221.07V161.607H974.565V171.666H948.275V184.849H972.704V194.867H948.275V211.051H975.455V221.07H938.487Z"
    fill="currentColor"
  />
  <path
    d="M996.743 161.607H1006.57V199.248C1006.57 205.332 1005.96 209.862 1004.75 212.836C1003.54 215.811 1001.72 218.096 999.291 219.691C996.892 221.286 993.926 222.084 990.393 222.084C985.729 222.084 982.075 220.475 979.433 217.257C976.79 214.039 975.456 209.186 975.429 202.696L984.691 201.398C984.799 204.886 985.243 207.36 986.025 208.821C987.077 210.822 988.654 211.822 990.757 211.822C992.807 211.822 994.317 211.106 995.287 209.672C996.258 208.212 996.743 204.994 996.743 200.019V161.607Z"
    fill="currentColor"
  />
  <path
    d="M1026.9 221.07V161.607H1036.45L1056.35 201.317V161.607H1065.49V221.07H1055.62L1036.05 182.293V221.07H1026.9Z"
    fill="currentColor"
  />
  <path
    fill-rule="evenodd"
    clip-rule="evenodd"
    d="M22.0677 161.607H2.6134V221.07H19.1556C26.328 221.07 30.8983 220.827 32.8667 220.34C35.6979 219.637 38.1516 217.798 40.2278 214.824C42.304 211.822 43.3421 208.158 43.3421 203.831C43.3421 200.262 42.5197 197.234 40.8749 194.746C39.2571 192.258 37.0056 190.5 34.1205 189.473C36.1428 188.364 37.7876 186.661 39.0548 184.362C40.3221 182.037 40.9558 179.441 40.9558 176.574C40.9558 173.465 40.2143 170.679 38.7313 168.219C37.2483 165.758 35.4282 164.041 33.2711 163.067C31.114 162.094 27.3796 161.607 22.0677 161.607ZM12.4012 185.254V171.504H18.0636C23.2406 171.504 26.3684 171.639 27.447 171.91C28.5525 172.18 29.4827 172.87 30.2377 173.978C31.0197 175.06 31.4106 176.48 31.4106 178.237C31.4106 180.211 30.9388 181.78 29.995 182.942C29.0513 184.078 27.7436 184.781 26.0718 185.052C25.1551 185.187 22.7553 185.254 18.8725 185.254H12.4012ZM12.4012 211.051V195.151H20.3286C24.5349 195.151 27.3122 195.395 28.6603 195.881C30.0355 196.341 31.1275 197.206 31.9364 198.477C32.7723 199.721 33.1902 201.317 33.1902 203.264C33.1902 205.157 32.7993 206.725 32.0173 207.969C31.2623 209.186 30.3186 210.01 29.1861 210.443C28.0537 210.849 25.4921 211.051 21.5015 211.051H12.4012Z"
    fill="currentColor"
  />
  <path
    fill-rule="evenodd"
    clip-rule="evenodd"
    d="M80.243 221.07H90.9206L71.4663 161.607H61.0718L42.1433 221.07H52.5782L56.5823 207.563H75.9962L80.243 221.07ZM66.1679 175.479L72.8414 197.544H59.5753L66.1679 175.479Z"
    fill="currentColor"
  />
  <path
    fill-rule="evenodd"
    clip-rule="evenodd"
    d="M110.996 161.607H91.5418V221.07H108.084C115.256 221.07 119.827 220.827 121.795 220.34C124.626 219.637 127.08 217.798 129.156 214.824C131.232 211.822 132.271 208.158 132.271 203.831C132.271 200.262 131.448 197.234 129.803 194.746C128.186 192.258 125.934 190.5 123.049 189.473C125.071 188.364 126.716 186.661 127.983 184.362C129.251 182.037 129.884 179.441 129.884 176.574C129.884 173.465 129.143 170.679 127.66 168.219C126.177 165.758 124.357 164.041 122.2 163.067C120.042 162.094 116.308 161.607 110.996 161.607ZM101.33 185.254V171.504H106.992C112.169 171.504 115.297 171.639 116.375 171.91C117.481 172.18 118.411 172.87 119.166 173.978C119.948 175.06 120.339 176.48 120.339 178.237C120.339 180.211 119.867 181.78 118.923 182.942C117.98 184.078 116.672 184.781 115 185.052C114.083 185.187 111.684 185.254 107.801 185.254H101.33ZM101.33 211.051V195.151H109.257C113.463 195.151 116.241 195.395 117.589 195.881C118.964 196.341 120.056 197.206 120.865 198.477C121.701 199.721 122.119 201.317 122.119 203.264C122.119 205.157 121.728 206.725 120.946 207.969C120.191 209.186 119.247 210.01 118.115 210.443C116.982 210.849 114.421 211.051 110.43 211.051H101.33Z"
    fill="currentColor"
  />
  <path
    d="M145.713 161.607H135.925V193.326C135.925 202.223 136.559 208.334 137.826 211.66C139.12 214.959 141.183 217.528 144.014 219.367C146.872 221.178 150.836 222.084 155.905 222.084C160.786 222.084 164.709 220.989 167.675 218.799C170.668 216.581 172.582 213.701 173.418 210.159C174.281 206.59 174.712 200.816 174.712 192.839V161.607H164.884V194.502C164.884 200.424 164.615 204.291 164.075 206.103C163.563 207.888 162.592 209.294 161.163 210.321C159.734 211.322 157.887 211.822 155.622 211.822C152.953 211.822 150.796 211.106 149.151 209.672C147.533 208.239 146.508 206.211 146.077 203.588C145.834 202.074 145.713 198.815 145.713 193.813V161.607Z"
    fill="currentColor"
  />
  <path
    fill-rule="evenodd"
    clip-rule="evenodd"
    d="M199.925 161.607H180.47V221.07H197.013C204.185 221.07 208.755 220.827 210.724 220.34C213.555 219.637 216.008 217.798 218.085 214.824C220.161 211.822 221.199 208.158 221.199 203.831C221.199 200.262 220.377 197.234 218.732 194.746C217.114 192.258 214.862 190.5 211.977 189.473C214 188.364 215.644 186.661 216.912 184.362C218.179 182.037 218.813 179.441 218.813 176.574C218.813 173.465 218.071 170.679 216.588 168.219C215.105 165.758 213.285 164.041 211.128 163.067C208.971 162.094 205.236 161.607 199.925 161.607ZM190.258 185.254V171.504H195.92C201.098 171.504 204.225 171.639 205.304 171.91C206.409 172.18 207.34 172.87 208.095 173.978C208.877 175.06 209.268 176.48 209.268 178.237C209.268 180.211 208.796 181.78 207.852 182.942C206.908 184.078 205.6 184.781 203.929 185.052C203.012 185.187 200.612 185.254 196.729 185.254H190.258ZM190.258 211.051V195.151H198.185C202.392 195.151 205.169 195.395 206.517 195.881C207.892 196.341 208.984 197.206 209.793 198.477C210.629 199.721 211.047 201.317 211.047 203.264C211.047 205.157 210.656 206.725 209.874 207.969C209.119 209.186 208.175 210.01 207.043 210.443C205.911 210.849 203.349 211.051 199.358 211.051H190.258Z"
    fill="currentColor"
  />
  <path
    d="M224.651 161.607V221.07H234.439V205.272C229.742 201.681 227.061 197.533 227.061 193.114C227.061 188.695 229.742 184.547 234.439 180.955V161.607H224.651Z"
    fill="currentColor"
  />
  <path
    d="M248.812 173.699C245.163 174.948 241.874 176.385 239.024 177.975V161.607H248.812V173.699Z"
    fill="currentColor"
  />
  <path
    d="M340.508 211.984C336.557 211.984 333.675 210.329 331.862 207.02C329.24 208.685 326.16 210.205 322.7 211.546C325.801 218.598 331.643 222.125 340.225 222.125C346.966 222.125 351.914 220.367 355.068 216.852C358.25 213.336 359.841 208.996 359.841 203.831C359.841 200.262 359.261 197.234 358.102 194.746C356.942 192.231 355.257 190.189 353.046 188.621C350.862 187.026 347.303 185.511 342.368 184.078C339.028 183.129 336.552 182.236 334.94 181.398C339.286 184.886 341.752 188.876 341.752 193.114C341.752 194.156 341.603 195.184 341.314 196.192C343.885 197.034 345.598 197.674 346.453 198.112C347.667 198.707 348.57 199.478 349.163 200.424C349.757 201.371 350.053 202.52 350.053 203.872C350.053 206.171 349.204 208.104 347.505 209.672C345.806 211.214 343.474 211.984 340.508 211.984Z"
    fill="currentColor"
  />
  <path
    d="M239.024 208.253C241.874 209.843 245.163 211.28 248.812 212.529V221.07H239.024V208.253Z"
    fill="currentColor"
  />
  <path
    d="M331.489 176.331C331.489 177.679 331.935 178.849 332.828 179.842C329.907 177.86 326.351 176.068 322.283 174.522C322.581 172.336 323.249 170.316 324.289 168.462C325.772 165.866 327.808 163.906 330.397 162.581C332.985 161.256 336.18 160.593 339.982 160.593C345.698 160.593 350.161 162.148 353.37 165.258C356.578 168.367 358.277 172.816 358.466 178.602L348.638 179.13C348.206 175.939 347.276 173.708 345.847 172.437C344.418 171.166 342.382 170.531 339.74 170.531C337.097 170.531 335.061 171.085 333.632 172.194C332.203 173.302 331.489 174.681 331.489 176.331Z"
    fill="currentColor"
  />
  <path
    d="M363.455 161.607H373.243V193.813C373.243 198.815 373.364 202.074 373.607 203.588C374.038 206.211 375.063 208.239 376.681 209.672C378.326 211.106 380.483 211.822 383.152 211.822C385.417 211.822 387.264 211.322 388.693 210.321C390.122 209.294 391.093 207.888 391.605 206.103C392.145 204.291 392.414 200.424 392.414 194.502V161.607H402.242V192.839C402.242 200.816 401.811 206.59 400.948 210.159C400.112 213.701 398.198 216.581 395.205 218.799C392.239 220.989 388.316 222.084 383.435 222.084C378.366 222.084 374.402 221.178 371.544 219.367C368.713 217.528 366.65 214.959 365.356 211.66C364.089 208.334 363.455 202.223 363.455 193.326V161.607Z"
    fill="currentColor"
  />
  <path
    fill-rule="evenodd"
    clip-rule="evenodd"
    d="M408 221.07V161.607H423.774C429.652 161.607 433.494 161.891 435.301 162.459C438.186 163.378 440.559 165.339 442.419 168.34C444.307 171.342 445.251 175.209 445.251 179.941C445.251 184.24 444.442 187.85 442.824 190.771C441.206 193.664 439.184 195.706 436.757 196.896C434.33 198.058 430.151 198.64 424.219 198.64H417.788V221.07H408ZM417.788 171.666V188.54H423.208C426.848 188.54 429.315 188.283 430.609 187.769C431.931 187.255 433.009 186.336 433.845 185.011C434.681 183.659 435.099 182.009 435.099 180.063C435.099 178.089 434.667 176.426 433.805 175.074C432.942 173.721 431.877 172.816 430.609 172.356C429.342 171.896 426.659 171.666 422.561 171.666H417.788Z"
    fill="currentColor"
  />
  <path
    d="M448.784 221.07V161.607H484.861V171.666H458.572V184.849H483.001V194.867H458.572V211.051H485.751V221.07H448.784Z"
    fill="currentColor"
  />
  <path
    fill-rule="evenodd"
    clip-rule="evenodd"
    d="M489.527 221.07V161.607H510.195C515.48 161.607 519.255 162.148 521.52 163.23C523.785 164.284 525.645 166.136 527.101 168.786C528.557 171.409 529.285 174.56 529.285 178.237C529.285 182.888 528.166 186.633 525.928 189.473C523.717 192.312 520.562 194.097 516.464 194.827C518.567 196.341 520.306 198.004 521.681 199.816C523.057 201.601 524.93 204.818 527.303 209.47L533.208 221.07H521.52L514.401 208.131C511.84 203.453 510.1 200.533 509.184 199.37C508.267 198.18 507.296 197.369 506.272 196.936C505.247 196.476 503.602 196.247 501.337 196.247H499.315V221.07H489.527ZM499.315 186.755H506.595C511.044 186.755 513.875 186.566 515.089 186.187C516.302 185.782 517.286 184.984 518.041 183.794C518.796 182.604 519.174 181.022 519.174 179.049C519.174 177.156 518.796 175.641 518.041 174.506C517.286 173.343 516.262 172.545 514.967 172.113C514.051 171.815 511.395 171.666 507 171.666H499.315V186.755Z"
    fill="currentColor"
  />
  <path
    fill-rule="evenodd"
    clip-rule="evenodd"
    d="M548.283 161.607H566.201C570.731 161.607 574.141 162.121 576.433 163.148C578.752 164.149 580.882 165.853 582.824 168.259C584.765 170.666 586.289 173.789 587.394 177.629C588.5 181.469 589.052 186.241 589.052 191.947C589.052 197.085 588.473 201.56 587.313 205.373C586.154 209.159 584.684 212.16 582.905 214.377C581.125 216.595 578.968 218.271 576.433 219.407C573.926 220.516 570.69 221.07 566.726 221.07H548.283V161.607ZM558.071 171.666V211.051H565.432C568.587 211.051 570.865 210.754 572.267 210.159C573.697 209.564 574.856 208.672 575.746 207.482C576.663 206.265 577.417 204.359 578.011 201.763C578.604 199.167 578.901 195.746 578.901 191.501C578.901 187.093 578.59 183.618 577.97 181.077C577.377 178.535 576.433 176.534 575.139 175.074C573.872 173.613 572.321 172.653 570.488 172.194C569.113 171.842 566.457 171.666 562.52 171.666H558.071Z"
    fill="currentColor"
  />
</svg>
