<svg
 width="100%"
  viewBox="0 0 1129 259"
  fill="none"
  xmlns="http://www.w3.org/2000/svg"
>
  <g clip-path="url(#clip0_1653_1103)">
    <path
      d="M119.542 58.7615H118.001V60.3029V69.7762V71.3176H119.542H246.12V81.7783H119.542H118.001V83.3198V118.121H33.9086V36.4047H292.327V58.7615H119.542Z"
      fill="#322EF3"
      stroke="#322EF3"
      stroke-width="3.08287"
      stroke-miterlimit="10"
    />
    <path
      d="M525.3 95.6022L529.978 95.1115C546.926 93.3336 557.121 90.3967 563.08 86.0226C568.859 81.7798 570.839 76.0322 570.839 67.8371C570.839 59.1557 569.934 53.1835 565.823 48.8038C561.66 44.3681 553.907 41.2422 539.233 39.2734L539.228 39.2728C534.326 38.6009 528.695 38.071 522.185 37.6608L525.3 95.6022ZM525.3 95.6022L529.361 97.9753M525.3 95.6022L529.361 97.9753M529.361 97.9753L563.789 118.096M529.361 97.9753L563.789 118.096M563.789 118.096H462.93L451.715 112.148L451.711 112.146L432.493 101.875L432.489 101.873L424.367 97.5606L424.028 97.3805H423.645H393.705H392.164V98.922V118.193H368.769C377.786 108.993 386.134 99.1487 393.748 88.7352L393.756 88.7241L393.764 88.7129L395.01 86.944H451.494C457.58 86.944 462.529 86.8359 466.509 86.394C470.475 85.9537 473.638 85.1677 476.062 83.7063C481.131 80.6505 482.325 75.0797 482.326 66.5091M563.789 118.096L482.326 66.5091M482.326 66.5091C482.326 66.5107 482.326 66.5124 482.326 66.5141L480.784 66.5046H482.326C482.326 66.5061 482.326 66.5076 482.326 66.5091ZM482.326 66.5091C482.337 64.6445 482.237 62.7808 482.028 60.9282L482.026 60.9174L482.025 60.9067C481.659 58.0376 480.925 55.6227 479.586 53.6588C478.23 51.6699 476.337 50.2658 473.872 49.2847C469.082 47.378 461.869 46.9858 451.494 46.9858H413.002C413.212 45.2749 413.317 43.552 413.316 41.8269C413.342 40.0134 413.18 38.204 412.832 36.4282H468.217C490.721 36.4282 508.344 36.7916 522.184 37.6607L482.326 66.5091ZM334.947 113.944L334.952 113.94C352.932 99.6894 369.132 77.0423 383.61 46.1437H384.542C372.539 74.5206 357.332 96.7846 338.959 113.005C336.907 114.803 334.904 116.492 332.908 118.071H329.542C331.303 116.769 333.105 115.393 334.947 113.944Z"
      fill="#322EF3"
      stroke="#322EF3"
      stroke-width="3.08287"
      stroke-miterlimit="10"
    />
    <path
      d="M393.706 46.9116H392.165V48.453V85.3284V85.5567L391.252 86.8525C383.129 97.9613 374.161 108.415 364.428 118.118H337.692C338.755 117.229 339.822 116.312 340.899 115.367L340.902 115.365C360.228 98.3276 376.009 74.9112 388.283 45.1891L389.162 43.0593H386.858H382.629H381.646L381.231 43.9506C366.757 75.0705 350.673 97.5439 333.041 111.52C330.001 113.911 327.081 116.094 324.281 118.07H308.168V36.3539H409.683C410.076 38.1126 410.261 39.9134 410.234 41.7188L410.234 41.731L410.234 41.7432C410.236 43.4722 410.122 45.1988 409.895 46.9116H393.706Z"
      fill="#322EF3"
      stroke="#322EF3"
      stroke-width="3.08287"
      stroke-miterlimit="10"
    />
    <path
      d="M844.7 99.8653L844.695 99.8735C839.798 108.705 830.322 114.247 813.208 117.61C796.09 120.973 771.702 122.084 737.477 122.363H737.442H737.402H737.362H737.322H737.282H737.241H737.201H737.161H737.121H737.08H737.04H737H736.96H736.919H736.879H736.839H736.798H736.758H736.718H736.677H736.637H736.597H736.556H736.516H736.476H736.435H736.395H736.354H736.314H736.273H736.233H736.193H736.152H736.112H736.071H736.031H735.99H735.95H735.909H735.869H735.828H735.787H735.747H735.706H735.666H735.625H735.585H735.544H735.503H735.463H735.422H735.382H735.341H735.3H735.26H735.219H735.178H735.138H735.097H735.056H735.015H734.975H734.934H734.893H734.852H734.812H734.771H734.73H734.689H734.649H734.608H734.567H734.526H734.485H734.444H734.404H734.363H734.322H734.281H734.24H734.199H734.158H734.117H734.076H734.036H733.995H733.954H733.913H733.872H733.831H733.79H733.749H733.708H733.667H733.626H733.585H733.544H733.503H733.462H733.421H733.379H733.338H733.297H733.256H733.215H733.174H733.133H733.092H733.05H733.009H732.968H732.927H732.886H732.845H732.803H732.762H732.721H732.68H732.639H732.597H732.556H732.515H732.473H732.432H732.391H732.35H732.308H732.267H732.226H732.184H732.143H732.102H732.06H732.019H731.978H731.936H731.895H731.853H731.812H731.77H731.729H731.688H731.646H731.605H731.563H731.522H731.48H731.439H731.397H731.356H731.314H731.273H731.231H731.19H731.148H731.106H731.065H731.023H730.982H730.94H730.898H730.857H730.815H730.774H730.732H730.69H730.649H730.607H730.565H730.524H730.482H730.44H730.398H730.357H730.315H730.273H730.231H730.19H730.148H730.106H730.064H730.022H729.981H729.939H729.897H729.855H729.813H729.771H729.73H729.688H729.646H729.604H729.562H729.52H729.478H729.436H729.394H729.352H729.31H729.268H729.227H729.185H729.143H729.101H729.059H729.017H728.974H728.932H728.89H728.848H728.806H728.764H728.722H728.68H728.638H728.596H728.554H728.512H728.469H728.427H728.385H728.343H728.301H728.259H728.216H728.174H728.132H728.09H728.048H728.005H727.963H727.921H727.879H727.836H727.794H727.752H727.709H727.667H727.625H727.583H727.54H727.498H727.456H727.413H727.371H727.328H727.286H727.244H727.201H727.159H727.116H727.074H727.032H726.989H726.947H726.904H726.862H726.819H726.777H726.734H726.692H726.649H726.607H726.564H726.522H726.479H726.436H726.394H726.351H726.309H726.266H726.223H726.181H726.138H726.096H726.053H726.01H725.968H725.925H725.882H725.84H725.797H725.754H725.711H725.669H725.626H725.583H725.54H725.498H725.455H725.412H725.369H725.327H725.284H725.241H725.198H725.155H725.112H725.07H725.027H724.984H724.941H724.898H724.855H724.812H724.769H724.726H724.683H724.64H724.598H724.555H724.512H724.469H724.426H724.383H724.34H724.297H724.254H724.211H724.168H724.124H724.081H724.038H723.995H723.952H723.909H723.866H723.823H723.78H723.737H723.693H723.65H723.607H723.564H723.521H723.478H723.434H723.391H723.348H723.305H723.262H723.218H723.175H723.132H723.089H723.045H723.002H722.959H722.915H722.872H722.829H722.785H722.742H722.699H722.655H722.612H722.569H722.525H722.482H722.438H722.395H722.352H722.308H722.265H722.221H722.178H722.134H722.091H722.047H722.004H721.96H721.917H721.873H721.83H721.786H721.743H721.699H721.656H721.612H721.569H721.525H721.481H721.438H721.394H721.35H721.307H721.263H721.22H721.176H721.132H721.089H721.045H721.001H720.957H720.914H720.87H720.826H720.783H720.739H720.695H720.651H720.607H720.564H720.52H720.476H720.432H720.388H720.345H720.301H720.257H720.213H720.169H720.125H720.081H720.038H719.994H719.95H719.906H719.862H719.818H719.774H719.73H719.686H719.642H719.598H719.554H719.51H719.466H719.422H719.378H719.334H719.29H719.246H719.202H719.158H719.114H719.07H719.025H718.981H718.937H718.893H718.849H718.805H718.761H718.716H718.672H718.628H718.584H718.54H718.495H718.451H718.407H718.363H718.319H718.274H718.23H718.186H718.141H718.097H718.053H718.009H717.964H717.92H717.876H717.831H717.787H717.743H717.698H717.654H717.609H717.565H717.521H717.476H717.432H717.387H717.343H717.298H717.254H717.209H717.165H717.12H717.076H717.031H716.987H716.942H716.898H716.853H716.809H716.764H716.72H716.675H716.631H716.586H716.541H716.497H716.452H716.407H716.363H716.318H716.274H716.229H716.184H716.139H716.095H716.05H716.005H715.961H715.916H715.871H715.826H715.782H715.737H708.927C712.401 118.983 715.784 115.499 719.044 111.899C729.041 111.844 739.372 111.306 747.246 106.762C755.511 101.993 760.746 93.0398 760.746 76.9258C760.746 67.6603 758.914 60.7983 755.635 55.6842C757.038 51.1614 757.796 46.4594 757.886 41.7193C758.015 38.4631 757.427 35.2292 756.176 32.2464L761.372 32.3603C761.374 32.3603 761.375 32.3603 761.377 32.3604C786.692 33.0628 805.168 34.6183 818.486 37.9036C831.78 41.1832 839.693 46.1275 844.2 53.4298C845.802 56.0789 846.996 58.9587 847.739 61.9705C848.872 66.9091 849.391 71.9708 849.284 77.0387L849.283 77.0769L849.284 77.115C849.459 83.2699 848.617 89.4111 846.791 95.2864C846.223 96.8694 845.523 98.4011 844.7 99.8653ZM689.394 32.1427L694.355 32.0899L694.299 32.0525C696.011 32.0402 697.746 32.0308 699.504 32.0273C695.117 34.3362 690.852 36.8757 686.727 39.6358C668.891 51.2365 652.925 65.5254 639.385 82.0042L639.385 82.0042L639.379 82.0117C627.952 96.0953 621.276 108.1 619.701 117.961C618.324 117.707 616.998 117.438 615.714 117.144L615.714 117.144L615.7 117.141C601.499 114.028 592.967 109.215 588.05 102.006L588.048 102.004C586.736 100.085 585.675 98.0028 584.895 95.8084C582.905 89.781 581.989 83.4456 582.19 77.0957L582.19 77.0713V77.0469C582.19 67.5895 583.553 60.2583 586.761 54.5121C589.948 48.8067 595.049 44.4981 602.865 41.2562L602.865 41.2562L602.877 41.2512C604.641 40.5022 606.583 39.8171 608.662 39.1738C625.114 34.162 650.671 32.555 689.394 32.1427Z"
      fill="#322EF3"
      stroke="#322EF3"
      stroke-width="3.08287"
      stroke-miterlimit="10"
    />
    <path
      d="M754.874 41.6825L754.873 41.6998L754.873 41.7171C754.804 45.4213 754.3 49.1007 753.375 52.6788C747.91 46.5527 739.985 44.1065 731.486 43.0983L731.395 43.0875H731.304H731.043C725.935 42.5936 720.805 42.3833 715.675 42.4576C709.14 42.4577 703.066 42.5431 697.656 43.1783C692.244 43.8139 687.386 45.0105 683.322 47.3021C675.007 51.9914 670.557 60.9284 670.557 77.0221C670.557 85.7345 671.772 92.3744 674.18 97.4035C676.609 102.477 680.213 105.827 684.791 107.995C686.48 108.816 688.245 109.467 690.062 109.936C696.979 111.811 705.473 112.009 714.95 112.022C711.605 115.618 708.134 119.101 704.571 122.483C692.979 122.478 682.406 122.334 672.785 122.096L672.766 122.096H672.747C670.386 122.096 668.103 122.012 665.835 121.929C665.136 121.903 664.438 121.878 663.739 121.854L663.729 121.854L663.718 121.854C650.025 121.589 636.363 120.456 622.812 118.46C624.246 109.448 630.472 97.9685 641.839 83.9572C655.181 67.7204 670.912 53.6426 688.485 42.2143L688.493 42.2088L688.502 42.2032C694.225 38.3739 700.221 34.9786 706.443 32.0453H715.83C729.451 32.0453 741.749 32.0454 752.857 32.3133C754.31 35.2059 755.007 38.4315 754.874 41.6825Z"
      fill="#322EF3"
      stroke="#322EF3"
      stroke-width="3.08287"
      stroke-miterlimit="10"
    />
    <path
      d="M1034.81 86.818H998.866V76.3573H1125.64C1125.49 86.1299 1123.84 93.7135 1120.11 99.6638C1116.19 105.891 1109.86 110.534 1100 113.945C1090.12 117.366 1076.8 119.51 1059.07 120.79C1041.35 122.07 1019.34 122.482 992.11 122.482C964.875 122.482 942.854 122.206 925.131 121.13C907.392 120.053 894.062 118.178 884.168 115.023C874.302 111.876 867.982 107.498 864.082 101.485C860.161 95.4392 858.539 87.5211 858.539 76.9964C858.539 66.5826 860.159 58.7502 864.075 52.7695C867.971 46.8194 874.288 42.4826 884.155 39.3648C894.049 36.2387 907.38 34.3808 925.12 33.3126C942.844 32.2455 964.869 31.9711 992.11 31.9711C1040.75 31.9711 1072.7 32.8574 1093.19 37.5323C1103.41 39.864 1110.62 43.1056 1115.6 47.5187C1120.13 51.5337 1122.93 56.6139 1124.42 63.147H1035.57C1034.29 58.0499 1032.22 54.1809 1029.48 51.2802C1026.52 48.1531 1022.88 46.2474 1018.87 45.0907C1012.28 43.1896 1004.44 43.2682 996.675 43.346C995.139 43.3614 993.606 43.3767 992.086 43.3767H992.034C985.538 43.3767 979.487 43.3767 974.105 43.8848C968.709 44.3942 963.851 45.4238 959.783 47.5637C955.67 49.7269 952.433 52.9893 950.249 57.8156C948.083 62.5995 946.981 68.8554 946.981 76.9964C946.981 85.2441 948.083 91.5801 950.253 96.424C952.443 101.311 955.694 104.616 959.837 106.809C963.935 108.978 968.837 110.021 974.298 110.537C979.744 111.052 985.88 111.052 992.49 111.052H992.542H992.695C1001.95 111.052 1012.71 111.052 1021.17 108.334C1025.45 106.957 1029.27 104.847 1032.02 101.579C1034.78 98.2864 1036.35 93.953 1036.35 88.3594V86.818H1034.81Z"
      fill="#322EF3"
      stroke="#322EF3"
      stroke-width="3.08287"
      stroke-miterlimit="10"
    />
    <path
      d="M119.661 176.418H118.12V177.959V187.432V188.974H119.661H246.24V199.556H119.661H118.12V201.097V235.898H34.0278V154.182H292.446V176.418H119.661Z"
      fill="white"
      stroke="#322EF3"
      stroke-width="3.08287"
      stroke-miterlimit="10"
    />
    <path
      d="M310.379 235.75V154.034H392.017C379.475 176.429 373.161 198.393 373.158 219.906C373.066 225.233 373.594 230.55 374.728 235.75H338.097C344.503 229.365 350.402 222.48 355.738 215.158L356.665 213.885L355.373 212.985L350.784 209.787L349.562 208.936L348.669 210.127C340.022 221.662 332.504 229.742 326.116 234.473C325.487 234.929 324.891 235.356 324.305 235.75H310.379Z"
      fill="white"
      stroke="#322EF3"
      stroke-width="3.08287"
      stroke-miterlimit="10"
    />
    <path
      d="M395.989 213.466L565.384 213.348C552.67 221.393 541.687 228.861 532.438 235.75H384.882C384.755 234.859 384.694 233.959 384.698 233.058V233.051C384.698 222.119 389.507 207.459 399.385 188.971H522.566V199.553H395.988H394.446V201.094V211.924V213.467L395.989 213.466Z"
      fill="white"
      stroke="#322EF3"
      stroke-width="3.08287"
      stroke-miterlimit="10"
    />
    <path
      d="M761.054 211.782V211.778C761.054 209.006 760.346 206.728 758.789 204.961C757.258 203.225 755.064 202.164 752.448 201.485C747.304 200.15 739.773 200.121 730.326 200.085L730.252 200.085H730.246H647.996C624.646 200.085 608.051 197.879 597.347 193.848C592.006 191.836 588.231 189.407 585.801 186.663C583.399 183.95 582.258 180.873 582.258 177.398C582.258 172.395 583.575 168.559 586.111 165.551C588.67 162.515 592.595 160.175 598.075 158.424C609.091 154.904 625.801 153.936 648.501 153.936H783.06C805.673 153.936 822.355 156.169 833.335 160.914C838.802 163.277 842.776 166.23 845.386 169.766C847.711 172.917 849.013 176.613 849.26 180.945H763.68C763.514 177.906 762.84 175.327 761.603 173.174C760.151 170.648 757.994 168.833 755.261 167.547C749.908 165.031 742.153 164.469 732.504 164.469H698.624C688.977 164.469 682.064 165.003 677.549 166.901C675.233 167.874 673.458 169.24 672.287 171.141C671.125 173.027 670.652 175.286 670.652 177.883C670.652 180.663 671.358 182.935 672.931 184.673C674.475 186.379 676.683 187.38 679.299 187.999C684.078 189.129 690.939 189.123 699.483 189.116C700.155 189.116 700.838 189.115 701.532 189.115H783.659C807.039 189.188 823.637 191.532 834.34 195.671C845.013 199.8 849.437 205.525 849.447 212.289C849.447 217.277 848.128 221.103 845.59 224.104C843.027 227.134 839.097 229.47 833.613 231.218C822.591 234.733 805.88 235.7 783.204 235.7H648.645C626.02 235.7 609.338 233.474 598.361 228.734C592.896 226.374 588.924 223.424 586.316 219.891C583.993 216.742 582.692 213.048 582.446 208.716H667.929C668.092 211.747 668.755 214.323 669.976 216.479C671.409 219.01 673.543 220.837 676.259 222.136C681.575 224.678 689.298 225.264 698.961 225.264H732.865C742.523 225.264 749.48 224.674 754.044 222.74C756.379 221.751 758.174 220.376 759.366 218.483C760.552 216.6 761.047 214.353 761.054 211.782Z"
      fill="white"
      stroke="#322EF3"
      stroke-width="3.08287"
      stroke-miterlimit="10"
    />
    <path
      d="M948.642 176.415H863.008V154.01H1121.43V176.415H1035.79H1034.25V177.957V235.75H950.183V177.957V176.415H948.642Z"
      fill="white"
      stroke="#322EF3"
      stroke-width="3.08287"
      stroke-miterlimit="10"
    />
    <path
      d="M406.502 176.415C410.92 168.943 415.771 161.475 421.054 154.01H568.774V176.415H406.502Z"
      fill="white"
      stroke="#322EF3"
      stroke-width="3.08287"
      stroke-miterlimit="10"
    />
    <path
      d="M532.029 236.059L528.314 238.835H532.952H570.316H571.858V237.294V212.072V209.293L569.5 210.765C554.834 219.922 542.341 228.354 532.029 236.059ZM350.775 209.784L349.557 208.947L348.67 210.13C340.022 221.665 332.505 229.745 326.117 234.476C325.352 235.03 324.636 235.542 323.929 236.002L319.573 238.835H324.77H334.381H334.998L335.445 238.409C342.91 231.291 349.727 223.51 355.811 215.161L356.745 213.879L355.437 212.982L350.775 209.784Z"
      fill="white"
    />
    <path
      d="M532.029 236.059L528.314 238.835H532.952H570.316H571.858V237.294V212.072V209.293L569.5 210.765C554.834 219.922 542.341 228.354 532.029 236.059ZM350.775 209.784L349.557 208.947L348.67 210.13C340.022 221.665 332.505 229.745 326.117 234.476C325.352 235.03 324.636 235.542 323.929 236.002L319.573 238.835H324.77H334.381H334.998L335.445 238.409C342.91 231.291 349.727 223.51 355.811 215.161L356.745 213.879L355.437 212.982L350.775 209.784Z"
      fill="url(#paint0_linear_1653_1103)"
      fill-opacity="0.7"
    />
    <path
      d="M532.029 236.059L528.314 238.835H532.952H570.316H571.858V237.294V212.072V209.293L569.5 210.765C554.834 219.922 542.341 228.354 532.029 236.059ZM350.775 209.784L349.557 208.947L348.67 210.13C340.022 221.665 332.505 229.745 326.117 234.476C325.352 235.03 324.636 235.542 323.929 236.002L319.573 238.835H324.77H334.381H334.998L335.445 238.409C342.91 231.291 349.727 223.51 355.811 215.161L356.745 213.879L355.437 212.982L350.775 209.784Z"
      stroke="#322EF3"
      stroke-width="3.08287"
      stroke-miterlimit="10"
    />
    <path
      d="M340.901 115.32L340.899 115.322C338.675 117.272 336.492 119.107 334.399 120.751C317.78 134.01 302.549 140.829 288.752 140.829M340.901 115.32L288.75 139.288M340.901 115.32C360.229 98.3153 376.009 74.9145 388.283 45.1923L389.163 43.0625H386.858H382.63H381.646L381.232 43.9539C366.758 75.0736 350.674 97.5469 333.042 111.523M340.901 115.32L333.996 112.734M288.752 140.829C288.752 140.829 288.751 140.829 288.75 140.829V139.288M288.752 140.829C288.753 140.829 288.754 140.829 288.755 140.829L288.75 139.288M288.752 140.829C283.755 140.844 278.935 138.977 275.235 135.597M288.75 139.288C284.132 139.302 279.675 137.573 276.256 134.442M275.235 135.597C275.242 135.603 275.249 135.609 275.255 135.615L276.256 134.442M275.235 135.597C273.328 133.966 271.804 131.931 270.771 129.637C269.736 127.339 269.22 124.838 269.26 122.316M275.235 135.597C275.228 135.591 275.221 135.585 275.215 135.579L276.256 134.442M276.256 134.442L269.26 122.316M269.26 122.316C269.26 122.32 269.26 122.324 269.26 122.328H270.801L269.26 122.303C269.26 122.307 269.26 122.312 269.26 122.316ZM269.26 122.316C269.263 105.378 275.953 88.7214 289.136 72.3711L289.138 72.3687C294.168 66.1555 299.67 60.346 305.594 54.9929L308.169 52.6661V56.1366V71.2308V71.852L307.738 72.2996C304.099 76.0812 300.635 79.9905 297.346 84.0277L297.345 84.029C284.239 100.081 277.989 112.848 277.989 122.449C277.989 126.018 279.073 128.446 281.024 130.029C283.036 131.663 286.228 132.61 290.865 132.61C299.243 132.61 310.214 128.003 323.88 118.355L323.884 118.353C326.805 116.303 329.858 114.027 333.042 111.523M269.26 122.316L290.336 73.3386C294.877 67.7298 299.806 62.4534 305.086 57.5488V56.1366H306.628L307.661 57.2802C307.315 57.5929 306.971 57.9071 306.628 58.2229V71.2308C302.959 75.0427 299.467 78.9838 296.151 83.0542C283.016 99.1417 276.448 112.273 276.448 122.449C276.448 130.251 281.254 134.152 290.865 134.152C299.739 134.152 311.041 129.306 324.769 119.615C327.717 117.547 330.792 115.254 333.996 112.734M333.042 111.523C333.041 111.524 333.04 111.525 333.038 111.526L333.996 112.734M333.042 111.523C333.042 111.523 333.043 111.522 333.043 111.522L333.996 112.734M350.806 209.803L349.578 208.915L348.669 210.127C340.022 221.662 332.505 229.742 326.117 234.473C325.351 235.027 324.636 235.539 323.928 235.999L323.895 236.021L323.863 236.044C319.328 239.34 313.934 241.217 308.352 241.443C304.285 241.436 300.243 240.808 296.363 239.58C291.333 237.908 286.394 235.973 281.564 233.784C268.453 227.595 254.268 224.049 239.807 223.347L239.715 223.342L239.623 223.349C230.352 224.005 221.169 225.548 212.199 227.953C220.659 221.335 229.645 215.423 239.068 210.278C249.332 204.863 266.298 196.952 289.995 186.539L290.003 186.536L290.01 186.532C296.772 183.475 303.293 180.442 309.502 177.482L310.38 177.063V176.091V162.644V159.852L308.017 161.34C303.331 164.291 298.388 167.347 293.188 170.509L293.186 170.51C289.909 172.509 286.504 174.548 282.971 176.628L282.967 176.63C275.287 181.179 267.078 185.931 258.339 190.886L258.333 190.889C254.436 193.121 250.659 195.312 247.002 197.463C247.001 197.463 247.001 197.464 247 197.464L243.279 199.643L243.271 199.647C204.811 222.447 178.226 241.392 163.655 256.475L161.131 259.087H164.764H171.107H171.659L172.086 258.737C188.393 245.342 202.711 238.901 215.094 238.978H215.103C226.011 238.978 239.745 242.553 256.365 249.848L256.375 249.852L256.384 249.856C263.687 252.946 269.961 255.276 275.197 256.837C280.41 258.391 284.685 259.209 287.957 259.209L287.96 259.209C300.282 259.19 312.326 255.519 322.594 248.654C327.14 245.666 331.415 242.279 335.369 238.531L335.372 238.528C342.838 231.409 349.654 223.628 355.738 215.279L356.649 214.029L355.396 213.122L350.806 209.803ZM420.514 34.1918L420.509 34.1801C419.311 31.5324 417.73 29.0774 415.819 26.8951C410.07 20.3225 401.738 17.1383 391.087 17.1383C374.33 17.1383 356.457 22.3256 337.491 32.5878L337.482 32.5929L335.896 33.4651L330.638 36.3571H336.639H353.099H353.5L353.851 36.1609C367.861 28.322 380.301 24.4853 391.208 24.4853C396.544 24.4853 400.647 25.4475 403.639 27.2351C406.588 28.9973 408.573 31.6278 409.595 35.2325C410.179 37.3441 410.46 39.5297 410.427 41.722L410.427 41.7342V41.7464C410.429 43.9097 410.251 46.0693 409.895 48.2026L409.893 48.2172L409.891 48.2318C408.338 58.7814 402.791 70.8415 393.077 84.4354L393.071 84.4442L391.373 86.8557C383.125 98.1354 374.005 108.74 364.099 118.569L364.095 118.573C358.819 123.845 353.35 128.829 347.642 133.598C341.286 138.885 333.321 144.765 323.738 151.239L319.566 154.058H324.601H354.925H355.342L355.703 153.847L360.491 151.047C360.494 151.045 360.497 151.043 360.5 151.042C378.417 140.878 394.103 127.158 406.611 110.711L406.616 110.705L406.621 110.699C409.217 107.213 411.554 103.539 413.612 99.7054C416.02 95.2846 418.019 90.6498 419.584 85.8597C422.927 75.6511 424.577 64.9565 424.467 54.2067L424.466 54.1977L424.466 54.1887C424.423 52.2204 424.276 50.2559 424.027 48.3033C423.678 43.4299 422.489 38.6547 420.514 34.1918Z"
      fill="white"
    />
    <path
      d="M340.901 115.32L340.899 115.322C338.675 117.272 336.492 119.107 334.399 120.751C317.78 134.01 302.549 140.829 288.752 140.829M340.901 115.32L288.75 139.288M340.901 115.32C360.229 98.3153 376.009 74.9145 388.283 45.1923L389.163 43.0625H386.858H382.63H381.646L381.232 43.9539C366.758 75.0736 350.674 97.5469 333.042 111.523M340.901 115.32L333.996 112.734M288.752 140.829C288.752 140.829 288.751 140.829 288.75 140.829V139.288M288.752 140.829C288.753 140.829 288.754 140.829 288.755 140.829L288.75 139.288M288.752 140.829C283.755 140.844 278.935 138.977 275.235 135.597M288.75 139.288C284.132 139.302 279.675 137.573 276.256 134.442M275.235 135.597C275.242 135.603 275.249 135.609 275.255 135.615L276.256 134.442M275.235 135.597C273.328 133.966 271.804 131.931 270.771 129.637C269.736 127.339 269.22 124.838 269.26 122.316M275.235 135.597C275.228 135.591 275.221 135.585 275.215 135.579L276.256 134.442M276.256 134.442L269.26 122.316M269.26 122.316C269.26 122.32 269.26 122.324 269.26 122.328H270.801L269.26 122.303C269.26 122.307 269.26 122.312 269.26 122.316ZM269.26 122.316C269.263 105.378 275.953 88.7214 289.136 72.3711L289.138 72.3687C294.168 66.1555 299.67 60.346 305.594 54.9929L308.169 52.6661V56.1366V71.2308V71.852L307.738 72.2996C304.099 76.0812 300.635 79.9905 297.346 84.0277L297.345 84.029C284.239 100.081 277.989 112.848 277.989 122.449C277.989 126.018 279.073 128.446 281.024 130.029C283.036 131.663 286.228 132.61 290.865 132.61C299.243 132.61 310.214 128.003 323.88 118.355L323.884 118.353C326.805 116.303 329.858 114.027 333.042 111.523M269.26 122.316L290.336 73.3386C294.877 67.7298 299.806 62.4534 305.086 57.5488V56.1366H306.628L307.661 57.2802C307.315 57.5929 306.971 57.9071 306.628 58.2229V71.2308C302.959 75.0427 299.467 78.9838 296.151 83.0542C283.016 99.1417 276.448 112.273 276.448 122.449C276.448 130.251 281.254 134.152 290.865 134.152C299.739 134.152 311.041 129.306 324.769 119.615C327.717 117.547 330.792 115.254 333.996 112.734M333.042 111.523C333.041 111.524 333.04 111.525 333.038 111.526L333.996 112.734M333.042 111.523C333.042 111.523 333.043 111.522 333.043 111.522L333.996 112.734M350.806 209.803L349.578 208.915L348.669 210.127C340.022 221.662 332.505 229.742 326.117 234.473C325.351 235.027 324.636 235.539 323.928 235.999L323.895 236.021L323.863 236.044C319.328 239.34 313.934 241.217 308.352 241.443C304.285 241.436 300.243 240.808 296.363 239.58C291.333 237.908 286.394 235.973 281.564 233.784C268.453 227.595 254.268 224.049 239.807 223.347L239.715 223.342L239.623 223.349C230.352 224.005 221.169 225.548 212.199 227.953C220.659 221.335 229.645 215.423 239.068 210.278C249.332 204.863 266.298 196.952 289.995 186.539L290.003 186.536L290.01 186.532C296.772 183.475 303.293 180.442 309.502 177.482L310.38 177.063V176.091V162.644V159.852L308.017 161.34C303.331 164.291 298.388 167.347 293.188 170.509L293.186 170.51C289.909 172.509 286.504 174.548 282.971 176.628L282.967 176.63C275.287 181.179 267.078 185.931 258.339 190.886L258.333 190.889C254.436 193.121 250.659 195.312 247.002 197.463C247.001 197.463 247.001 197.464 247 197.464L243.279 199.643L243.271 199.647C204.811 222.447 178.226 241.392 163.655 256.475L161.131 259.087H164.764H171.107H171.659L172.086 258.737C188.393 245.342 202.711 238.901 215.094 238.978H215.103C226.011 238.978 239.745 242.553 256.365 249.848L256.375 249.852L256.384 249.856C263.687 252.946 269.961 255.276 275.197 256.837C280.41 258.391 284.685 259.209 287.957 259.209L287.96 259.209C300.282 259.19 312.326 255.519 322.594 248.654C327.14 245.666 331.415 242.279 335.369 238.531L335.372 238.528C342.838 231.409 349.654 223.628 355.738 215.279L356.649 214.029L355.396 213.122L350.806 209.803ZM420.514 34.1918L420.509 34.1801C419.311 31.5324 417.73 29.0774 415.819 26.8951C410.07 20.3225 401.738 17.1383 391.087 17.1383C374.33 17.1383 356.457 22.3256 337.491 32.5878L337.482 32.5929L335.896 33.4651L330.638 36.3571H336.639H353.099H353.5L353.851 36.1609C367.861 28.322 380.301 24.4853 391.208 24.4853C396.544 24.4853 400.647 25.4475 403.639 27.2351C406.588 28.9973 408.573 31.6278 409.595 35.2325C410.179 37.3441 410.46 39.5297 410.427 41.722L410.427 41.7342V41.7464C410.429 43.9097 410.251 46.0693 409.895 48.2026L409.893 48.2172L409.891 48.2318C408.338 58.7814 402.791 70.8415 393.077 84.4354L393.071 84.4442L391.373 86.8557C383.125 98.1354 374.005 108.74 364.099 118.569L364.095 118.573C358.819 123.845 353.35 128.829 347.642 133.598C341.286 138.885 333.321 144.765 323.738 151.239L319.566 154.058H324.601H354.925H355.342L355.703 153.847L360.491 151.047C360.494 151.045 360.497 151.043 360.5 151.042C378.417 140.878 394.103 127.158 406.611 110.711L406.616 110.705L406.621 110.699C409.217 107.213 411.554 103.539 413.612 99.7054C416.02 95.2846 418.019 90.6498 419.584 85.8597C422.927 75.6511 424.577 64.9565 424.467 54.2067L424.466 54.1977L424.466 54.1887C424.423 52.2204 424.276 50.2559 424.027 48.3033C423.678 43.4299 422.489 38.6547 420.514 34.1918Z"
      fill="url(#paint1_linear_1653_1103)"
      fill-opacity="0.7"
    />
    <path
      d="M340.901 115.32L340.899 115.322C338.675 117.272 336.492 119.107 334.399 120.751C317.78 134.01 302.549 140.829 288.752 140.829M340.901 115.32L288.75 139.288M340.901 115.32C360.229 98.3153 376.009 74.9145 388.283 45.1923L389.163 43.0625H386.858H382.63H381.646L381.232 43.9539C366.758 75.0736 350.674 97.5469 333.042 111.523M340.901 115.32L333.996 112.734M288.752 140.829C288.752 140.829 288.751 140.829 288.75 140.829V139.288M288.752 140.829C288.753 140.829 288.754 140.829 288.755 140.829L288.75 139.288M288.752 140.829C283.755 140.844 278.935 138.977 275.235 135.597M288.75 139.288C284.132 139.302 279.675 137.573 276.256 134.442M275.235 135.597C275.242 135.603 275.249 135.609 275.255 135.615L276.256 134.442M275.235 135.597C273.328 133.966 271.804 131.931 270.771 129.637C269.736 127.339 269.22 124.838 269.26 122.316M275.235 135.597C275.228 135.591 275.221 135.585 275.215 135.579L276.256 134.442M276.256 134.442L269.26 122.316M269.26 122.316C269.26 122.32 269.26 122.324 269.26 122.328H270.801L269.26 122.303C269.26 122.307 269.26 122.312 269.26 122.316ZM269.26 122.316C269.263 105.378 275.953 88.7214 289.136 72.3711L289.138 72.3687C294.168 66.1555 299.67 60.346 305.594 54.9929L308.169 52.6661V56.1366V71.2308V71.852L307.738 72.2996C304.099 76.0812 300.635 79.9905 297.346 84.0277L297.345 84.029C284.239 100.081 277.989 112.848 277.989 122.449C277.989 126.018 279.073 128.446 281.024 130.029C283.036 131.663 286.228 132.61 290.865 132.61C299.243 132.61 310.214 128.003 323.88 118.355L323.884 118.353C326.805 116.303 329.858 114.027 333.042 111.523M269.26 122.316L290.336 73.3386C294.877 67.7298 299.806 62.4534 305.086 57.5488V56.1366H306.628L307.661 57.2802C307.315 57.5929 306.971 57.9071 306.628 58.2229V71.2308C302.959 75.0427 299.467 78.9838 296.151 83.0542C283.016 99.1417 276.448 112.273 276.448 122.449C276.448 130.251 281.254 134.152 290.865 134.152C299.739 134.152 311.041 129.306 324.769 119.615C327.717 117.547 330.792 115.254 333.996 112.734M333.042 111.523C333.041 111.524 333.04 111.525 333.038 111.526L333.996 112.734M333.042 111.523C333.042 111.523 333.043 111.522 333.043 111.522L333.996 112.734M350.806 209.803L349.578 208.915L348.669 210.127C340.022 221.662 332.505 229.742 326.117 234.473C325.351 235.027 324.636 235.539 323.928 235.999L323.895 236.021L323.863 236.044C319.328 239.34 313.934 241.217 308.352 241.443C304.285 241.436 300.243 240.808 296.363 239.58C291.333 237.908 286.394 235.973 281.564 233.784C268.453 227.595 254.268 224.049 239.807 223.347L239.715 223.342L239.623 223.349C230.352 224.005 221.169 225.548 212.199 227.953C220.659 221.335 229.645 215.423 239.068 210.278C249.332 204.863 266.298 196.952 289.995 186.539L290.003 186.536L290.01 186.532C296.772 183.475 303.293 180.442 309.502 177.482L310.38 177.063V176.091V162.644V159.852L308.017 161.34C303.331 164.291 298.388 167.347 293.188 170.509L293.186 170.51C289.909 172.509 286.504 174.548 282.971 176.628L282.967 176.63C275.287 181.179 267.078 185.931 258.339 190.886L258.333 190.889C254.436 193.121 250.659 195.312 247.002 197.463C247.001 197.463 247.001 197.464 247 197.464L243.279 199.643L243.271 199.647C204.811 222.447 178.226 241.392 163.655 256.475L161.131 259.087H164.764H171.107H171.659L172.086 258.737C188.393 245.342 202.711 238.901 215.094 238.978H215.103C226.011 238.978 239.745 242.553 256.365 249.848L256.375 249.852L256.384 249.856C263.687 252.946 269.961 255.276 275.197 256.837C280.41 258.391 284.685 259.209 287.957 259.209L287.96 259.209C300.282 259.19 312.326 255.519 322.594 248.654C327.14 245.666 331.415 242.279 335.369 238.531L335.372 238.528C342.838 231.409 349.654 223.628 355.738 215.279L356.649 214.029L355.396 213.122L350.806 209.803ZM420.514 34.1918L420.509 34.1801C419.311 31.5324 417.73 29.0774 415.819 26.8951C410.07 20.3225 401.738 17.1383 391.087 17.1383C374.33 17.1383 356.457 22.3256 337.491 32.5878L337.482 32.5929L335.896 33.4651L330.638 36.3571H336.639H353.099H353.5L353.851 36.1609C367.861 28.322 380.301 24.4853 391.208 24.4853C396.544 24.4853 400.647 25.4475 403.639 27.2351C406.588 28.9973 408.573 31.6278 409.595 35.2325C410.179 37.3441 410.46 39.5297 410.427 41.722L410.427 41.7342V41.7464C410.429 43.9097 410.251 46.0693 409.895 48.2026L409.893 48.2172L409.891 48.2318C408.338 58.7814 402.791 70.8415 393.077 84.4354L393.071 84.4442L391.373 86.8557C383.125 98.1354 374.005 108.74 364.099 118.569L364.095 118.573C358.819 123.845 353.35 128.829 347.642 133.598C341.286 138.885 333.321 144.765 323.738 151.239L319.566 154.058H324.601H354.925H355.342L355.703 153.847L360.491 151.047C360.494 151.045 360.497 151.043 360.5 151.042C378.417 140.878 394.103 127.158 406.611 110.711L406.616 110.705L406.621 110.699C409.217 107.213 411.554 103.539 413.612 99.7054C416.02 95.2846 418.019 90.6498 419.584 85.8597C422.927 75.6511 424.577 64.9565 424.467 54.2067L424.466 54.1977L424.466 54.1887C424.423 52.2204 424.276 50.2559 424.027 48.3033C423.678 43.4299 422.489 38.6547 420.514 34.1918Z"
      stroke="#322EF3"
      stroke-width="3.08287"
      stroke-miterlimit="10"
    />
    <path
      d="M519.879 176.412H519.237L518.784 176.868C515.583 180.095 512.43 183.25 509.326 186.332L506.671 188.968H510.412H518.773H519.402L519.851 188.529C523.037 185.414 526.173 182.227 529.236 179.017L531.722 176.412H528.12H519.879ZM495.85 199.429H495.264L494.826 199.818C490.614 203.567 486.386 207.162 482.144 210.603L478.768 213.341H483.115H492.102H492.666L493.097 212.977C496.195 210.356 499.272 207.624 502.287 204.948C503.357 203.998 504.42 203.055 505.472 202.126L508.53 199.429H504.452H495.85Z"
      fill="white"
    />
    <path
      d="M519.879 176.412H519.237L518.784 176.868C515.583 180.095 512.43 183.25 509.326 186.332L506.671 188.968H510.412H518.773H519.402L519.851 188.529C523.037 185.414 526.173 182.227 529.236 179.017L531.722 176.412H528.12H519.879ZM495.85 199.429H495.264L494.826 199.818C490.614 203.567 486.386 207.162 482.144 210.603L478.768 213.341H483.115H492.102H492.666L493.097 212.977C496.195 210.356 499.272 207.624 502.287 204.948C503.357 203.998 504.42 203.055 505.472 202.126L508.53 199.429H504.452H495.85Z"
      fill="url(#paint2_linear_1653_1103)"
      fill-opacity="0.7"
    />
    <path
      d="M519.879 176.412H519.237L518.784 176.868C515.583 180.095 512.43 183.25 509.326 186.332L506.671 188.968H510.412H518.773H519.402L519.851 188.529C523.037 185.414 526.173 182.227 529.236 179.017L531.722 176.412H528.12H519.879ZM495.85 199.429H495.264L494.826 199.818C490.614 203.567 486.386 207.162 482.144 210.603L478.768 213.341H483.115H492.102H492.666L493.097 212.977C496.195 210.356 499.272 207.624 502.287 204.948C503.357 203.998 504.42 203.055 505.472 202.126L508.53 199.429H504.452H495.85Z"
      stroke="#322EF3"
      stroke-width="3.08287"
      stroke-miterlimit="10"
    />
    <path
      d="M573.058 126.229L573.059 126.228C585.412 108.961 594.71 93.5368 600.923 79.9633C607.122 66.4226 610.293 54.6349 610.302 44.6458C610.707 37.3107 608.232 30.1068 603.409 24.5928L603.375 24.554L603.339 24.5175C600.816 21.9952 597.795 20.0345 594.471 18.7632C591.16 17.4971 587.624 16.9431 584.088 17.137C565.991 17.1628 544.763 23.2174 520.45 35.1508L520.443 35.1544L520.435 35.158C494.817 48.0653 471.027 64.3727 449.701 83.6456C427.912 102.715 409.228 125.116 394.33 150.028L394.324 150.038L394.318 150.047L394.311 150.059C393.983 150.626 393.641 151.218 393.321 151.813C379.913 175.019 373.161 197.755 373.158 220.002C373.055 225.984 373.733 231.954 375.174 237.758L375.177 237.772L375.181 237.786C377.054 244.77 380.259 250.158 384.892 253.791C389.528 257.427 395.441 259.183 402.499 259.183C418.872 259.2 437.733 252.28 459.028 238.686L463.478 235.845H458.199H447.338H446.915L446.552 236.061C429.461 246.186 414.795 251.133 402.501 251.133H402.486L402.471 251.134C400.132 251.179 397.809 250.74 395.645 249.842C393.481 248.944 391.522 247.606 389.891 245.912L389.875 245.896L389.86 245.881C387.413 243.481 385.753 240.382 385.104 237L385.101 236.986L385.099 236.972C384.827 235.685 384.693 234.372 384.699 233.057V233.05C384.699 221.975 389.649 207.046 399.821 188.159L399.825 188.152L399.829 188.144C401.431 185.089 403.202 181.959 405.141 178.753L405.16 178.721L405.178 178.688C405.325 178.416 405.446 178.194 405.582 177.978L405.594 177.959L405.605 177.941C410.469 169.723 415.773 161.528 421.518 153.354C432.904 137.191 445.303 121.777 458.639 107.207L458.644 107.202L458.649 107.197C478.443 85.1566 500.668 65.4671 524.891 48.5104C547.7 32.8569 567.411 25.1866 584.083 25.1866H584.133L584.182 25.1834C586.454 25.0381 588.732 25.3825 590.862 26.1939C592.987 27.0029 594.918 28.2582 596.527 29.8771C599.372 32.9046 600.9 37.4956 600.9 43.8757C600.9 57.8534 593.814 76.5968 579.288 100.22C568.136 118.242 555.627 135.375 541.871 151.465L539.697 154.008H543.043H550.876H551.6L552.063 153.451C559.359 144.652 566.357 135.578 573.058 126.229Z"
      fill="white"
    />
    <path
      d="M573.058 126.229L573.059 126.228C585.412 108.961 594.71 93.5368 600.923 79.9633C607.122 66.4226 610.293 54.6349 610.302 44.6458C610.707 37.3107 608.232 30.1068 603.409 24.5928L603.375 24.554L603.339 24.5175C600.816 21.9952 597.795 20.0345 594.471 18.7632C591.16 17.4971 587.624 16.9431 584.088 17.137C565.991 17.1628 544.763 23.2174 520.45 35.1508L520.443 35.1544L520.435 35.158C494.817 48.0653 471.027 64.3727 449.701 83.6456C427.912 102.715 409.228 125.116 394.33 150.028L394.324 150.038L394.318 150.047L394.311 150.059C393.983 150.626 393.641 151.218 393.321 151.813C379.913 175.019 373.161 197.755 373.158 220.002C373.055 225.984 373.733 231.954 375.174 237.758L375.177 237.772L375.181 237.786C377.054 244.77 380.259 250.158 384.892 253.791C389.528 257.427 395.441 259.183 402.499 259.183C418.872 259.2 437.733 252.28 459.028 238.686L463.478 235.845H458.199H447.338H446.915L446.552 236.061C429.461 246.186 414.795 251.133 402.501 251.133H402.486L402.471 251.134C400.132 251.179 397.809 250.74 395.645 249.842C393.481 248.944 391.522 247.606 389.891 245.912L389.875 245.896L389.86 245.881C387.413 243.481 385.753 240.382 385.104 237L385.101 236.986L385.099 236.972C384.827 235.685 384.693 234.372 384.699 233.057V233.05C384.699 221.975 389.649 207.046 399.821 188.159L399.825 188.152L399.829 188.144C401.431 185.089 403.202 181.959 405.141 178.753L405.16 178.721L405.178 178.688C405.325 178.416 405.446 178.194 405.582 177.978L405.594 177.959L405.605 177.941C410.469 169.723 415.773 161.528 421.518 153.354C432.904 137.191 445.303 121.777 458.639 107.207L458.644 107.202L458.649 107.197C478.443 85.1566 500.668 65.4671 524.891 48.5104C547.7 32.8569 567.411 25.1866 584.083 25.1866H584.133L584.182 25.1834C586.454 25.0381 588.732 25.3825 590.862 26.1939C592.987 27.0029 594.918 28.2582 596.527 29.8771C599.372 32.9046 600.9 37.4956 600.9 43.8757C600.9 57.8534 593.814 76.5968 579.288 100.22C568.136 118.242 555.627 135.375 541.871 151.465L539.697 154.008H543.043H550.876H551.6L552.063 153.451C559.359 144.652 566.357 135.578 573.058 126.229Z"
      fill="url(#paint3_linear_1653_1103)"
      fill-opacity="0.7"
    />
    <path
      d="M573.058 126.229L573.059 126.228C585.412 108.961 594.71 93.5368 600.923 79.9633C607.122 66.4226 610.293 54.6349 610.302 44.6458C610.707 37.3107 608.232 30.1068 603.409 24.5928L603.375 24.554L603.339 24.5175C600.816 21.9952 597.795 20.0345 594.471 18.7632C591.16 17.4971 587.624 16.9431 584.088 17.137C565.991 17.1628 544.763 23.2174 520.45 35.1508L520.443 35.1544L520.435 35.158C494.817 48.0653 471.027 64.3727 449.701 83.6456C427.912 102.715 409.228 125.116 394.33 150.028L394.324 150.038L394.318 150.047L394.311 150.059C393.983 150.626 393.641 151.218 393.321 151.813C379.913 175.019 373.161 197.755 373.158 220.002C373.055 225.984 373.733 231.954 375.174 237.758L375.177 237.772L375.181 237.786C377.054 244.77 380.259 250.158 384.892 253.791C389.528 257.427 395.441 259.183 402.499 259.183C418.872 259.2 437.733 252.28 459.028 238.686L463.478 235.845H458.199H447.338H446.915L446.552 236.061C429.461 246.186 414.795 251.133 402.501 251.133H402.486L402.471 251.134C400.132 251.179 397.809 250.74 395.645 249.842C393.481 248.944 391.522 247.606 389.891 245.912L389.875 245.896L389.86 245.881C387.413 243.481 385.753 240.382 385.104 237L385.101 236.986L385.099 236.972C384.827 235.685 384.693 234.372 384.699 233.057V233.05C384.699 221.975 389.649 207.046 399.821 188.159L399.825 188.152L399.829 188.144C401.431 185.089 403.202 181.959 405.141 178.753L405.16 178.721L405.178 178.688C405.325 178.416 405.446 178.194 405.582 177.978L405.594 177.959L405.605 177.941C410.469 169.723 415.773 161.528 421.518 153.354C432.904 137.191 445.303 121.777 458.639 107.207L458.644 107.202L458.649 107.197C478.443 85.1566 500.668 65.4671 524.891 48.5104C547.7 32.8569 567.411 25.1866 584.083 25.1866H584.133L584.182 25.1834C586.454 25.0381 588.732 25.3825 590.862 26.1939C592.987 27.0029 594.918 28.2582 596.527 29.8771C599.372 32.9046 600.9 37.4956 600.9 43.8757C600.9 57.8534 593.814 76.5968 579.288 100.22C568.136 118.242 555.627 135.375 541.871 151.465L539.697 154.008H543.043H550.876H551.6L552.063 153.451C559.359 144.652 566.357 135.578 573.058 126.229Z"
      stroke="#322EF3"
      stroke-width="3.08287"
      stroke-miterlimit="10"
    />
    <path
      d="M693.311 221.025L692.507 217.265L690.491 220.54C689.701 221.823 689.207 223.268 689.046 224.768L688.5 229.829L691.762 225.921L693.42 223.934L693.967 223.278L693.7 222.465C693.545 221.993 693.415 221.512 693.311 221.025Z"
      fill="white"
    />
    <path
      d="M693.311 221.025L692.507 217.265L690.491 220.54C689.701 221.823 689.207 223.268 689.046 224.768L688.5 229.829L691.762 225.921L693.42 223.934L693.967 223.278L693.7 222.465C693.545 221.993 693.415 221.512 693.311 221.025Z"
      fill="url(#paint4_linear_1653_1103)"
      fill-opacity="0.7"
    />
    <path
      d="M693.311 221.025L692.507 217.265L690.491 220.54C689.701 221.823 689.207 223.268 689.046 224.768L688.5 229.829L691.762 225.921L693.42 223.934L693.967 223.278L693.7 222.465C693.545 221.993 693.415 221.512 693.311 221.025Z"
      stroke="#322EF3"
      stroke-width="3.08287"
      stroke-miterlimit="10"
    />
    <path
      d="M732.828 45.213L732.944 44.9309V44.6258V44.6016V43.0601H731.403H727.198H726.216L725.801 43.9502C713.244 70.8824 699.464 91.3555 684.5 105.456L682.875 106.986L684.882 107.963C686.576 108.788 688.347 109.441 690.169 109.911L691.016 110.13L691.638 109.516C708.187 93.1717 721.907 71.7201 732.828 45.213Z"
      fill="white"
    />
    <path
      d="M732.828 45.213L732.944 44.9309V44.6258V44.6016V43.0601H731.403H727.198H726.216L725.801 43.9502C713.244 70.8824 699.464 91.3555 684.5 105.456L682.875 106.986L684.882 107.963C686.576 108.788 688.347 109.441 690.169 109.911L691.016 110.13L691.638 109.516C708.187 93.1717 721.907 71.7201 732.828 45.213Z"
      fill="url(#paint5_linear_1653_1103)"
      fill-opacity="0.7"
    />
    <path
      d="M732.828 45.213L732.944 44.9309V44.6258V44.6016V43.0601H731.403H727.198H726.216L725.801 43.9502C713.244 70.8824 699.464 91.3555 684.5 105.456L682.875 106.986L684.882 107.963C686.576 108.788 688.347 109.441 690.169 109.911L691.016 110.13L691.638 109.516C708.187 93.1717 721.907 71.7201 732.828 45.213Z"
      stroke="#322EF3"
      stroke-width="3.08287"
      stroke-miterlimit="10"
    />
    <path
      d="M893.604 176.407L892.622 178.59C888.064 188.718 881.684 197.908 873.807 205.696C865.78 213.893 856.816 221.099 847.102 227.162C843.241 229.595 839.14 232.043 834.857 234.227C827.584 238.053 820.094 241.442 812.425 244.377L812.423 244.378C786.238 254.346 758.447 259.334 730.459 259.088C730.457 259.088 730.455 259.088 730.452 259.088L730.466 257.547C716.177 257.547 704.916 254.938 696.682 249.721L893.604 176.407ZM893.604 176.407L891.211 176.416L863.89 176.512L863.203 176.515L862.745 177.028C862.06 177.796 861.367 178.587 860.66 179.393C859.348 180.89 857.986 182.442 856.539 184.011L856.539 184.011C852.153 188.771 847.455 193.387 842.494 197.813M893.604 176.407L889.52 177.963L863.896 178.054C863.228 178.803 862.543 179.584 861.839 180.387C860.517 181.894 859.131 183.475 857.672 185.056C853.251 189.853 848.518 194.505 843.52 198.963M890.503 179.501C886.078 188.851 880.059 197.35 872.714 204.608C864.77 212.722 855.898 219.855 846.283 225.856C842.438 228.279 838.378 230.702 834.149 232.858C826.927 236.657 819.489 240.023 811.874 242.937L890.503 179.501ZM890.503 179.501L891.222 179.498L891.216 177.957L890.503 179.501ZM843.52 198.963L842.495 197.812C842.494 197.812 842.494 197.812 842.494 197.813M843.52 198.963C829.592 211.364 814.392 222.231 798.178 231.38L843.52 198.963ZM842.494 197.813C828.649 210.14 813.539 220.943 797.421 230.038L797.414 230.041L797.408 230.045C793.66 232.207 789.915 234.183 786.171 235.974L786.154 235.983L786.136 235.992C768.353 245.065 748.862 250.227 728.954 251.137L728.948 251.137C719.816 251.59 710.773 249.135 703.1 244.118L703.091 244.112C699.967 242.102 697.24 239.525 695.048 236.511M842.494 197.813L695.048 236.511M695.048 236.511C693.182 233.922 692.068 230.859 691.832 227.665C691.832 227.188 691.851 226.711 691.889 226.236C692.874 227.971 694.19 229.376 695.848 230.411C698.098 231.814 700.859 232.461 704.035 232.461H704.047L704.06 232.461C705.883 232.431 707.672 231.97 709.284 231.116C710.878 230.271 712.255 229.066 713.306 227.597C714.102 226.637 714.788 225.592 715.353 224.479C716.544 222.198 717.156 219.656 717.134 217.08C717.133 213.102 715.948 209.861 713.337 207.655C710.781 205.496 707.112 204.548 702.597 204.545C699.923 204.45 697.263 204.956 694.807 206.025C692.343 207.098 690.148 208.71 688.382 210.745L688.38 210.747C685.476 214.102 683.674 218.278 683.216 222.701C679.497 227.049 675.342 230.997 670.818 234.482C670.057 235.034 669.345 235.542 668.641 236L668.607 236.022L668.575 236.046C664.042 239.343 658.647 241.22 653.065 241.444C648.995 241.435 644.949 240.806 641.064 239.578L641.062 239.577C637.812 238.556 633.995 237.099 629.555 235.198C629.554 235.197 629.553 235.197 629.553 235.197L626.264 233.779C614.711 228.333 602.316 224.93 589.619 223.717C589.454 223.7 589.288 223.683 589.12 223.665C587.636 223.511 586.042 223.346 584.445 223.346H584.402L584.36 223.348C579.611 223.612 574.884 224.178 570.207 225.043M695.048 236.511L635.313 134.031C642.978 134.031 652.398 130.47 663.643 123.347C665.287 123.347 666.953 123.407 668.651 123.47C669.148 123.488 669.647 123.506 670.15 123.523C670.695 123.138 671.243 122.745 671.793 122.343L672.702 123.589L672.678 125.13C671.969 125.119 671.283 125.102 670.614 125.081C657.012 134.601 644.548 139.361 633.223 139.361M570.207 225.043C570.207 225.043 570.207 225.043 570.207 225.043L570.485 226.559L570.204 225.043C570.205 225.043 570.206 225.043 570.207 225.043ZM570.207 225.043C565.731 225.862 561.288 226.855 556.89 228.02M556.89 228.02C561.565 224.381 566.382 220.929 571.329 217.673M556.89 228.02C555.613 228.358 554.339 228.711 553.069 229.079C558.67 224.571 564.482 220.334 570.485 216.383M556.89 228.02C555.851 228.829 554.819 229.647 553.794 230.474L570.485 216.383M571.329 217.673C574.917 215.336 578.422 213.217 581.843 211.316L581.833 211.322L581.105 209.963M571.329 217.673C571.33 217.672 571.331 217.671 571.332 217.671L570.485 216.383M571.329 217.673C571.328 217.673 571.327 217.674 571.326 217.675L570.485 216.383M581.105 209.963L581.854 211.31L583.779 210.28L583.817 210.259L583.854 210.236C584.56 209.806 585.479 209.355 586.483 208.861C586.669 208.77 586.859 208.677 587.05 208.583L587.065 208.575L587.08 208.568C592.072 205.966 598.487 202.853 606.233 199.298L606.242 199.294C613.332 195.986 621.488 192.358 630.793 188.218C632.032 187.667 633.291 187.106 634.571 186.537L634.58 186.532C660.35 174.842 682.156 163.943 699.989 153.834L700.001 153.828L700.012 153.821L704.801 150.996C704.804 150.994 704.806 150.993 704.809 150.991C717.178 143.899 728.544 135.161 738.601 125.013L738.602 125.012C743.04 120.522 747.158 115.723 750.926 110.649L750.929 110.646C762.971 94.3406 769.281 74.4572 768.867 54.1353C768.865 44.3047 766.88 36.2219 762.772 30.0163L762.77 30.0139C762.044 28.9215 761.251 27.8755 760.396 26.8819L760.392 26.8763L760.387 26.8707C754.622 20.2993 746.283 17.1148 735.632 17.1148C720.889 17.1148 705.225 21.1462 688.658 29.129C686.538 30.0701 684.404 31.2276 682.314 32.3613C682.191 32.4283 682.067 32.4952 681.944 32.5619C663.347 42.4591 646.911 56.0208 633.611 72.4419L633.611 72.4421C621.419 87.4976 614.782 102.874 613.856 118.555C613.732 119.923 613.732 121.162 613.732 122.374V122.388C613.688 124.912 614.201 127.414 615.237 129.714C616.27 132.008 617.797 134.043 619.707 135.671C623.404 139.057 628.227 140.925 633.226 140.903C633.228 140.903 633.229 140.903 633.23 140.903L633.223 139.361M581.105 209.963C577.645 211.885 574.105 214.025 570.485 216.383M581.105 209.963L583.051 208.921L570.485 216.383M633.223 139.361C628.603 139.382 624.143 137.653 620.728 134.516L633.223 139.361ZM559.6 237.316C570.861 237.3 584.822 240.967 601.481 248.316C616.026 254.47 626.351 257.547 632.454 257.547C644.48 257.525 656.235 253.944 666.262 247.25L559.6 237.316ZM559.6 237.316C546.688 237.316 532.023 244.06 515.604 257.547L559.6 237.316ZM684.793 237.85C686.931 243.36 690.828 247.999 695.872 251.033L622.438 122.331C622.439 121.512 622.484 120.694 622.573 119.88L622.574 119.868C623.519 110.585 629.787 98.6232 641.792 83.9103C655.17 67.6639 670.943 53.5856 688.558 42.167L688.567 42.1609L688.576 42.1547C694.394 38.2619 700.495 34.8176 706.827 31.8513L706.846 31.8423L706.865 31.8328C715.865 27.3108 725.727 24.8049 735.776 24.4861C744.352 24.4908 749.734 26.9842 752.543 31.5077C754.29 34.5996 755.141 38.1256 754.997 41.6834L754.996 41.7002L754.996 41.7171C754.908 46.4045 754.125 51.0522 752.671 55.5051C748.845 66.8016 743.161 77.3676 735.857 86.7606L735.843 86.7788L735.829 86.7975C730.076 94.6731 723.887 102.216 717.293 109.39L717.287 109.396L717.282 109.402C713.084 114.067 708.669 118.544 704.105 122.856L704.097 122.864C700.247 126.553 696.269 130.115 692.164 133.549C685.728 138.884 677.724 144.773 668.141 151.214L668.138 151.216C651.284 162.605 629.568 175.827 602.98 190.886L602.969 190.893L597.058 194.309L597.056 194.31C587.176 200.035 578.024 205.519 569.598 210.762L569.595 210.763C554.949 219.919 542.46 228.348 532.134 236.051C523.671 242.209 515.705 249.033 508.312 256.459L505.695 259.088H509.404H515.604H516.156L516.582 258.738C532.89 245.342 547.212 238.858 559.6 238.858L559.602 238.858C570.556 238.842 584.289 242.417 600.859 249.726L600.87 249.731L600.881 249.735C608.184 252.825 614.458 255.156 619.693 256.716C624.907 258.27 629.181 259.088 632.454 259.088L632.457 259.088C644.786 259.066 656.837 255.395 667.115 248.534C671.638 245.54 675.894 242.156 679.834 238.418C681.148 237.205 682.461 235.931 683.778 234.595C684.052 235.692 684.389 236.773 684.786 237.833L684.789 237.841L684.793 237.85ZM584.445 224.887C585.957 224.887 587.47 225.044 588.965 225.199C589.132 225.216 589.3 225.233 589.467 225.251C601.997 226.447 614.229 229.807 625.63 235.184L628.946 236.614L584.445 224.887Z"
      fill="white"
    />
    <path
      d="M893.604 176.407L892.622 178.59C888.064 188.718 881.684 197.908 873.807 205.696C865.78 213.893 856.816 221.099 847.102 227.162C843.241 229.595 839.14 232.043 834.857 234.227C827.584 238.053 820.094 241.442 812.425 244.377L812.423 244.378C786.238 254.346 758.447 259.334 730.459 259.088C730.457 259.088 730.455 259.088 730.452 259.088L730.466 257.547C716.177 257.547 704.916 254.938 696.682 249.721L893.604 176.407ZM893.604 176.407L891.211 176.416L863.89 176.512L863.203 176.515L862.745 177.028C862.06 177.796 861.367 178.587 860.66 179.393C859.348 180.89 857.986 182.442 856.539 184.011L856.539 184.011C852.153 188.771 847.455 193.387 842.494 197.813M893.604 176.407L889.52 177.963L863.896 178.054C863.228 178.803 862.543 179.584 861.839 180.387C860.517 181.894 859.131 183.475 857.672 185.056C853.251 189.853 848.518 194.505 843.52 198.963M890.503 179.501C886.078 188.851 880.059 197.35 872.714 204.608C864.77 212.722 855.898 219.855 846.283 225.856C842.438 228.279 838.378 230.702 834.149 232.858C826.927 236.657 819.489 240.023 811.874 242.937L890.503 179.501ZM890.503 179.501L891.222 179.498L891.216 177.957L890.503 179.501ZM843.52 198.963L842.495 197.812C842.494 197.812 842.494 197.812 842.494 197.813M843.52 198.963C829.592 211.364 814.392 222.231 798.178 231.38L843.52 198.963ZM842.494 197.813C828.649 210.14 813.539 220.943 797.421 230.038L797.414 230.041L797.408 230.045C793.66 232.207 789.915 234.183 786.171 235.974L786.154 235.983L786.136 235.992C768.353 245.065 748.862 250.227 728.954 251.137L728.948 251.137C719.816 251.59 710.773 249.135 703.1 244.118L703.091 244.112C699.967 242.102 697.24 239.525 695.048 236.511M842.494 197.813L695.048 236.511M695.048 236.511C693.182 233.922 692.068 230.859 691.832 227.665C691.832 227.188 691.851 226.711 691.889 226.236C692.874 227.971 694.19 229.376 695.848 230.411C698.098 231.814 700.859 232.461 704.035 232.461H704.047L704.06 232.461C705.883 232.431 707.672 231.97 709.284 231.116C710.878 230.271 712.255 229.066 713.306 227.597C714.102 226.637 714.788 225.592 715.353 224.479C716.544 222.198 717.156 219.656 717.134 217.08C717.133 213.102 715.948 209.861 713.337 207.655C710.781 205.496 707.112 204.548 702.597 204.545C699.923 204.45 697.263 204.956 694.807 206.025C692.343 207.098 690.148 208.71 688.382 210.745L688.38 210.747C685.476 214.102 683.674 218.278 683.216 222.701C679.497 227.049 675.342 230.997 670.818 234.482C670.057 235.034 669.345 235.542 668.641 236L668.607 236.022L668.575 236.046C664.042 239.343 658.647 241.22 653.065 241.444C648.995 241.435 644.949 240.806 641.064 239.578L641.062 239.577C637.812 238.556 633.995 237.099 629.555 235.198C629.554 235.197 629.553 235.197 629.553 235.197L626.264 233.779C614.711 228.333 602.316 224.93 589.619 223.717C589.454 223.7 589.288 223.683 589.12 223.665C587.636 223.511 586.042 223.346 584.445 223.346H584.402L584.36 223.348C579.611 223.612 574.884 224.178 570.207 225.043M695.048 236.511L635.313 134.031C642.978 134.031 652.398 130.47 663.643 123.347C665.287 123.347 666.953 123.407 668.651 123.47C669.148 123.488 669.647 123.506 670.15 123.523C670.695 123.138 671.243 122.745 671.793 122.343L672.702 123.589L672.678 125.13C671.969 125.119 671.283 125.102 670.614 125.081C657.012 134.601 644.548 139.361 633.223 139.361M570.207 225.043C570.207 225.043 570.207 225.043 570.207 225.043L570.485 226.559L570.204 225.043C570.205 225.043 570.206 225.043 570.207 225.043ZM570.207 225.043C565.731 225.862 561.288 226.855 556.89 228.02M556.89 228.02C561.565 224.381 566.382 220.929 571.329 217.673M556.89 228.02C555.613 228.358 554.339 228.711 553.069 229.079C558.67 224.571 564.482 220.334 570.485 216.383M556.89 228.02C555.851 228.829 554.819 229.647 553.794 230.474L570.485 216.383M571.329 217.673C574.917 215.336 578.422 213.217 581.843 211.316L581.833 211.322L581.105 209.963M571.329 217.673C571.33 217.672 571.331 217.671 571.332 217.671L570.485 216.383M571.329 217.673C571.328 217.673 571.327 217.674 571.326 217.675L570.485 216.383M581.105 209.963L581.854 211.31L583.779 210.28L583.817 210.259L583.854 210.236C584.56 209.806 585.479 209.355 586.483 208.861C586.669 208.77 586.859 208.677 587.05 208.583L587.065 208.575L587.08 208.568C592.072 205.966 598.487 202.853 606.233 199.298L606.242 199.294C613.332 195.986 621.488 192.358 630.793 188.218C632.032 187.667 633.291 187.106 634.571 186.537L634.58 186.532C660.35 174.842 682.156 163.943 699.989 153.834L700.001 153.828L700.012 153.821L704.801 150.996C704.804 150.994 704.806 150.993 704.809 150.991C717.178 143.899 728.544 135.161 738.601 125.013L738.602 125.012C743.04 120.522 747.158 115.723 750.926 110.649L750.929 110.646C762.971 94.3406 769.281 74.4572 768.867 54.1353C768.865 44.3047 766.88 36.2219 762.772 30.0163L762.77 30.0139C762.044 28.9215 761.251 27.8755 760.396 26.8819L760.392 26.8763L760.387 26.8707C754.622 20.2993 746.283 17.1148 735.632 17.1148C720.889 17.1148 705.225 21.1462 688.658 29.129C686.538 30.0701 684.404 31.2276 682.314 32.3613C682.191 32.4283 682.067 32.4952 681.944 32.5619C663.347 42.4591 646.911 56.0208 633.611 72.4419L633.611 72.4421C621.419 87.4976 614.782 102.874 613.856 118.555C613.732 119.923 613.732 121.162 613.732 122.374V122.388C613.688 124.912 614.201 127.414 615.237 129.714C616.27 132.008 617.797 134.043 619.707 135.671C623.404 139.057 628.227 140.925 633.226 140.903C633.228 140.903 633.229 140.903 633.23 140.903L633.223 139.361M581.105 209.963C577.645 211.885 574.105 214.025 570.485 216.383M581.105 209.963L583.051 208.921L570.485 216.383M633.223 139.361C628.603 139.382 624.143 137.653 620.728 134.516L633.223 139.361ZM559.6 237.316C570.861 237.3 584.822 240.967 601.481 248.316C616.026 254.47 626.351 257.547 632.454 257.547C644.48 257.525 656.235 253.944 666.262 247.25L559.6 237.316ZM559.6 237.316C546.688 237.316 532.023 244.06 515.604 257.547L559.6 237.316ZM684.793 237.85C686.931 243.36 690.828 247.999 695.872 251.033L622.438 122.331C622.439 121.512 622.484 120.694 622.573 119.88L622.574 119.868C623.519 110.585 629.787 98.6232 641.792 83.9103C655.17 67.6639 670.943 53.5856 688.558 42.167L688.567 42.1609L688.576 42.1547C694.394 38.2619 700.495 34.8176 706.827 31.8513L706.846 31.8423L706.865 31.8328C715.865 27.3108 725.727 24.8049 735.776 24.4861C744.352 24.4908 749.734 26.9842 752.543 31.5077C754.29 34.5996 755.141 38.1256 754.997 41.6834L754.996 41.7002L754.996 41.7171C754.908 46.4045 754.125 51.0522 752.671 55.5051C748.845 66.8016 743.161 77.3676 735.857 86.7606L735.843 86.7788L735.829 86.7975C730.076 94.6731 723.887 102.216 717.293 109.39L717.287 109.396L717.282 109.402C713.084 114.067 708.669 118.544 704.105 122.856L704.097 122.864C700.247 126.553 696.269 130.115 692.164 133.549C685.728 138.884 677.724 144.773 668.141 151.214L668.138 151.216C651.284 162.605 629.568 175.827 602.98 190.886L602.969 190.893L597.058 194.309L597.056 194.31C587.176 200.035 578.024 205.519 569.598 210.762L569.595 210.763C554.949 219.919 542.46 228.348 532.134 236.051C523.671 242.209 515.705 249.033 508.312 256.459L505.695 259.088H509.404H515.604H516.156L516.582 258.738C532.89 245.342 547.212 238.858 559.6 238.858L559.602 238.858C570.556 238.842 584.289 242.417 600.859 249.726L600.87 249.731L600.881 249.735C608.184 252.825 614.458 255.156 619.693 256.716C624.907 258.27 629.181 259.088 632.454 259.088L632.457 259.088C644.786 259.066 656.837 255.395 667.115 248.534C671.638 245.54 675.894 242.156 679.834 238.418C681.148 237.205 682.461 235.931 683.778 234.595C684.052 235.692 684.389 236.773 684.786 237.833L684.789 237.841L684.793 237.85ZM584.445 224.887C585.957 224.887 587.47 225.044 588.965 225.199C589.132 225.216 589.3 225.233 589.467 225.251C601.997 226.447 614.229 229.807 625.63 235.184L628.946 236.614L584.445 224.887Z"
      fill="url(#paint6_linear_1653_1103)"
      fill-opacity="0.7"
    />
    <path
      d="M893.604 176.407L892.622 178.59C888.064 188.718 881.684 197.908 873.807 205.696C865.78 213.893 856.816 221.099 847.102 227.162C843.241 229.595 839.14 232.043 834.857 234.227C827.584 238.053 820.094 241.442 812.425 244.377L812.423 244.378C786.238 254.346 758.447 259.334 730.459 259.088C730.457 259.088 730.455 259.088 730.452 259.088L730.466 257.547C716.177 257.547 704.916 254.938 696.682 249.721L893.604 176.407ZM893.604 176.407L891.211 176.416L863.89 176.512L863.203 176.515L862.745 177.028C862.06 177.796 861.367 178.587 860.66 179.393C859.348 180.89 857.986 182.442 856.539 184.011L856.539 184.011C852.153 188.771 847.455 193.387 842.494 197.813M893.604 176.407L889.52 177.963L863.896 178.054C863.228 178.803 862.543 179.584 861.839 180.387C860.517 181.894 859.131 183.475 857.672 185.056C853.251 189.853 848.518 194.505 843.52 198.963M890.503 179.501C886.078 188.851 880.059 197.35 872.714 204.608C864.77 212.722 855.898 219.855 846.283 225.856C842.438 228.279 838.378 230.702 834.149 232.858C826.927 236.657 819.489 240.023 811.874 242.937L890.503 179.501ZM890.503 179.501L891.222 179.498L891.216 177.957L890.503 179.501ZM843.52 198.963L842.495 197.812C842.494 197.812 842.494 197.812 842.494 197.813M843.52 198.963C829.592 211.364 814.392 222.231 798.178 231.38L843.52 198.963ZM842.494 197.813C828.649 210.14 813.539 220.943 797.421 230.038L797.414 230.041L797.408 230.045C793.66 232.207 789.915 234.183 786.171 235.974L786.154 235.983L786.136 235.992C768.353 245.065 748.862 250.227 728.954 251.137L728.948 251.137C719.816 251.59 710.773 249.135 703.1 244.118L703.091 244.112C699.967 242.102 697.24 239.525 695.048 236.511M842.494 197.813L695.048 236.511M695.048 236.511C693.182 233.922 692.068 230.859 691.832 227.665C691.832 227.188 691.851 226.711 691.889 226.236C692.874 227.971 694.19 229.376 695.848 230.411C698.098 231.814 700.859 232.461 704.035 232.461H704.047L704.06 232.461C705.883 232.431 707.672 231.97 709.284 231.116C710.878 230.271 712.255 229.066 713.306 227.597C714.102 226.637 714.788 225.592 715.353 224.479C716.544 222.198 717.156 219.656 717.134 217.08C717.133 213.102 715.948 209.861 713.337 207.655C710.781 205.496 707.112 204.548 702.597 204.545C699.923 204.45 697.263 204.956 694.807 206.025C692.343 207.098 690.148 208.71 688.382 210.745L688.38 210.747C685.476 214.102 683.674 218.278 683.216 222.701C679.497 227.049 675.342 230.997 670.818 234.482C670.057 235.034 669.345 235.542 668.641 236L668.607 236.022L668.575 236.046C664.042 239.343 658.647 241.22 653.065 241.444C648.995 241.435 644.949 240.806 641.064 239.578L641.062 239.577C637.812 238.556 633.995 237.099 629.555 235.198C629.554 235.197 629.553 235.197 629.553 235.197L626.264 233.779C614.711 228.333 602.316 224.93 589.619 223.717C589.454 223.7 589.288 223.683 589.12 223.665C587.636 223.511 586.042 223.346 584.445 223.346H584.402L584.36 223.348C579.611 223.612 574.884 224.178 570.207 225.043M695.048 236.511L635.313 134.031C642.978 134.031 652.398 130.47 663.643 123.347C665.287 123.347 666.953 123.407 668.651 123.47C669.148 123.488 669.647 123.506 670.15 123.523C670.695 123.138 671.243 122.745 671.793 122.343L672.702 123.589L672.678 125.13C671.969 125.119 671.283 125.102 670.614 125.081C657.012 134.601 644.548 139.361 633.223 139.361M570.207 225.043C570.207 225.043 570.207 225.043 570.207 225.043L570.485 226.559L570.204 225.043C570.205 225.043 570.206 225.043 570.207 225.043ZM570.207 225.043C565.731 225.862 561.288 226.855 556.89 228.02M556.89 228.02C561.565 224.381 566.382 220.929 571.329 217.673M556.89 228.02C555.613 228.358 554.339 228.711 553.069 229.079C558.67 224.571 564.482 220.334 570.485 216.383M556.89 228.02C555.851 228.829 554.819 229.647 553.794 230.474L570.485 216.383M571.329 217.673C574.917 215.336 578.422 213.217 581.843 211.316L581.833 211.322L581.105 209.963M571.329 217.673C571.33 217.672 571.331 217.671 571.332 217.671L570.485 216.383M571.329 217.673C571.328 217.673 571.327 217.674 571.326 217.675L570.485 216.383M581.105 209.963L581.854 211.31L583.779 210.28L583.817 210.259L583.854 210.236C584.56 209.806 585.479 209.355 586.483 208.861C586.669 208.77 586.859 208.677 587.05 208.583L587.065 208.575L587.08 208.568C592.072 205.966 598.487 202.853 606.233 199.298L606.242 199.294C613.332 195.986 621.488 192.358 630.793 188.218C632.032 187.667 633.291 187.106 634.571 186.537L634.58 186.532C660.35 174.842 682.156 163.943 699.989 153.834L700.001 153.828L700.012 153.821L704.801 150.996C704.804 150.994 704.806 150.993 704.809 150.991C717.178 143.899 728.544 135.161 738.601 125.013L738.602 125.012C743.04 120.522 747.158 115.723 750.926 110.649L750.929 110.646C762.971 94.3406 769.281 74.4572 768.867 54.1353C768.865 44.3047 766.88 36.2219 762.772 30.0163L762.77 30.0139C762.044 28.9215 761.251 27.8755 760.396 26.8819L760.392 26.8763L760.387 26.8707C754.622 20.2993 746.283 17.1148 735.632 17.1148C720.889 17.1148 705.225 21.1462 688.658 29.129C686.538 30.0701 684.404 31.2276 682.314 32.3613C682.191 32.4283 682.067 32.4952 681.944 32.5619C663.347 42.4591 646.911 56.0208 633.611 72.4419L633.611 72.4421C621.419 87.4976 614.782 102.874 613.856 118.555C613.732 119.923 613.732 121.162 613.732 122.374V122.388C613.688 124.912 614.201 127.414 615.237 129.714C616.27 132.008 617.797 134.043 619.707 135.671C623.404 139.057 628.227 140.925 633.226 140.903C633.228 140.903 633.229 140.903 633.23 140.903L633.223 139.361M581.105 209.963C577.645 211.885 574.105 214.025 570.485 216.383M581.105 209.963L583.051 208.921L570.485 216.383M633.223 139.361C628.603 139.382 624.143 137.653 620.728 134.516L633.223 139.361ZM559.6 237.316C570.861 237.3 584.822 240.967 601.481 248.316C616.026 254.47 626.351 257.547 632.454 257.547C644.48 257.525 656.235 253.944 666.262 247.25L559.6 237.316ZM559.6 237.316C546.688 237.316 532.023 244.06 515.604 257.547L559.6 237.316ZM684.793 237.85C686.931 243.36 690.828 247.999 695.872 251.033L622.438 122.331C622.439 121.512 622.484 120.694 622.573 119.88L622.574 119.868C623.519 110.585 629.787 98.6232 641.792 83.9103C655.17 67.6639 670.943 53.5856 688.558 42.167L688.567 42.1609L688.576 42.1547C694.394 38.2619 700.495 34.8176 706.827 31.8513L706.846 31.8423L706.865 31.8328C715.865 27.3108 725.727 24.8049 735.776 24.4861C744.352 24.4908 749.734 26.9842 752.543 31.5077C754.29 34.5996 755.141 38.1256 754.997 41.6834L754.996 41.7002L754.996 41.7171C754.908 46.4045 754.125 51.0522 752.671 55.5051C748.845 66.8016 743.161 77.3676 735.857 86.7606L735.843 86.7788L735.829 86.7975C730.076 94.6731 723.887 102.216 717.293 109.39L717.287 109.396L717.282 109.402C713.084 114.067 708.669 118.544 704.105 122.856L704.097 122.864C700.247 126.553 696.269 130.115 692.164 133.549C685.728 138.884 677.724 144.773 668.141 151.214L668.138 151.216C651.284 162.605 629.568 175.827 602.98 190.886L602.969 190.893L597.058 194.309L597.056 194.31C587.176 200.035 578.024 205.519 569.598 210.762L569.595 210.763C554.949 219.919 542.46 228.348 532.134 236.051C523.671 242.209 515.705 249.033 508.312 256.459L505.695 259.088H509.404H515.604H516.156L516.582 258.738C532.89 245.342 547.212 238.858 559.6 238.858L559.602 238.858C570.556 238.842 584.289 242.417 600.859 249.726L600.87 249.731L600.881 249.735C608.184 252.825 614.458 255.156 619.693 256.716C624.907 258.27 629.181 259.088 632.454 259.088L632.457 259.088C644.786 259.066 656.837 255.395 667.115 248.534C671.638 245.54 675.894 242.156 679.834 238.418C681.148 237.205 682.461 235.931 683.778 234.595C684.052 235.692 684.389 236.773 684.786 237.833L684.789 237.841L684.793 237.85ZM584.445 224.887C585.957 224.887 587.47 225.044 588.965 225.199C589.132 225.216 589.3 225.233 589.467 225.251C601.997 226.447 614.229 229.807 625.63 235.184L628.946 236.614L584.445 224.887Z"
      stroke="#322EF3"
      stroke-width="3.08287"
      stroke-miterlimit="10"
    />
    <path
      d="M870.853 125.901C877.479 126.727 882.939 128.802 887.144 132.219C892.782 136.8 895.943 143.613 896.789 152.42L896.951 154.109H895.254H880.333H878.105L878.89 152.024C879.725 149.808 880.179 147.465 880.233 145.094L880.234 145.083L880.234 145.071C880.296 143.435 879.947 141.811 879.222 140.348C878.496 138.885 877.418 137.631 876.086 136.702L876.055 136.68L876.024 136.656C873.317 134.557 870 133.419 866.588 133.418L870.853 125.901ZM870.853 125.901L875.999 123.86L876.005 123.858C877.043 123.442 878.068 123.032 879.081 122.627C882.182 121.388 885.165 120.196 888.035 119.006C888.035 119.006 888.036 119.006 888.036 119.006L887.445 117.582L870.853 125.901ZM812.972 150.064L812.639 148.101L811.918 143.861L811.711 142.644L812.854 142.176C836.513 132.498 856.171 123.468 871.839 115.087C872.616 114.664 873.337 114.277 874.049 113.896C874.801 113.493 875.542 113.095 876.327 112.667L876.328 112.666C888.936 105.807 900.836 97.7001 911.853 88.4653L911.861 88.4588L911.868 88.4524C924.132 78.4428 933.261 69.2805 939.314 60.9676C945.376 52.6414 948.257 45.2963 948.257 38.8884V38.8645L948.258 38.8407C948.337 36.2995 947.59 33.803 946.135 31.7306L946.127 31.7198C945.442 30.726 944.61 29.8441 943.661 29.1045L943.643 29.0905L943.626 29.0761C940.522 26.5066 936.622 25.1232 932.611 25.1659L932.598 25.1661L932.586 25.166C916.016 25.0708 899.672 29.0432 884.964 36.741L884.948 36.7494L884.932 36.7574C871.91 43.1869 860.164 51.9659 850.276 62.6609L850.257 62.6807L850.238 62.6999C850.072 62.8678 849.934 63.0233 849.772 63.2067C849.685 63.3055 849.59 63.4124 849.48 63.5336C845.074 68.6255 841.811 73.1219 839.657 77.029C837.504 80.9324 836.521 84.135 836.509 86.6904C836.579 87.7072 836.908 88.6882 837.462 89.5392C838.024 90.4031 838.799 91.1029 839.709 91.5708L839.791 91.6132L839.868 91.6651C842.327 93.3295 845.228 94.1999 848.187 94.1623L848.192 94.1622C851.728 94.1285 855.249 93.6972 858.69 92.8764C868.799 90.1824 878.296 85.5423 886.659 79.2109L886.677 79.1969L886.696 79.1835C900.493 69.3743 911.939 56.5758 920.194 41.7252L920.635 40.9327H921.541H926.467H929.065L927.82 43.2127C918.789 59.7578 906.194 74.0523 890.96 85.0444C882.024 91.8978 871.916 97.0388 861.137 100.211L861.123 100.215L861.108 100.219C856.372 101.515 851.489 102.185 846.581 102.212L846.573 102.212L845.996 102.212H845.984L845.973 102.212C840.404 102.127 835.956 100.626 832.917 97.4547C829.885 94.2915 828.5 89.7222 828.5 84.0256C828.5 73.5327 833.564 63.0551 843.333 52.6145L843.338 52.6092L844.299 51.5916L844.311 51.5781L844.324 51.565C854.77 41.0246 867.185 32.677 880.852 27.006C895.014 20.6762 910.312 17.3352 925.804 17.1891L925.811 17.189H925.818C940.75 17.189 951.504 21.2974 957.506 29.9672L957.519 29.986L957.531 30.0051C961.086 35.4799 962.969 41.8851 962.946 48.4262C962.97 48.9558 962.97 49.4346 962.97 49.8997V49.9122C962.97 61.3671 958.518 72.0403 949.775 81.8987L812.972 150.064ZM812.972 150.064L814.789 149.249M812.972 150.064L814.789 149.249M814.789 149.249C838.525 138.607 855.735 133.418 866.588 133.418L814.789 149.249Z"
      fill="white"
    />
    <path
      d="M870.853 125.901C877.479 126.727 882.939 128.802 887.144 132.219C892.782 136.8 895.943 143.613 896.789 152.42L896.951 154.109H895.254H880.333H878.105L878.89 152.024C879.725 149.808 880.179 147.465 880.233 145.094L880.234 145.083L880.234 145.071C880.296 143.435 879.947 141.811 879.222 140.348C878.496 138.885 877.418 137.631 876.086 136.702L876.055 136.68L876.024 136.656C873.317 134.557 870 133.419 866.588 133.418L870.853 125.901ZM870.853 125.901L875.999 123.86L876.005 123.858C877.043 123.442 878.068 123.032 879.081 122.627C882.182 121.388 885.165 120.196 888.035 119.006C888.035 119.006 888.036 119.006 888.036 119.006L887.445 117.582L870.853 125.901ZM812.972 150.064L812.639 148.101L811.918 143.861L811.711 142.644L812.854 142.176C836.513 132.498 856.171 123.468 871.839 115.087C872.616 114.664 873.337 114.277 874.049 113.896C874.801 113.493 875.542 113.095 876.327 112.667L876.328 112.666C888.936 105.807 900.836 97.7001 911.853 88.4653L911.861 88.4588L911.868 88.4524C924.132 78.4428 933.261 69.2805 939.314 60.9676C945.376 52.6414 948.257 45.2963 948.257 38.8884V38.8645L948.258 38.8407C948.337 36.2995 947.59 33.803 946.135 31.7306L946.127 31.7198C945.442 30.726 944.61 29.8441 943.661 29.1045L943.643 29.0905L943.626 29.0761C940.522 26.5066 936.622 25.1232 932.611 25.1659L932.598 25.1661L932.586 25.166C916.016 25.0708 899.672 29.0432 884.964 36.741L884.948 36.7494L884.932 36.7574C871.91 43.1869 860.164 51.9659 850.276 62.6609L850.257 62.6807L850.238 62.6999C850.072 62.8678 849.934 63.0233 849.772 63.2067C849.685 63.3055 849.59 63.4124 849.48 63.5336C845.074 68.6255 841.811 73.1219 839.657 77.029C837.504 80.9324 836.521 84.135 836.509 86.6904C836.579 87.7072 836.908 88.6882 837.462 89.5392C838.024 90.4031 838.799 91.1029 839.709 91.5708L839.791 91.6132L839.868 91.6651C842.327 93.3295 845.228 94.1999 848.187 94.1623L848.192 94.1622C851.728 94.1285 855.249 93.6972 858.69 92.8764C868.799 90.1824 878.296 85.5423 886.659 79.2109L886.677 79.1969L886.696 79.1835C900.493 69.3743 911.939 56.5758 920.194 41.7252L920.635 40.9327H921.541H926.467H929.065L927.82 43.2127C918.789 59.7578 906.194 74.0523 890.96 85.0444C882.024 91.8978 871.916 97.0388 861.137 100.211L861.123 100.215L861.108 100.219C856.372 101.515 851.489 102.185 846.581 102.212L846.573 102.212L845.996 102.212H845.984L845.973 102.212C840.404 102.127 835.956 100.626 832.917 97.4547C829.885 94.2915 828.5 89.7222 828.5 84.0256C828.5 73.5327 833.564 63.0551 843.333 52.6145L843.338 52.6092L844.299 51.5916L844.311 51.5781L844.324 51.565C854.77 41.0246 867.185 32.677 880.852 27.006C895.014 20.6762 910.312 17.3352 925.804 17.1891L925.811 17.189H925.818C940.75 17.189 951.504 21.2974 957.506 29.9672L957.519 29.986L957.531 30.0051C961.086 35.4799 962.969 41.8851 962.946 48.4262C962.97 48.9558 962.97 49.4346 962.97 49.8997V49.9122C962.97 61.3671 958.518 72.0403 949.775 81.8987L812.972 150.064ZM812.972 150.064L814.789 149.249M812.972 150.064L814.789 149.249M814.789 149.249C838.525 138.607 855.735 133.418 866.588 133.418L814.789 149.249Z"
      fill="url(#paint7_linear_1653_1103)"
      fill-opacity="0.7"
    />
    <path
      d="M870.853 125.901C877.479 126.727 882.939 128.802 887.144 132.219C892.782 136.8 895.943 143.613 896.789 152.42L896.951 154.109H895.254H880.333H878.105L878.89 152.024C879.725 149.808 880.179 147.465 880.233 145.094L880.234 145.083L880.234 145.071C880.296 143.435 879.947 141.811 879.222 140.348C878.496 138.885 877.418 137.631 876.086 136.702L876.055 136.68L876.024 136.656C873.317 134.557 870 133.419 866.588 133.418L870.853 125.901ZM870.853 125.901L875.999 123.86L876.005 123.858C877.043 123.442 878.068 123.032 879.081 122.627C882.182 121.388 885.165 120.196 888.035 119.006C888.035 119.006 888.036 119.006 888.036 119.006L887.445 117.582L870.853 125.901ZM812.972 150.064L812.639 148.101L811.918 143.861L811.711 142.644L812.854 142.176C836.513 132.498 856.171 123.468 871.839 115.087C872.616 114.664 873.337 114.277 874.049 113.896C874.801 113.493 875.542 113.095 876.327 112.667L876.328 112.666C888.936 105.807 900.836 97.7001 911.853 88.4653L911.861 88.4588L911.868 88.4524C924.132 78.4428 933.261 69.2805 939.314 60.9676C945.376 52.6414 948.257 45.2963 948.257 38.8884V38.8645L948.258 38.8407C948.337 36.2995 947.59 33.803 946.135 31.7306L946.127 31.7198C945.442 30.726 944.61 29.8441 943.661 29.1045L943.643 29.0905L943.626 29.0761C940.522 26.5066 936.622 25.1232 932.611 25.1659L932.598 25.1661L932.586 25.166C916.016 25.0708 899.672 29.0432 884.964 36.741L884.948 36.7494L884.932 36.7574C871.91 43.1869 860.164 51.9659 850.276 62.6609L850.257 62.6807L850.238 62.6999C850.072 62.8678 849.934 63.0233 849.772 63.2067C849.685 63.3055 849.59 63.4124 849.48 63.5336C845.074 68.6255 841.811 73.1219 839.657 77.029C837.504 80.9324 836.521 84.135 836.509 86.6904C836.579 87.7072 836.908 88.6882 837.462 89.5392C838.024 90.4031 838.799 91.1029 839.709 91.5708L839.791 91.6132L839.868 91.6651C842.327 93.3295 845.228 94.1999 848.187 94.1623L848.192 94.1622C851.728 94.1285 855.249 93.6972 858.69 92.8764C868.799 90.1824 878.296 85.5423 886.659 79.2109L886.677 79.1969L886.696 79.1835C900.493 69.3743 911.939 56.5758 920.194 41.7252L920.635 40.9327H921.541H926.467H929.065L927.82 43.2127C918.789 59.7578 906.194 74.0523 890.96 85.0444C882.024 91.8978 871.916 97.0388 861.137 100.211L861.123 100.215L861.108 100.219C856.372 101.515 851.489 102.185 846.581 102.212L846.573 102.212L845.996 102.212H845.984L845.973 102.212C840.404 102.127 835.956 100.626 832.917 97.4547C829.885 94.2915 828.5 89.7222 828.5 84.0256C828.5 73.5327 833.564 63.0551 843.333 52.6145L843.338 52.6092L844.299 51.5916L844.311 51.5781L844.324 51.565C854.77 41.0246 867.185 32.677 880.852 27.006C895.014 20.6762 910.312 17.3352 925.804 17.1891L925.811 17.189H925.818C940.75 17.189 951.504 21.2974 957.506 29.9672L957.519 29.986L957.531 30.0051C961.086 35.4799 962.969 41.8851 962.946 48.4262C962.97 48.9558 962.97 49.4346 962.97 49.8997V49.9122C962.97 61.3671 958.518 72.0403 949.775 81.8987L812.972 150.064ZM812.972 150.064L814.789 149.249M812.972 150.064L814.789 149.249M814.789 149.249C838.525 138.607 855.735 133.418 866.588 133.418L814.789 149.249Z"
      stroke="#322EF3"
      stroke-width="3.08287"
      stroke-miterlimit="10"
    />
    <path
      d="M1004.25 95.5039C1004.25 95.8745 1004.22 96.267 1003.79 96.267"
      stroke="#3834F3"
      stroke-width="1.89298"
      stroke-linecap="round"
    />
    <path
      d="M976 110.383C976.121 109.296 978.378 104.362 978.916 103.396C979.723 101.948 980.675 100.485 982.045 99.4709C982.586 99.0703 983.228 98.9718 983.783 98.5976C984.801 97.9112 985.741 97.1432 986.716 96.4017C988.527 95.0256 991.214 94.5547 993.431 94.1211C995.158 93.7834 997.067 93.2521 998.84 93.2054C999.592 93.1856 1000.34 93.0886 1001.09 93.0613C1001.53 93.0451 1002.23 93.2331 1002.54 92.8408C1003.47 91.6571 1005.17 89.8567 1006.84 90.0091C1008.73 90.1806 1008.37 91.6881 1008.37 93.1376C1008.37 93.635 1008.37 94.1324 1008.37 94.6298C1008.37 94.6823 1008.48 94.2108 1008.64 94.3076C1009.32 94.7136 1009.11 95.3632 1010.13 95.4946C1011.65 95.6915 1012.17 96.4113 1012.89 97.665C1013.3 98.3741 1013.62 99.1356 1013.95 99.8863C1014.09 100.222 1014.44 100.467 1014.47 100.836C1014.53 101.405 1014.94 101.888 1014.08 101.904C1013.28 101.92 1012.61 102.21 1011.83 102.337C1010.9 102.487 1009.87 102.362 1008.93 102.362C1008.14 102.362 1007.34 102.476 1006.54 102.515C1006.12 102.535 1005.84 103.28 1005.69 103.583C1005.56 103.836 1005.18 105.255 1005.57 105.397C1005.99 105.549 1006.51 105.274 1006.93 105.482C1007.14 105.59 1007.45 106.107 1007.57 106.33C1007.93 106.98 1008.38 108.638 1007.91 109.229C1007.26 110.043 1007.14 110.243 1006.02 110.383C1004.44 110.58 1002.86 110.756 1001.27 110.756C1000.37 110.756 999.735 110.348 998.908 110.111C998.004 109.853 997.274 109.204 996.543 108.619C996.086 108.254 996.009 107.253 996.009 106.72C996.009 106.284 996.443 106.009 996.704 105.719C996.909 105.491 996.16 109.483 996.049 109.583C995.447 110.117 995.301 109.69 994.65 110.111C994.446 110.243 993.922 111.093 993.922 110.383C993.922 109.977 993.43 110.543 992.337 110.383C991.985 110.331 992.218 106.157 992.193 106.669C992.179 106.978 992.253 107.882 992.337 107.585C992.633 106.549 991.508 104.812 990.752 104.227C989.807 103.496 988.48 103.815 987.386 103.659C986.555 103.54 985.707 103.583 984.868 103.583"
      stroke="#3834F3"
      stroke-width="1.89298"
      stroke-linecap="round"
    />
  </g>
  <defs>
    <linearGradient
      id="paint0_linear_1653_1103"
      x1="425.145"
      y1="248.419"
      x2="425.523"
      y2="209.617"
      gradientUnits="userSpaceOnUse"
    >
      <stop offset="0.0476673" stop-color="#FF2A0D" />
      <stop offset="0.733837" stop-color="#FFFEDF" />
    </linearGradient>
    <linearGradient
      id="paint1_linear_1653_1103"
      x1="270.298"
      y1="358.994"
      x2="299.892"
      y2="8.04359"
      gradientUnits="userSpaceOnUse"
    >
      <stop offset="0.0476673" stop-color="#FF2A0D" />
      <stop offset="0.733837" stop-color="#FFFEDF" />
    </linearGradient>
    <linearGradient
      id="paint2_linear_1653_1103"
      x1="501.513"
      y1="226.15"
      x2="504.926"
      y2="176.327"
      gradientUnits="userSpaceOnUse"
    >
      <stop offset="0.0476673" stop-color="#FF2A0D" />
      <stop offset="0.733837" stop-color="#FFFEDF" />
    </linearGradient>
    <linearGradient
      id="paint3_linear_1653_1103"
      x1="470.392"
      y1="358.974"
      x2="502.979"
      y2="8.53877"
      gradientUnits="userSpaceOnUse"
    >
      <stop offset="0.0476673" stop-color="#FF2A0D" />
      <stop offset="0.733837" stop-color="#FFFEDF" />
    </linearGradient>
    <linearGradient
      id="paint4_linear_1653_1103"
      x1="691.256"
      y1="226.454"
      x2="692.262"
      y2="221.349"
      gradientUnits="userSpaceOnUse"
    >
      <stop offset="0.0476673" stop-color="#FF2A0D" />
      <stop offset="0.733837" stop-color="#FFFEDF" />
    </linearGradient>
    <linearGradient
      id="paint5_linear_1653_1103"
      x1="704.298"
      y1="135.476"
      x2="716.076"
      y2="42.5884"
      gradientUnits="userSpaceOnUse"
    >
      <stop offset="0.0476673" stop-color="#FF2A0D" />
      <stop offset="0.733837" stop-color="#FFFEDF" />
    </linearGradient>
    <linearGradient
      id="paint6_linear_1653_1103"
      x1="665.483"
      y1="358.844"
      x2="685.555"
      y2="6.67358"
      gradientUnits="userSpaceOnUse"
    >
      <stop offset="0.0476673" stop-color="#FF2A0D" />
      <stop offset="0.733837" stop-color="#FFFEDF" />
    </linearGradient>
    <linearGradient
      id="paint7_linear_1653_1103"
      x1="873.934"
      y1="209.312"
      x2="890.13"
      y2="12.7108"
      gradientUnits="userSpaceOnUse"
    >
      <stop offset="0.0476673" stop-color="#FF2A0D" />
      <stop offset="0.733837" stop-color="#FFFEDF" />
    </linearGradient>
    <clipPath id="clip0_1653_1103">
      <rect width="1129" height="259" fill="white" />
    </clipPath>
  </defs>
</svg>
