<svg width="100%"  viewBox="0 0 1000 245" fill="none" xmlns="http://www.w3.org/2000/svg">
<path d="M127.631 58.6726V66.1275H230.234V76.832H127.631V105.505H57.8184V38.6016H267.218V58.6726H127.631Z" fill="#322EF3" stroke="#322EF3" stroke-width="1.5" stroke-miterlimit="10"/>
<path d="M487.298 105.141L487.086 105.466H487.856L487.298 105.141Z" fill="#322EF3" stroke="#322EF3" stroke-width="1.5" stroke-miterlimit="10"/>
<path d="M392.43 78.3789C387.222 82.9666 382.296 87.6689 377.652 92.486L371.148 89.0834H361.854C363.746 85.6658 365.317 82.0825 366.549 78.3789H392.43Z" fill="#322EF3" stroke="#322EF3" stroke-width="1.5" stroke-miterlimit="10"/>
<path d="M450.14 39.5348L449.216 39.9744C437.87 45.5218 426.994 51.9719 416.696 59.2617C415.58 50.6407 410.192 49.3409 393.47 49.3409H370.186C369.92 45.624 369.001 41.9819 367.473 38.579H406.805C424.874 38.5599 439.017 38.8466 450.14 39.5348Z" fill="#322EF3" stroke="#322EF3" stroke-width="1.5" stroke-miterlimit="10"/>
<path d="M456.433 87.3429L487.222 105.139L487.01 105.464H402.342L393.086 100.628C394.799 98.7165 396.53 96.8049 398.32 94.8934C414.24 77.4199 432.117 61.8099 451.603 48.3669C455.824 45.5251 459.91 43.0083 463.861 40.8164C487.433 43.9322 490.243 50.8328 490.243 64.5575C490.262 77.9191 483.623 84.533 456.433 87.3429Z" fill="#322EF3" stroke="#322EF3" stroke-width="1.5" stroke-miterlimit="10"/>
<path d="M347.173 49.3244V78.3795H347.577L346.211 80.2911C339.596 89.2417 332.28 97.6595 324.332 105.466H298.931C300.663 104.128 302.395 102.694 304.165 101.165C319.405 87.8989 331.9 69.6056 341.65 46.2851H338.263C326.654 70.931 313.671 88.8483 299.316 100.037C296.75 102.025 294.287 103.835 291.927 105.466H277.398V38.5625H361.027C361.528 40.3414 361.767 42.1826 361.739 44.0295C361.741 45.8036 361.593 47.5748 361.297 49.3244H347.173Z" fill="#322EF3" stroke="#322EF3" stroke-width="1.5" stroke-miterlimit="10"/>
<path d="M514.334 45.7089C514.334 56.3242 509.267 70.0999 499.132 87.036C497.479 82.111 496.723 76.9325 496.9 71.7438C496.9 56.6237 501.23 47.6586 514.219 42.3828C514.333 43.4877 514.371 44.5989 514.334 45.7089Z" fill="#322EF3" stroke="#322EF3" stroke-width="1.5" stroke-miterlimit="10"/>
<path d="M583.897 35.1953C582.146 36.0364 580.375 36.9157 578.586 37.8714C563.844 45.5808 550.81 56.1499 540.254 68.9528C530.62 80.6896 525.437 92.592 524.706 104.66C513.16 102.175 506.021 98.2756 501.826 92.2352C513.539 73.3876 519.395 58.0954 519.395 46.3586C519.408 44.519 519.247 42.6822 518.914 40.8725C532.287 36.7819 552.935 35.5203 583.897 35.1953Z" fill="#322EF3" stroke="#322EF3" stroke-width="1.5" stroke-miterlimit="10"/>
<path d="M709.454 90.4976C701.084 105.369 677.319 108.428 622.516 108.867C626.009 105.364 629.25 101.621 632.214 97.6658C641.687 85.0176 646.649 69.5958 646.319 53.8346C646.319 46.1885 644.76 40.0652 641.643 35.4648C682.149 36.5162 701.296 40.3201 708.993 52.6686L708.223 53.4714C700.526 61.6018 696.677 69.5855 696.677 77.4228C696.677 86.0119 700.936 90.3702 709.454 90.4976Z" fill="#322EF3" stroke="#322EF3" stroke-width="1.5" stroke-miterlimit="10"/>
<path d="M713.284 71.843C713.428 76.8415 712.732 81.8289 711.225 86.5999H711.109C708.554 86.6208 706.05 85.8892 703.913 84.4973C702.992 84.0309 702.21 83.3344 701.643 82.4763C701.076 81.6182 700.744 80.6281 700.68 79.6037C700.68 74.9396 704.246 68.5679 711.379 60.4885C711.59 60.2591 711.802 60.0106 712.033 59.7812C712.947 63.7356 713.367 67.7866 713.284 71.843Z" fill="#322EF3" stroke="#322EF3" stroke-width="1.5" stroke-miterlimit="10"/>
<path d="M637.642 43.971C637.57 47.7921 636.921 51.5808 635.718 55.2108C631.677 49.4762 625.057 47.125 617.534 46.2457H617.264C613.197 45.856 609.111 45.6901 605.026 45.7487C584.07 45.7487 570.119 46.8383 570.119 71.8028C570.119 85.3555 573.968 91.9503 580.818 95.1425C582.101 95.7576 583.441 96.2443 584.821 96.5953C590.401 98.0863 597.367 98.201 605.372 98.201H607.2C603.813 101.909 600.254 105.465 596.578 108.886C587.092 108.886 578.452 108.772 570.6 108.581C568.099 108.581 565.694 108.466 563.346 108.389C551.923 108.172 540.526 107.214 529.229 105.522C530.037 97.876 535.258 88.2037 544.892 76.5052C555.657 63.5978 568.351 52.4064 582.531 43.3211C587.242 40.2157 592.182 37.468 597.309 35.1016H605.103C616.302 35.1016 626.404 35.1016 635.506 35.3309C637.016 37.9563 637.756 40.9494 637.642 43.971Z" fill="#322EF3" stroke="#322EF3" stroke-width="1.5" stroke-miterlimit="10"/>
<path d="M792.507 41.7932C792.507 52.6379 782.642 66.0186 762.911 81.9352C754.057 89.2269 744.498 95.6299 734.374 101.05C728.623 98.8135 723.931 94.5072 721.231 88.9888C729.723 86.5267 737.687 82.5355 744.727 77.2138C756.783 68.6467 766.751 57.5031 773.899 44.6032H769.954C763.254 56.4776 753.963 66.7122 742.764 74.5567C735.936 79.6501 728.179 83.3825 719.923 85.548C718.664 81.0903 718.08 76.471 718.191 71.8424C718.191 43.7048 733.162 36.8806 790.505 35.5234C791.837 37.3439 792.539 39.5435 792.507 41.7932Z" fill="#322EF3" stroke="#322EF3" stroke-width="1.5" stroke-miterlimit="10"/>
<path d="M933.884 62.1305H860.242C856.394 44.8121 841.403 46.5325 826.394 46.5325C816.33 46.5325 807.863 46.5325 801.802 49.3615C801.871 44.3719 800.444 39.4747 797.703 35.2927C806.362 35.1589 815.907 35.1016 826.394 35.1016C904.231 35.1016 929.343 37.8733 933.884 62.1305Z" fill="#322EF3" stroke="#322EF3" stroke-width="1.5" stroke-miterlimit="10"/>
<path d="M934.577 70.1211C934.577 103.745 913.64 108.944 826.394 108.944C785.368 108.944 759.044 108.18 742.572 103.859C763.585 95.3341 778.402 87.1974 787.023 79.4493C788.618 78.0152 790.134 76.4965 791.564 74.8999C792.661 97.4941 806.343 97.4941 826.74 97.4941C841.749 97.4941 860.588 97.4941 860.588 80.8065H830.569V70.1211H934.577Z" fill="#322EF3" stroke="#322EF3" stroke-width="1.5" stroke-miterlimit="10"/>
<path d="M57.916 131.402V198.305H127.729V169.632H230.312V158.966H127.729V151.492H259.118C261.941 149.848 264.673 148.236 267.316 146.655V131.363L57.916 131.402Z" fill="white" stroke="#322EF3" stroke-width="1.5" stroke-miterlimit="10"/>
<path d="M488.607 181.809V189.837C483.053 190.838 477.565 192.172 472.174 193.832C477.419 189.52 482.906 185.506 488.607 181.809Z" fill="white" stroke="#322EF3" stroke-width="1.5" stroke-miterlimit="10"/>
<path d="M332.028 184.6C331.946 189.218 332.477 193.826 333.606 198.306H299.604C305.53 192.739 310.939 186.655 315.768 180.127L312.093 177.604C305.153 186.741 299.046 193.227 293.774 197.063C293.158 197.503 292.561 197.923 291.965 198.306H279.207V131.402H347.942C337.333 149.575 332.028 167.307 332.028 184.6Z" fill="white" stroke="#322EF3" stroke-width="1.5" stroke-miterlimit="10"/>
<path d="M488.607 178.195V178.405C476.881 185.605 466.907 192.238 458.684 198.304H339.071C338.836 197.204 338.72 196.083 338.725 194.959C338.725 185.898 342.811 173.9 350.982 158.965H451.603V169.65H349V178.195H488.607Z" fill="white" stroke="#322EF3" stroke-width="1.5" stroke-miterlimit="10"/>
<path d="M585.149 187.486C585.138 187.633 585.138 187.78 585.149 187.926C585.149 188.117 585.149 188.347 585.034 188.557L585.9 187.525L585.149 187.486ZM575.528 198.306H581.493C580.922 196.805 580.516 195.248 580.281 193.661C578.664 195.324 577.086 196.891 575.509 198.306H575.528ZM551.301 131.402C515.009 131.402 497.017 134.423 497.017 151.129C497.017 157.342 501.328 162.197 510.487 165.466L515.221 162.77C536.529 150.881 553.95 140.431 567.484 131.421L551.301 131.402ZM699.874 194.712C703.528 193.752 706.87 191.869 709.573 189.245C706.494 191.157 703.242 192.953 699.855 194.712H699.874ZM496.998 174.584C496.997 175.305 497.036 176.026 497.114 176.744L498.672 175.922C499.48 175.482 500.366 175.042 501.289 174.584H496.998Z" fill="white" stroke="#322EF3" stroke-width="1.5" stroke-miterlimit="10"/>
<path d="M659.56 159.196C684.249 159.196 699.778 162.369 707.475 167.989C696.321 177.773 684.149 186.347 671.164 193.565C668.123 195.285 665.096 196.859 662.081 198.287H587.573C585.952 196.076 584.98 193.462 584.764 190.736C584.762 190.001 584.813 189.266 584.918 188.538L585.784 187.506H586.438C587.9 191.329 591.011 193.24 595.771 193.24C596.992 193.182 598.185 192.849 599.258 192.266C600.331 191.683 601.258 190.866 601.967 189.876C602.559 189.177 603.069 188.414 603.487 187.601H618.746C634.237 187.601 640.067 185.69 640.067 178.177C640.067 170.283 631.985 170.225 616.63 170.168H550.819C539.391 170.427 527.969 169.434 516.76 167.205C523.206 164.242 530.749 160.897 539.466 157.131C560.133 147.956 577.58 139.38 591.807 131.402H659.156C695.467 131.402 713.44 138.437 713.44 155.143H642.396C642.396 143.98 634.121 142.145 618.612 142.145H591.479C575.97 142.145 570.312 143.885 570.312 151.512C570.312 159.444 578.414 159.158 593.827 159.158L659.56 159.196Z" fill="white" stroke="#322EF3" stroke-width="1.5" stroke-miterlimit="10"/>
<path d="M580.145 186.988C580.134 187.077 580.134 187.167 580.145 187.255C577.036 190.883 573.546 194.17 569.734 197.062C569.119 197.501 568.522 197.922 567.926 198.304H551.319C545.585 198.304 540.299 198.126 535.463 197.769L532.807 196.641C523.678 192.399 513.881 189.748 503.847 188.804C501.95 187.366 500.375 185.551 499.226 183.474C498.076 181.397 497.376 179.104 497.17 176.742L498.729 175.92C499.537 175.48 500.422 175.041 501.346 174.582H568.06C568.003 182.534 572.14 185.784 580.145 186.988Z" fill="white" stroke="#322EF3" stroke-width="1.5" stroke-miterlimit="10"/>
<path d="M931.19 131.363V151.492H861.378V198.286H791.584V151.492H721.771V131.363H931.19Z" fill="white" stroke="#322EF3" stroke-width="1.5" stroke-miterlimit="10"/>
<path d="M488.608 131.383V151.492H355.275C355.391 151.282 355.506 151.071 355.641 150.861C359.49 144.362 363.755 137.869 368.437 131.383H488.608Z" fill="white" stroke="#322EF3" stroke-width="1.2" stroke-miterlimit="10"/>
<path d="M315.769 180.126C310.94 186.654 305.53 192.738 299.605 198.304C296.49 201.213 293.123 203.842 289.541 206.161C281.519 211.445 272.111 214.27 262.486 214.285C257.598 214.285 249.33 211.857 237.682 207.002C224.327 201.203 213.147 198.311 204.142 198.323C193.802 198.323 182.057 203.644 168.908 214.285H163.828C175.374 202.497 196.541 187.619 227.329 169.65L230.312 167.93C233.237 166.222 236.258 164.496 239.375 162.75C246.38 158.85 252.961 155.097 259.118 151.491C261.941 149.847 264.673 148.235 267.316 146.655C271.485 144.106 275.449 141.691 279.208 139.41V150.019C274.243 152.351 269.028 154.741 263.621 157.149C244.635 165.369 231.011 171.626 222.749 175.92C213.331 180.986 204.453 186.987 196.252 193.831C205.206 190.957 214.479 189.172 223.866 188.517C235.288 189.064 246.492 191.824 256.848 196.641C260.76 198.389 264.762 199.933 268.836 201.267C272.074 202.277 275.448 202.793 278.842 202.796C283.566 202.613 288.131 201.05 291.966 198.304C292.562 197.922 293.159 197.501 293.774 197.062C299.021 193.239 305.128 186.752 312.094 177.602L315.769 180.126Z" fill="white"/>
<path d="M315.769 180.126C310.94 186.654 305.53 192.738 299.605 198.304C296.49 201.213 293.123 203.842 289.541 206.161C281.519 211.445 272.111 214.27 262.486 214.285C257.598 214.285 249.33 211.857 237.682 207.002C224.327 201.203 213.147 198.311 204.142 198.323C193.802 198.323 182.057 203.644 168.908 214.285H163.828C175.374 202.497 196.541 187.619 227.329 169.65L230.312 167.93C233.237 166.222 236.258 164.496 239.375 162.75C246.38 158.85 252.961 155.097 259.118 151.491C261.941 149.847 264.673 148.235 267.316 146.655C271.485 144.106 275.449 141.691 279.208 139.41V150.019C274.243 152.351 269.028 154.741 263.621 157.149C244.635 165.369 231.011 171.626 222.749 175.92C213.331 180.986 204.453 186.987 196.252 193.831C205.206 190.957 214.479 189.172 223.866 188.517C235.288 189.064 246.492 191.824 256.848 196.641C260.76 198.389 264.762 199.933 268.836 201.267C272.074 202.277 275.448 202.793 278.842 202.796C283.566 202.613 288.131 201.05 291.966 198.304C292.562 197.922 293.159 197.501 293.774 197.062C299.021 193.239 305.128 186.752 312.094 177.602L315.769 180.126Z" fill="url(#paint0_linear_1776_767)" fill-opacity="0.7"/>
<path d="M315.769 180.126C310.94 186.654 305.53 192.738 299.605 198.304C296.49 201.213 293.123 203.842 289.541 206.161C281.519 211.445 272.111 214.27 262.486 214.285C257.598 214.285 249.33 211.857 237.682 207.002C224.327 201.203 213.147 198.311 204.142 198.323C193.802 198.323 182.057 203.644 168.908 214.285H163.828C175.374 202.497 196.541 187.619 227.329 169.65L230.312 167.93C233.237 166.222 236.258 164.496 239.375 162.75C246.38 158.85 252.961 155.097 259.118 151.491C261.941 149.847 264.673 148.235 267.316 146.655C271.485 144.106 275.449 141.691 279.208 139.41V150.019C274.243 152.351 269.028 154.741 263.621 157.149C244.635 165.369 231.011 171.626 222.749 175.92C213.331 180.986 204.453 186.987 196.252 193.831C205.206 190.957 214.479 189.172 223.866 188.517C235.288 189.064 246.492 191.824 256.848 196.641C260.76 198.389 264.762 199.933 268.836 201.267C272.074 202.277 275.448 202.793 278.842 202.796C283.566 202.613 288.131 201.05 291.966 198.304C292.562 197.922 293.159 197.501 293.774 197.062C299.021 193.239 305.128 186.752 312.094 177.602L315.769 180.126Z" stroke="#322EF3" stroke-width="1.2" stroke-miterlimit="10"/>
<path d="M370.514 53.8311C370.601 62.1797 369.301 70.4853 366.666 78.4133C365.436 82.1235 363.864 85.7132 361.971 89.137C360.35 92.1098 358.511 94.9593 356.467 97.6624C346.549 110.51 334.111 121.227 319.906 129.164L316.057 131.382H291.619C299.316 126.284 305.73 121.62 310.862 117.389C315.461 113.566 319.868 109.743 324.12 105.461C332.142 97.6631 339.529 89.2451 346.211 80.2866L347.577 78.3751C355.351 67.5559 359.912 57.8581 361.259 49.2817C361.555 47.5321 361.703 45.7609 361.701 43.9868C361.729 42.14 361.489 40.2988 360.989 38.5198C359.193 32.2882 353.889 29.1661 345.076 29.1533C336.096 29.1533 325.923 32.2755 314.557 38.5198H301.375L302.645 37.8317C317.77 29.8033 331.913 25.7891 345.076 25.7891C353.35 25.7891 359.642 28.2167 363.953 33.072C365.403 34.7037 366.603 36.5395 367.513 38.5198C369.041 41.9227 369.96 45.5648 370.226 49.2817C370.403 50.792 370.5 52.3106 370.514 53.8311Z" fill="white"/>
<path d="M370.514 53.8311C370.601 62.1797 369.301 70.4853 366.666 78.4133C365.436 82.1235 363.864 85.7132 361.971 89.137C360.35 92.1098 358.511 94.9593 356.467 97.6624C346.549 110.51 334.111 121.227 319.906 129.164L316.057 131.382H291.619C299.316 126.284 305.73 121.62 310.862 117.389C315.461 113.566 319.868 109.743 324.12 105.461C332.142 97.6631 339.529 89.2451 346.211 80.2866L347.577 78.3751C355.351 67.5559 359.912 57.8581 361.259 49.2817C361.555 47.5321 361.703 45.7609 361.701 43.9868C361.729 42.14 361.489 40.2988 360.989 38.5198C359.193 32.2882 353.889 29.1661 345.076 29.1533C336.096 29.1533 325.923 32.2755 314.557 38.5198H301.375L302.645 37.8317C317.77 29.8033 331.913 25.7891 345.076 25.7891C353.35 25.7891 359.642 28.2167 363.953 33.072C365.403 34.7037 366.603 36.5395 367.513 38.5198C369.041 41.9227 369.96 45.5648 370.226 49.2817C370.403 50.792 370.5 52.3106 370.514 53.8311Z" fill="url(#paint1_linear_1776_767)" fill-opacity="0.7"/>
<path d="M370.514 53.8311C370.601 62.1797 369.301 70.4853 366.666 78.4133C365.436 82.1235 363.864 85.7132 361.971 89.137C360.35 92.1098 358.511 94.9593 356.467 97.6624C346.549 110.51 334.111 121.227 319.906 129.164L316.057 131.382H291.619C299.316 126.284 305.73 121.62 310.862 117.389C315.461 113.566 319.868 109.743 324.12 105.461C332.142 97.6631 339.529 89.2451 346.211 80.2866L347.577 78.3751C355.351 67.5559 359.912 57.8581 361.259 49.2817C361.555 47.5321 361.703 45.7609 361.701 43.9868C361.729 42.14 361.489 40.2988 360.989 38.5198C359.193 32.2882 353.889 29.1661 345.076 29.1533C336.096 29.1533 325.923 32.2755 314.557 38.5198H301.375L302.645 37.8317C317.77 29.8033 331.913 25.7891 345.076 25.7891C353.35 25.7891 359.642 28.2167 363.953 33.072C365.403 34.7037 366.603 36.5395 367.513 38.5198C369.041 41.9227 369.96 45.5648 370.226 49.2817C370.403 50.792 370.5 52.3106 370.514 53.8311Z" stroke="#322EF3" stroke-width="1.2" stroke-miterlimit="10"/>
<path d="M341.65 46.2812C331.875 69.6273 319.335 87.9206 304.03 101.161C302.26 102.69 300.528 104.124 298.796 105.462C285.57 115.835 273.64 121.028 263.005 121.041C259.306 121.052 255.737 119.688 252.999 117.218C251.603 116.046 250.488 114.58 249.732 112.927C248.977 111.274 248.6 109.475 248.631 107.66C248.631 94.5855 253.845 81.7018 264.275 69.0093C268.263 64.1562 272.625 59.6186 277.322 55.4375V67.2507C274.384 70.2454 271.587 73.3548 268.932 76.5789C258.399 89.2459 253.133 99.5873 253.133 107.603C253.133 113.758 256.982 116.836 264.679 116.836C271.773 116.836 280.824 113.013 291.831 105.366C294.255 103.799 296.75 102.021 299.316 100.033C313.697 88.8318 326.705 70.9144 338.34 46.2812H341.65Z" fill="white"/>
<path d="M341.65 46.2812C331.875 69.6273 319.335 87.9206 304.03 101.161C302.26 102.69 300.528 104.124 298.796 105.462C285.57 115.835 273.64 121.028 263.005 121.041C259.306 121.052 255.737 119.688 252.999 117.218C251.603 116.046 250.488 114.58 249.732 112.927C248.977 111.274 248.6 109.475 248.631 107.66C248.631 94.5855 253.845 81.7018 264.275 69.0093C268.263 64.1562 272.625 59.6186 277.322 55.4375V67.2507C274.384 70.2454 271.587 73.3548 268.932 76.5789C258.399 89.2459 253.133 99.5873 253.133 107.603C253.133 113.758 256.982 116.836 264.679 116.836C271.773 116.836 280.824 113.013 291.831 105.366C294.255 103.799 296.75 102.021 299.316 100.033C313.697 88.8318 326.705 70.9144 338.34 46.2812H341.65Z" fill="url(#paint2_linear_1776_767)" fill-opacity="0.7"/>
<path d="M341.65 46.2812C331.875 69.6273 319.335 87.9206 304.03 101.161C302.26 102.69 300.528 104.124 298.796 105.462C285.57 115.835 273.64 121.028 263.005 121.041C259.306 121.052 255.737 119.688 252.999 117.218C251.603 116.046 250.488 114.58 249.732 112.927C248.977 111.274 248.6 109.475 248.631 107.66C248.631 94.5855 253.845 81.7018 264.275 69.0093C268.263 64.1562 272.625 59.6186 277.322 55.4375V67.2507C274.384 70.2454 271.587 73.3548 268.932 76.5789C258.399 89.2459 253.133 99.5873 253.133 107.603C253.133 113.758 256.982 116.836 264.679 116.836C271.773 116.836 280.824 113.013 291.831 105.366C294.255 103.799 296.75 102.021 299.316 100.033C313.697 88.8318 326.705 70.9144 338.34 46.2812H341.65Z" stroke="#322EF3" stroke-width="1.2" stroke-miterlimit="10"/>
<path d="M435.939 169.648C432.706 172.554 429.397 175.383 426.048 178.193H418.852C422.251 175.466 425.651 172.618 429.05 169.648H435.939Z" fill="white"/>
<path d="M435.939 169.648C432.706 172.554 429.397 175.383 426.048 178.193H418.852C422.251 175.466 425.651 172.618 429.05 169.648H435.939Z" fill="url(#paint3_linear_1776_767)" fill-opacity="0.7"/>
<path d="M435.939 169.648C432.706 172.554 429.397 175.383 426.048 178.193H418.852C422.251 175.466 425.651 172.618 429.05 169.648H435.939Z" stroke="#322EF3" stroke-width="1.2" stroke-miterlimit="10"/>
<path d="M454.817 151.492C452.373 154.015 449.871 156.52 447.331 158.966H440.635C443.2 156.532 445.728 154.041 448.216 151.492H454.817Z" fill="white"/>
<path d="M454.817 151.492C452.373 154.015 449.871 156.52 447.331 158.966H440.635C443.2 156.532 445.728 154.041 448.216 151.492H454.817Z" fill="url(#paint4_linear_1776_767)" fill-opacity="0.7"/>
<path d="M454.817 151.492C452.373 154.015 449.871 156.52 447.331 158.966H440.635C443.2 156.532 445.728 154.041 448.216 151.492H454.817Z" stroke="#322EF3" stroke-width="1.2" stroke-miterlimit="10"/>
<path d="M519.397 46.2799C519.397 58.0804 513.541 73.3726 501.828 92.1565C498.326 97.7636 494.317 103.677 489.801 109.895C484.452 117.248 478.865 124.385 473.041 131.305H466.729C474.17 122.779 480.956 114.165 487.088 105.461L487.3 105.136C490.687 100.382 493.894 95.6036 496.921 90.7993C497.71 89.5186 498.48 88.2761 499.211 86.9763C509.358 70.0402 514.426 56.2645 514.413 45.6491C514.42 44.5693 514.356 43.4901 514.22 42.4187C513.996 39.218 512.725 36.1777 510.603 33.7595C509.189 32.3542 507.489 31.2643 505.618 30.5622C503.747 29.8602 501.746 29.5622 499.75 29.6879C489.179 29.6879 477.249 33.3772 463.958 40.7556C459.994 42.9348 455.908 45.4516 451.701 48.3062C432.223 61.7384 414.353 77.3354 398.437 94.7944C396.647 96.7059 394.915 98.6175 393.203 100.529C384.413 110.319 376.177 120.587 368.534 131.285C363.915 137.759 359.65 144.252 355.737 150.764C355.602 150.974 355.487 151.184 355.371 151.395C353.806 153.943 352.376 156.435 351.08 158.869C342.909 173.817 338.823 185.815 338.823 194.863C338.818 195.987 338.934 197.108 339.169 198.208C339.736 201.119 341.186 203.787 343.326 205.854C344.749 207.311 346.459 208.461 348.35 209.234C350.24 210.007 352.27 210.385 354.313 210.346C364.473 210.346 376.442 206.325 390.22 198.284H398.918C381.959 208.951 367.09 214.277 354.313 214.265C343.422 214.265 336.526 208.938 333.627 198.284C332.498 193.804 331.967 189.196 332.049 184.579C332.049 167.286 337.38 149.547 348.04 131.362C348.29 130.903 348.56 130.444 348.829 129.986C356.987 116.443 366.671 103.867 377.693 92.5006C382.324 87.6835 387.25 82.9812 392.472 78.3935L392.876 78.0303C400.472 71.3533 408.424 65.0872 416.698 59.2592C426.997 51.9694 437.872 45.5193 449.218 39.9719L450.142 39.5323C469.115 30.3952 485.626 25.8266 499.673 25.8266C502.342 25.6779 505.013 26.0877 507.512 27.0295C510.011 27.9712 512.284 29.424 514.182 31.2936C516.666 33.9516 518.312 37.2743 518.916 40.8512C519.245 42.642 519.406 44.4595 519.397 46.2799Z" fill="white"/>
<path d="M519.397 46.2799C519.397 58.0804 513.541 73.3726 501.828 92.1565C498.326 97.7636 494.317 103.677 489.801 109.895C484.452 117.248 478.865 124.385 473.041 131.305H466.729C474.17 122.779 480.956 114.165 487.088 105.461L487.3 105.136C490.687 100.382 493.894 95.6036 496.921 90.7993C497.71 89.5186 498.48 88.2761 499.211 86.9763C509.358 70.0402 514.426 56.2645 514.413 45.6491C514.42 44.5693 514.356 43.4901 514.22 42.4187C513.996 39.218 512.725 36.1777 510.603 33.7595C509.189 32.3542 507.489 31.2643 505.618 30.5622C503.747 29.8602 501.746 29.5622 499.75 29.6879C489.179 29.6879 477.249 33.3772 463.958 40.7556C459.994 42.9348 455.908 45.4516 451.701 48.3062C432.223 61.7384 414.353 77.3354 398.437 94.7944C396.647 96.7059 394.915 98.6175 393.203 100.529C384.413 110.319 376.177 120.587 368.534 131.285C363.915 137.759 359.65 144.252 355.737 150.764C355.602 150.974 355.487 151.184 355.371 151.395C353.806 153.943 352.376 156.435 351.08 158.869C342.909 173.817 338.823 185.815 338.823 194.863C338.818 195.987 338.934 197.108 339.169 198.208C339.736 201.119 341.186 203.787 343.326 205.854C344.749 207.311 346.459 208.461 348.35 209.234C350.24 210.007 352.27 210.385 354.313 210.346C364.473 210.346 376.442 206.325 390.22 198.284H398.918C381.959 208.951 367.09 214.277 354.313 214.265C343.422 214.265 336.526 208.938 333.627 198.284C332.498 193.804 331.967 189.196 332.049 184.579C332.049 167.286 337.38 149.547 348.04 131.362C348.29 130.903 348.56 130.444 348.829 129.986C356.987 116.443 366.671 103.867 377.693 92.5006C382.324 87.6835 387.25 82.9812 392.472 78.3935L392.876 78.0303C400.472 71.3533 408.424 65.0872 416.698 59.2592C426.997 51.9694 437.872 45.5193 449.218 39.9719L450.142 39.5323C469.115 30.3952 485.626 25.8266 499.673 25.8266C502.342 25.6779 505.013 26.0877 507.512 27.0295C510.011 27.9712 512.284 29.424 514.182 31.2936C516.666 33.9516 518.312 37.2743 518.916 40.8512C519.245 42.642 519.406 44.4595 519.397 46.2799Z" fill="url(#paint5_linear_1776_767)" fill-opacity="0.7"/>
<path d="M519.397 46.2799C519.397 58.0804 513.541 73.3726 501.828 92.1565C498.326 97.7636 494.317 103.677 489.801 109.895C484.452 117.248 478.865 124.385 473.041 131.305H466.729C474.17 122.779 480.956 114.165 487.088 105.461L487.3 105.136C490.687 100.382 493.894 95.6036 496.921 90.7993C497.71 89.5186 498.48 88.2761 499.211 86.9763C509.358 70.0402 514.426 56.2645 514.413 45.6491C514.42 44.5693 514.356 43.4901 514.22 42.4187C513.996 39.218 512.725 36.1777 510.603 33.7595C509.189 32.3542 507.489 31.2643 505.618 30.5622C503.747 29.8602 501.746 29.5622 499.75 29.6879C489.179 29.6879 477.249 33.3772 463.958 40.7556C459.994 42.9348 455.908 45.4516 451.701 48.3062C432.223 61.7384 414.353 77.3354 398.437 94.7944C396.647 96.7059 394.915 98.6175 393.203 100.529C384.413 110.319 376.177 120.587 368.534 131.285C363.915 137.759 359.65 144.252 355.737 150.764C355.602 150.974 355.487 151.184 355.371 151.395C353.806 153.943 352.376 156.435 351.08 158.869C342.909 173.817 338.823 185.815 338.823 194.863C338.818 195.987 338.934 197.108 339.169 198.208C339.736 201.119 341.186 203.787 343.326 205.854C344.749 207.311 346.459 208.461 348.35 209.234C350.24 210.007 352.27 210.385 354.313 210.346C364.473 210.346 376.442 206.325 390.22 198.284H398.918C381.959 208.951 367.09 214.277 354.313 214.265C343.422 214.265 336.526 208.938 333.627 198.284C332.498 193.804 331.967 189.196 332.049 184.579C332.049 167.286 337.38 149.547 348.04 131.362C348.29 130.903 348.56 130.444 348.829 129.986C356.987 116.443 366.671 103.867 377.693 92.5006C382.324 87.6835 387.25 82.9812 392.472 78.3935L392.876 78.0303C400.472 71.3533 408.424 65.0872 416.698 59.2592C426.997 51.9694 437.872 45.5193 449.218 39.9719L450.142 39.5323C469.115 30.3952 485.626 25.8266 499.673 25.8266C502.342 25.6779 505.013 26.0877 507.512 27.0295C510.011 27.9712 512.284 29.424 514.182 31.2936C516.666 33.9516 518.312 37.2743 518.916 40.8512C519.245 42.642 519.406 44.4595 519.397 46.2799Z" stroke="#322EF3" stroke-width="1.2" stroke-miterlimit="10"/>
<path d="M617.612 46.3004C608.914 67.0977 598.01 83.8746 584.899 96.6308C583.52 96.2798 582.179 95.7931 580.896 95.178C593.032 83.9128 604.148 67.6139 614.244 46.2812H617.612V46.3004Z" fill="white"/>
<path d="M617.612 46.3004C608.914 67.0977 598.01 83.8746 584.899 96.6308C583.52 96.2798 582.179 95.7931 580.896 95.178C593.032 83.9128 604.148 67.6139 614.244 46.2812H617.612V46.3004Z" fill="url(#paint6_linear_1776_767)" fill-opacity="0.7"/>
<path d="M617.612 46.3004C608.914 67.0977 598.01 83.8746 584.899 96.6308C583.52 96.2798 582.179 95.7931 580.896 95.178C593.032 83.9128 604.148 67.6139 614.244 46.2812H617.612V46.3004Z" stroke="#322EF3" stroke-width="1.2" stroke-miterlimit="10"/>
<path d="M745.595 151.492C742.006 159.349 736.982 166.479 730.778 172.518C724.416 178.92 717.311 184.548 709.611 189.283C706.532 191.194 703.28 193.106 699.894 194.807C694.11 197.804 688.154 200.459 682.055 202.759C661.216 210.575 639.097 214.483 616.822 214.285C605.367 214.285 596.348 212.227 589.767 208.111C585.958 205.857 583.012 202.407 581.397 198.305C580.826 196.804 580.419 195.247 580.184 193.66C578.587 195.323 577.009 196.871 575.431 198.305C572.326 201.208 568.971 203.837 565.406 206.161C557.376 211.443 547.962 214.268 538.331 214.285C533.444 214.285 525.176 211.858 513.527 207.002C500.199 201.204 489.018 198.311 479.987 198.324C469.647 198.324 457.903 203.644 444.754 214.285H439.789C445.666 208.47 451.997 203.126 458.724 198.305C466.96 192.239 476.934 185.606 488.646 178.406C495.381 174.277 502.694 169.963 510.583 165.465L515.317 162.77C536.625 150.88 554.046 140.43 567.58 131.421C575.277 126.323 581.724 121.653 586.919 117.409C590.229 114.682 593.436 111.853 596.541 108.922C600.216 105.5 603.776 101.945 607.163 98.2366C612.489 92.5379 617.487 86.5453 622.133 80.2874C628.069 72.7676 632.688 64.3087 635.796 55.2656C636.999 51.6356 637.648 47.8469 637.72 44.0258C637.845 40.9849 637.105 37.9705 635.584 35.3284C633.018 31.2377 628.182 29.1924 621.075 29.1924C612.841 29.4469 604.76 31.4684 597.387 35.1181C592.26 37.4846 587.32 40.2323 582.609 43.3377C568.406 52.3993 555.686 63.5714 544.893 76.4644C535.259 88.0992 530.038 97.7715 529.229 105.481C529.153 106.167 529.115 106.856 529.114 107.546C529.114 113.701 532.963 116.778 540.66 116.778C546.798 116.778 554.341 113.968 563.347 108.349C565.694 108.349 568.1 108.502 570.601 108.54C559.056 116.836 548.517 120.984 538.985 120.984C535.286 121 531.714 119.636 528.979 117.161C527.581 115.991 526.463 114.526 525.707 112.873C524.951 111.219 524.577 109.419 524.611 107.603C524.611 106.628 524.611 105.692 524.707 104.659C525.426 92.5913 530.608 80.6889 540.256 68.9521C550.811 56.1491 563.846 45.5801 578.587 37.8707C580.377 36.915 582.147 35.9592 583.898 35.1946C597.047 28.9503 609.414 25.8281 620.998 25.8281C629.273 25.8281 635.571 28.2558 639.895 33.111C640.546 33.8568 641.15 34.6421 641.703 35.4622C644.821 40.1008 646.379 46.2241 646.379 53.8319C646.693 69.5999 641.71 85.0223 632.217 97.6632C629.281 101.649 626.066 105.424 622.595 108.96C614.635 116.887 605.639 123.715 595.848 129.261L591.807 131.402C577.58 139.379 560.159 147.962 539.544 157.15C530.827 160.973 523.283 164.261 516.837 167.224C510.641 170.033 505.503 172.48 501.443 174.545C500.519 175.003 499.634 175.443 498.826 175.883L497.267 176.705C494.496 178.221 491.661 179.91 488.762 181.77C483.061 185.468 477.574 189.482 472.329 193.794C477.72 192.134 483.208 190.8 488.762 189.799C492.457 189.125 496.191 188.685 499.942 188.48C501.289 188.48 502.617 188.633 503.944 188.766C513.979 189.711 523.775 192.362 532.905 196.604L535.56 197.731C539.139 199.242 542.238 200.408 544.893 201.23C548.132 202.238 551.505 202.754 554.899 202.759C559.624 202.577 564.189 201.015 568.023 198.267C568.619 197.884 569.216 197.464 569.832 197.024C573.643 194.133 577.133 190.846 580.242 187.218C580.231 187.129 580.231 187.039 580.242 186.95C580.571 183.681 581.916 180.595 584.091 178.119C585.385 176.65 586.993 175.487 588.797 174.713C590.601 173.939 592.556 173.575 594.52 173.646C601.486 173.646 604.95 176.533 604.95 182.325C604.967 184.162 604.524 185.975 603.66 187.6C603.242 188.413 602.732 189.177 602.14 189.875C601.431 190.865 600.505 191.682 599.432 192.265C598.358 192.848 597.166 193.181 595.944 193.239C591.185 193.239 588.074 191.328 586.611 187.505C586.611 187.333 586.477 187.142 586.419 186.95C586.281 186.536 586.165 186.115 586.073 185.689C585.948 185.871 585.839 186.063 585.745 186.262C585.555 186.638 585.413 187.037 585.322 187.447C585.311 187.594 585.311 187.741 585.322 187.887C585.322 188.078 585.322 188.308 585.207 188.518C585.102 189.246 585.051 189.981 585.053 190.716C585.269 193.443 586.241 196.056 587.862 198.267C589.708 200.768 592.004 202.906 594.636 204.575C600.998 208.673 608.498 210.679 616.072 210.309C632.192 209.583 647.972 205.466 662.37 198.228C665.398 196.801 668.425 195.227 671.453 193.507C684.438 186.289 696.61 177.715 707.764 167.931C711.766 164.414 715.557 160.743 719.098 156.959C720.887 155.047 722.542 153.136 724.082 151.434L745.595 151.492Z" fill="white"/>
<path d="M745.595 151.492C742.006 159.349 736.982 166.479 730.778 172.518C724.416 178.92 717.311 184.548 709.611 189.283C706.532 191.194 703.28 193.106 699.894 194.807C694.11 197.804 688.154 200.459 682.055 202.759C661.216 210.575 639.097 214.483 616.822 214.285C605.367 214.285 596.348 212.227 589.767 208.111C585.958 205.857 583.012 202.407 581.397 198.305C580.826 196.804 580.419 195.247 580.184 193.66C578.587 195.323 577.009 196.871 575.431 198.305C572.326 201.208 568.971 203.837 565.406 206.161C557.376 211.443 547.962 214.268 538.331 214.285C533.444 214.285 525.176 211.858 513.527 207.002C500.199 201.204 489.018 198.311 479.987 198.324C469.647 198.324 457.903 203.644 444.754 214.285H439.789C445.666 208.47 451.997 203.126 458.724 198.305C466.96 192.239 476.934 185.606 488.646 178.406C495.381 174.277 502.694 169.963 510.583 165.465L515.317 162.77C536.625 150.88 554.046 140.43 567.58 131.421C575.277 126.323 581.724 121.653 586.919 117.409C590.229 114.682 593.436 111.853 596.541 108.922C600.216 105.5 603.776 101.945 607.163 98.2366C612.489 92.5379 617.487 86.5453 622.133 80.2874C628.069 72.7676 632.688 64.3087 635.796 55.2656C636.999 51.6356 637.648 47.8469 637.72 44.0258C637.845 40.9849 637.105 37.9705 635.584 35.3284C633.018 31.2377 628.182 29.1924 621.075 29.1924C612.841 29.4469 604.76 31.4684 597.387 35.1181C592.26 37.4846 587.32 40.2323 582.609 43.3377C568.406 52.3993 555.686 63.5714 544.893 76.4644C535.259 88.0992 530.038 97.7715 529.229 105.481C529.153 106.167 529.115 106.856 529.114 107.546C529.114 113.701 532.963 116.778 540.66 116.778C546.798 116.778 554.341 113.968 563.347 108.349C565.694 108.349 568.1 108.502 570.601 108.54C559.056 116.836 548.517 120.984 538.985 120.984C535.286 121 531.714 119.636 528.979 117.161C527.581 115.991 526.463 114.526 525.707 112.873C524.951 111.219 524.577 109.419 524.611 107.603C524.611 106.628 524.611 105.692 524.707 104.659C525.426 92.5913 530.608 80.6889 540.256 68.9521C550.811 56.1491 563.846 45.5801 578.587 37.8707C580.377 36.915 582.147 35.9592 583.898 35.1946C597.047 28.9503 609.414 25.8281 620.998 25.8281C629.273 25.8281 635.571 28.2558 639.895 33.111C640.546 33.8568 641.15 34.6421 641.703 35.4622C644.821 40.1008 646.379 46.2241 646.379 53.8319C646.693 69.5999 641.71 85.0223 632.217 97.6632C629.281 101.649 626.066 105.424 622.595 108.96C614.635 116.887 605.639 123.715 595.848 129.261L591.807 131.402C577.58 139.379 560.159 147.962 539.544 157.15C530.827 160.973 523.283 164.261 516.837 167.224C510.641 170.033 505.503 172.48 501.443 174.545C500.519 175.003 499.634 175.443 498.826 175.883L497.267 176.705C494.496 178.221 491.661 179.91 488.762 181.77C483.061 185.468 477.574 189.482 472.329 193.794C477.72 192.134 483.208 190.8 488.762 189.799C492.457 189.125 496.191 188.685 499.942 188.48C501.289 188.48 502.617 188.633 503.944 188.766C513.979 189.711 523.775 192.362 532.905 196.604L535.56 197.731C539.139 199.242 542.238 200.408 544.893 201.23C548.132 202.238 551.505 202.754 554.899 202.759C559.624 202.577 564.189 201.015 568.023 198.267C568.619 197.884 569.216 197.464 569.832 197.024C573.643 194.133 577.133 190.846 580.242 187.218C580.231 187.129 580.231 187.039 580.242 186.95C580.571 183.681 581.916 180.595 584.091 178.119C585.385 176.65 586.993 175.487 588.797 174.713C590.601 173.939 592.556 173.575 594.52 173.646C601.486 173.646 604.95 176.533 604.95 182.325C604.967 184.162 604.524 185.975 603.66 187.6C603.242 188.413 602.732 189.177 602.14 189.875C601.431 190.865 600.505 191.682 599.432 192.265C598.358 192.848 597.166 193.181 595.944 193.239C591.185 193.239 588.074 191.328 586.611 187.505C586.611 187.333 586.477 187.142 586.419 186.95C586.281 186.536 586.165 186.115 586.073 185.689C585.948 185.871 585.839 186.063 585.745 186.262C585.555 186.638 585.413 187.037 585.322 187.447C585.311 187.594 585.311 187.741 585.322 187.887C585.322 188.078 585.322 188.308 585.207 188.518C585.102 189.246 585.051 189.981 585.053 190.716C585.269 193.443 586.241 196.056 587.862 198.267C589.708 200.768 592.004 202.906 594.636 204.575C600.998 208.673 608.498 210.679 616.072 210.309C632.192 209.583 647.972 205.466 662.37 198.228C665.398 196.801 668.425 195.227 671.453 193.507C684.438 186.289 696.61 177.715 707.764 167.931C711.766 164.414 715.557 160.743 719.098 156.959C720.887 155.047 722.542 153.136 724.082 151.434L745.595 151.492Z" fill="url(#paint7_linear_1776_767)" fill-opacity="0.7"/>
<path d="M745.595 151.492C742.006 159.349 736.982 166.479 730.778 172.518C724.416 178.92 717.311 184.548 709.611 189.283C706.532 191.194 703.28 193.106 699.894 194.807C694.11 197.804 688.154 200.459 682.055 202.759C661.216 210.575 639.097 214.483 616.822 214.285C605.367 214.285 596.348 212.227 589.767 208.111C585.958 205.857 583.012 202.407 581.397 198.305C580.826 196.804 580.419 195.247 580.184 193.66C578.587 195.323 577.009 196.871 575.431 198.305C572.326 201.208 568.971 203.837 565.406 206.161C557.376 211.443 547.962 214.268 538.331 214.285C533.444 214.285 525.176 211.858 513.527 207.002C500.199 201.204 489.018 198.311 479.987 198.324C469.647 198.324 457.903 203.644 444.754 214.285H439.789C445.666 208.47 451.997 203.126 458.724 198.305C466.96 192.239 476.934 185.606 488.646 178.406C495.381 174.277 502.694 169.963 510.583 165.465L515.317 162.77C536.625 150.88 554.046 140.43 567.58 131.421C575.277 126.323 581.724 121.653 586.919 117.409C590.229 114.682 593.436 111.853 596.541 108.922C600.216 105.5 603.776 101.945 607.163 98.2366C612.489 92.5379 617.487 86.5453 622.133 80.2874C628.069 72.7676 632.688 64.3087 635.796 55.2656C636.999 51.6356 637.648 47.8469 637.72 44.0258C637.845 40.9849 637.105 37.9705 635.584 35.3284C633.018 31.2377 628.182 29.1924 621.075 29.1924C612.841 29.4469 604.76 31.4684 597.387 35.1181C592.26 37.4846 587.32 40.2323 582.609 43.3377C568.406 52.3993 555.686 63.5714 544.893 76.4644C535.259 88.0992 530.038 97.7715 529.229 105.481C529.153 106.167 529.115 106.856 529.114 107.546C529.114 113.701 532.963 116.778 540.66 116.778C546.798 116.778 554.341 113.968 563.347 108.349C565.694 108.349 568.1 108.502 570.601 108.54C559.056 116.836 548.517 120.984 538.985 120.984C535.286 121 531.714 119.636 528.979 117.161C527.581 115.991 526.463 114.526 525.707 112.873C524.951 111.219 524.577 109.419 524.611 107.603C524.611 106.628 524.611 105.692 524.707 104.659C525.426 92.5913 530.608 80.6889 540.256 68.9521C550.811 56.1491 563.846 45.5801 578.587 37.8707C580.377 36.915 582.147 35.9592 583.898 35.1946C597.047 28.9503 609.414 25.8281 620.998 25.8281C629.273 25.8281 635.571 28.2558 639.895 33.111C640.546 33.8568 641.15 34.6421 641.703 35.4622C644.821 40.1008 646.379 46.2241 646.379 53.8319C646.693 69.5999 641.71 85.0223 632.217 97.6632C629.281 101.649 626.066 105.424 622.595 108.96C614.635 116.887 605.639 123.715 595.848 129.261L591.807 131.402C577.58 139.379 560.159 147.962 539.544 157.15C530.827 160.973 523.283 164.261 516.837 167.224C510.641 170.033 505.503 172.48 501.443 174.545C500.519 175.003 499.634 175.443 498.826 175.883L497.267 176.705C494.496 178.221 491.661 179.91 488.762 181.77C483.061 185.468 477.574 189.482 472.329 193.794C477.72 192.134 483.208 190.8 488.762 189.799C492.457 189.125 496.191 188.685 499.942 188.48C501.289 188.48 502.617 188.633 503.944 188.766C513.979 189.711 523.775 192.362 532.905 196.604L535.56 197.731C539.139 199.242 542.238 200.408 544.893 201.23C548.132 202.238 551.505 202.754 554.899 202.759C559.624 202.577 564.189 201.015 568.023 198.267C568.619 197.884 569.216 197.464 569.832 197.024C573.643 194.133 577.133 190.846 580.242 187.218C580.231 187.129 580.231 187.039 580.242 186.95C580.571 183.681 581.916 180.595 584.091 178.119C585.385 176.65 586.993 175.487 588.797 174.713C590.601 173.939 592.556 173.575 594.52 173.646C601.486 173.646 604.95 176.533 604.95 182.325C604.967 184.162 604.524 185.975 603.66 187.6C603.242 188.413 602.732 189.177 602.14 189.875C601.431 190.865 600.505 191.682 599.432 192.265C598.358 192.848 597.166 193.181 595.944 193.239C591.185 193.239 588.074 191.328 586.611 187.505C586.611 187.333 586.477 187.142 586.419 186.95C586.281 186.536 586.165 186.115 586.073 185.689C585.948 185.871 585.839 186.063 585.745 186.262C585.555 186.638 585.413 187.037 585.322 187.447C585.311 187.594 585.311 187.741 585.322 187.887C585.322 188.078 585.322 188.308 585.207 188.518C585.102 189.246 585.051 189.981 585.053 190.716C585.269 193.443 586.241 196.056 587.862 198.267C589.708 200.768 592.004 202.906 594.636 204.575C600.998 208.673 608.498 210.679 616.072 210.309C632.192 209.583 647.972 205.466 662.37 198.228C665.398 196.801 668.425 195.227 671.453 193.507C684.438 186.289 696.61 177.715 707.764 167.931C711.766 164.414 715.557 160.743 719.098 156.959C720.887 155.047 722.542 153.136 724.082 151.434L745.595 151.492Z" stroke="#322EF3" stroke-width="1.2" stroke-miterlimit="10"/>
<path d="M801.823 50.4685C801.823 59.1723 798.404 67.3154 791.566 74.8978C790.136 76.4943 788.62 78.013 787.025 79.4472C778.404 87.1825 763.587 95.3192 742.574 103.857C739.534 105.1 736.34 106.342 732.953 107.68L723.659 111.312C739.13 111.312 747.52 118.028 748.828 131.46H736.879C737.596 129.583 737.987 127.598 738.033 125.591C738.09 124.098 737.768 122.615 737.095 121.279C736.422 119.942 735.421 118.796 734.185 117.945C731.801 116.124 728.879 115.136 725.872 115.135C716.892 115.135 702.896 119.334 683.884 127.732L683.307 124.387C702.28 116.741 718.066 109.598 730.663 102.959C731.875 102.309 733.088 101.678 734.261 101.047C744.386 95.6269 753.945 89.2239 762.798 81.9322C782.529 66.0665 792.394 52.6859 792.394 41.7902C792.465 39.5231 791.789 37.2948 790.47 35.4439C789.849 34.5582 789.097 33.7717 788.237 33.1119C785.528 30.9019 782.122 29.7108 778.616 29.7476C765.185 29.6841 751.939 32.8588 740.015 38.9994C729.451 44.1381 719.923 51.1543 711.901 59.7012C711.671 59.9305 711.459 60.179 711.247 60.4084C704.102 68.5388 700.535 74.9105 700.548 79.5237C700.613 80.548 700.945 81.5381 701.511 82.3962C702.078 83.2543 702.861 83.9508 703.781 84.4172C705.948 85.8617 708.503 86.6213 711.112 86.5963H711.286C714.215 86.5687 717.133 86.2161 719.983 85.545C728.219 83.3726 735.956 79.6405 742.767 74.5537C753.966 66.7091 763.256 56.4746 769.957 44.6001H773.902C766.754 57.5001 756.786 68.6436 744.73 77.2107C737.69 82.5324 729.726 86.5237 721.234 88.9857C717.545 89.9806 713.742 90.4946 709.919 90.5149H709.458C700.939 90.3747 696.68 85.9974 696.68 77.3828C696.68 69.5328 700.529 61.549 708.226 53.4314L708.996 52.6285C717.25 44.4229 727.06 37.9256 737.86 33.5133C749.051 28.583 761.14 25.9809 773.382 25.8672C785.146 25.8672 793.266 29.0212 797.743 35.3292C800.484 39.5112 801.911 44.4084 801.842 49.398C801.823 49.7039 801.823 50.0862 801.823 50.4685Z" fill="white"/>
<path d="M801.823 50.4685C801.823 59.1723 798.404 67.3154 791.566 74.8978C790.136 76.4943 788.62 78.013 787.025 79.4472C778.404 87.1825 763.587 95.3192 742.574 103.857C739.534 105.1 736.34 106.342 732.953 107.68L723.659 111.312C739.13 111.312 747.52 118.028 748.828 131.46H736.879C737.596 129.583 737.987 127.598 738.033 125.591C738.09 124.098 737.768 122.615 737.095 121.279C736.422 119.942 735.421 118.796 734.185 117.945C731.801 116.124 728.879 115.136 725.872 115.135C716.892 115.135 702.896 119.334 683.884 127.732L683.307 124.387C702.28 116.741 718.066 109.598 730.663 102.959C731.875 102.309 733.088 101.678 734.261 101.047C744.386 95.6269 753.945 89.2239 762.798 81.9322C782.529 66.0665 792.394 52.6859 792.394 41.7902C792.465 39.5231 791.789 37.2948 790.47 35.4439C789.849 34.5582 789.097 33.7717 788.237 33.1119C785.528 30.9019 782.122 29.7108 778.616 29.7476C765.185 29.6841 751.939 32.8588 740.015 38.9994C729.451 44.1381 719.923 51.1543 711.901 59.7012C711.671 59.9305 711.459 60.179 711.247 60.4084C704.102 68.5388 700.535 74.9105 700.548 79.5237C700.613 80.548 700.945 81.5381 701.511 82.3962C702.078 83.2543 702.861 83.9508 703.781 84.4172C705.948 85.8617 708.503 86.6213 711.112 86.5963H711.286C714.215 86.5687 717.133 86.2161 719.983 85.545C728.219 83.3726 735.956 79.6405 742.767 74.5537C753.966 66.7091 763.256 56.4746 769.957 44.6001H773.902C766.754 57.5001 756.786 68.6436 744.73 77.2107C737.69 82.5324 729.726 86.5237 721.234 88.9857C717.545 89.9806 713.742 90.4946 709.919 90.5149H709.458C700.939 90.3747 696.68 85.9974 696.68 77.3828C696.68 69.5328 700.529 61.549 708.226 53.4314L708.996 52.6285C717.25 44.4229 727.06 37.9256 737.86 33.5133C749.051 28.583 761.14 25.9809 773.382 25.8672C785.146 25.8672 793.266 29.0212 797.743 35.3292C800.484 39.5112 801.911 44.4084 801.842 49.398C801.823 49.7039 801.823 50.0862 801.823 50.4685Z" fill="url(#paint8_linear_1776_767)" fill-opacity="0.7"/>
<path d="M801.823 50.4685C801.823 59.1723 798.404 67.3154 791.566 74.8978C790.136 76.4943 788.62 78.013 787.025 79.4472C778.404 87.1825 763.587 95.3192 742.574 103.857C739.534 105.1 736.34 106.342 732.953 107.68L723.659 111.312C739.13 111.312 747.52 118.028 748.828 131.46H736.879C737.596 129.583 737.987 127.598 738.033 125.591C738.09 124.098 737.768 122.615 737.095 121.279C736.422 119.942 735.421 118.796 734.185 117.945C731.801 116.124 728.879 115.136 725.872 115.135C716.892 115.135 702.896 119.334 683.884 127.732L683.307 124.387C702.28 116.741 718.066 109.598 730.663 102.959C731.875 102.309 733.088 101.678 734.261 101.047C744.386 95.6269 753.945 89.2239 762.798 81.9322C782.529 66.0665 792.394 52.6859 792.394 41.7902C792.465 39.5231 791.789 37.2948 790.47 35.4439C789.849 34.5582 789.097 33.7717 788.237 33.1119C785.528 30.9019 782.122 29.7108 778.616 29.7476C765.185 29.6841 751.939 32.8588 740.015 38.9994C729.451 44.1381 719.923 51.1543 711.901 59.7012C711.671 59.9305 711.459 60.179 711.247 60.4084C704.102 68.5388 700.535 74.9105 700.548 79.5237C700.613 80.548 700.945 81.5381 701.511 82.3962C702.078 83.2543 702.861 83.9508 703.781 84.4172C705.948 85.8617 708.503 86.6213 711.112 86.5963H711.286C714.215 86.5687 717.133 86.2161 719.983 85.545C728.219 83.3726 735.956 79.6405 742.767 74.5537C753.966 66.7091 763.256 56.4746 769.957 44.6001H773.902C766.754 57.5001 756.786 68.6436 744.73 77.2107C737.69 82.5324 729.726 86.5237 721.234 88.9857C717.545 89.9806 713.742 90.4946 709.919 90.5149H709.458C700.939 90.3747 696.68 85.9974 696.68 77.3828C696.68 69.5328 700.529 61.549 708.226 53.4314L708.996 52.6285C717.25 44.4229 727.06 37.9256 737.86 33.5133C749.051 28.583 761.14 25.9809 773.382 25.8672C785.146 25.8672 793.266 29.0212 797.743 35.3292C800.484 39.5112 801.911 44.4084 801.842 49.398C801.823 49.7039 801.823 50.0862 801.823 50.4685Z" stroke="#322EF3" stroke-width="1.2" stroke-miterlimit="10"/>
<defs>
<linearGradient id="paint0_linear_1776_767" x1="225.939" y1="246.03" x2="230.9" y2="135.519" gradientUnits="userSpaceOnUse">
<stop offset="0.0476673" stop-color="#FF2A0D"/>
<stop offset="0.733837" stop-color="#FFFEDF"/>
</linearGradient>
<linearGradient id="paint1_linear_1776_767" x1="323.872" y1="176.151" x2="342.631" y2="22.274" gradientUnits="userSpaceOnUse">
<stop offset="0.0476673" stop-color="#FF2A0D"/>
<stop offset="0.733837" stop-color="#FFFEDF"/>
</linearGradient>
<linearGradient id="paint2_linear_1776_767" x1="286.654" y1="152.738" x2="294.706" y2="42.7629" gradientUnits="userSpaceOnUse">
<stop offset="0.0476673" stop-color="#FF2A0D"/>
<stop offset="0.733837" stop-color="#FFFEDF"/>
</linearGradient>
<linearGradient id="paint3_linear_1776_767" x1="425.837" y1="181.816" x2="426.411" y2="169.205" gradientUnits="userSpaceOnUse">
<stop offset="0.0476673" stop-color="#FF2A0D"/>
<stop offset="0.733837" stop-color="#FFFEDF"/>
</linearGradient>
<linearGradient id="paint4_linear_1776_767" x1="446.432" y1="162.135" x2="446.962" y2="151.107" gradientUnits="userSpaceOnUse">
<stop offset="0.0476673" stop-color="#FF2A0D"/>
<stop offset="0.733837" stop-color="#FFFEDF"/>
</linearGradient>
<linearGradient id="paint5_linear_1776_767" x1="408.629" y1="294.172" x2="433.957" y2="17.762" gradientUnits="userSpaceOnUse">
<stop offset="0.0476673" stop-color="#FF2A0D"/>
<stop offset="0.733837" stop-color="#FFFEDF"/>
</linearGradient>
<linearGradient id="paint6_linear_1776_767" x1="595.905" y1="117.978" x2="605.064" y2="44.6588" gradientUnits="userSpaceOnUse">
<stop offset="0.0476673" stop-color="#FF2A0D"/>
<stop offset="0.733837" stop-color="#FFFEDF"/>
</linearGradient>
<linearGradient id="paint7_linear_1776_767" x1="564.798" y1="294.198" x2="580.396" y2="16.3483" gradientUnits="userSpaceOnUse">
<stop offset="0.0476673" stop-color="#FF2A0D"/>
<stop offset="0.733837" stop-color="#FFFEDF"/>
</linearGradient>
<linearGradient id="paint8_linear_1776_767" x1="731.763" y1="176.229" x2="744.352" y2="21.0867" gradientUnits="userSpaceOnUse">
<stop offset="0.0476673" stop-color="#FF2A0D"/>
<stop offset="0.733837" stop-color="#FFFEDF"/>
</linearGradient>
</defs>
</svg>